%TF.GenerationSoftware,KiCad,Pcbnew,7.0.6*%
%TF.CreationDate,2023-07-30T12:59:47+01:00*%
%TF.ProjectId,Kiwano,4b697761-6e6f-42e6-9b69-6361645f7063,V1.0*%
%TF.SameCoordinates,Original*%
%TF.FileFunction,Soldermask,Bot*%
%TF.FilePolarity,Negative*%
%FSLAX46Y46*%
G04 Gerber Fmt 4.6, Leading zero omitted, Abs format (unit mm)*
G04 Created by KiCad (PCBNEW 7.0.6) date 2023-07-30 12:59:47*
%MOMM*%
%LPD*%
G01*
G04 APERTURE LIST*
G04 Aperture macros list*
%AMRoundRect*
0 Rectangle with rounded corners*
0 $1 Rounding radius*
0 $2 $3 $4 $5 $6 $7 $8 $9 X,Y pos of 4 corners*
0 Add a 4 corners polygon primitive as box body*
4,1,4,$2,$3,$4,$5,$6,$7,$8,$9,$2,$3,0*
0 Add four circle primitives for the rounded corners*
1,1,$1+$1,$2,$3*
1,1,$1+$1,$4,$5*
1,1,$1+$1,$6,$7*
1,1,$1+$1,$8,$9*
0 Add four rect primitives between the rounded corners*
20,1,$1+$1,$2,$3,$4,$5,0*
20,1,$1+$1,$4,$5,$6,$7,0*
20,1,$1+$1,$6,$7,$8,$9,0*
20,1,$1+$1,$8,$9,$2,$3,0*%
%AMRotRect*
0 Rectangle, with rotation*
0 The origin of the aperture is its center*
0 $1 length*
0 $2 width*
0 $3 Rotation angle, in degrees counterclockwise*
0 Add horizontal line*
21,1,$1,$2,0,0,$3*%
G04 Aperture macros list end*
%ADD10C,1.152000*%
%ADD11C,6.000000*%
%ADD12C,2.200000*%
%ADD13C,4.000000*%
%ADD14C,4.200000*%
%ADD15C,2.000000*%
%ADD16C,4.400000*%
%ADD17C,3.200000*%
%ADD18C,1.700000*%
%ADD19O,1.700000X1.700000*%
%ADD20R,1.700000X1.700000*%
%ADD21RoundRect,0.140000X0.170000X-0.140000X0.170000X0.140000X-0.170000X0.140000X-0.170000X-0.140000X0*%
%ADD22RoundRect,0.135000X0.185000X-0.135000X0.185000X0.135000X-0.185000X0.135000X-0.185000X-0.135000X0*%
%ADD23RoundRect,0.135000X-0.135000X-0.185000X0.135000X-0.185000X0.135000X0.185000X-0.135000X0.185000X0*%
%ADD24RoundRect,0.140000X-0.103484X0.194399X-0.210635X-0.064287X0.103484X-0.194399X0.210635X0.064287X0*%
%ADD25RoundRect,0.140000X-0.194399X-0.103484X0.064287X-0.210635X0.194399X0.103484X-0.064287X0.210635X0*%
%ADD26RoundRect,0.140000X0.194399X0.103484X-0.064287X0.210635X-0.194399X-0.103484X0.064287X-0.210635X0*%
%ADD27R,0.300000X0.800000*%
%ADD28R,0.400000X0.800000*%
%ADD29RoundRect,0.140000X0.064287X0.210635X-0.194399X0.103484X-0.064287X-0.210635X0.194399X-0.103484X0*%
%ADD30R,1.200000X1.200000*%
%ADD31C,1.200000*%
%ADD32RoundRect,0.135000X-0.185000X0.135000X-0.185000X-0.135000X0.185000X-0.135000X0.185000X0.135000X0*%
%ADD33RoundRect,0.140000X0.210635X-0.064287X0.103484X0.194399X-0.210635X0.064287X-0.103484X-0.194399X0*%
%ADD34RoundRect,0.140000X-0.064287X-0.210635X0.194399X-0.103484X0.064287X0.210635X-0.194399X0.103484X0*%
%ADD35RoundRect,0.140000X0.140000X0.170000X-0.140000X0.170000X-0.140000X-0.170000X0.140000X-0.170000X0*%
%ADD36RoundRect,0.135000X0.135000X0.185000X-0.135000X0.185000X-0.135000X-0.185000X0.135000X-0.185000X0*%
%ADD37RotRect,1.700000X1.000000X67.500000*%
%ADD38RotRect,1.700000X1.000000X247.500000*%
%ADD39RotRect,1.700000X1.000000X157.500000*%
%ADD40RotRect,1.700000X1.000000X112.500000*%
%ADD41RotRect,1.700000X1.000000X22.500000*%
%ADD42RoundRect,0.140000X-0.210635X0.064287X-0.103484X-0.194399X0.210635X-0.064287X0.103484X0.194399X0*%
%ADD43RotRect,1.700000X1.000000X202.500000*%
%ADD44RoundRect,0.140000X-0.170000X0.140000X-0.170000X-0.140000X0.170000X-0.140000X0.170000X0.140000X0*%
%ADD45RoundRect,0.140000X0.103484X-0.194399X0.210635X0.064287X-0.103484X0.194399X-0.210635X-0.064287X0*%
%ADD46RoundRect,0.150000X-0.150000X0.512500X-0.150000X-0.512500X0.150000X-0.512500X0.150000X0.512500X0*%
%ADD47RotRect,1.700000X1.000000X292.500000*%
%ADD48RotRect,1.700000X1.000000X337.500000*%
G04 APERTURE END LIST*
%TO.C,D7*%
G36*
X56626805Y-54446121D02*
G01*
X55976243Y-56016717D01*
X55375721Y-55767972D01*
X55186302Y-55310675D01*
X55702925Y-54063438D01*
X56626805Y-54446121D01*
G37*
%TO.C,D3*%
G36*
X94624284Y-64232036D02*
G01*
X94813703Y-64689333D01*
X94297080Y-65936570D01*
X93373200Y-65553887D01*
X94023762Y-63983291D01*
X94624284Y-64232036D01*
G37*
%TO.C,D5*%
G36*
X71016720Y-79023760D02*
G01*
X70767975Y-79624282D01*
X70310678Y-79813701D01*
X69063441Y-79297078D01*
X69446124Y-78373198D01*
X71016720Y-79023760D01*
G37*
%TO.C,D6*%
G36*
X58731565Y-70635222D02*
G01*
X58131044Y-70883966D01*
X57673747Y-70694548D01*
X57157124Y-69447310D01*
X58081004Y-69064627D01*
X58731565Y-70635222D01*
G37*
%TO.C,D8*%
G36*
X65935378Y-43081004D02*
G01*
X64364783Y-43731565D01*
X64116039Y-43131044D01*
X64305457Y-42673747D01*
X65552695Y-42157124D01*
X65935378Y-43081004D01*
G37*
%TO.C,D4*%
G36*
X85883968Y-76868960D02*
G01*
X85694550Y-77326257D01*
X84447312Y-77842880D01*
X84064629Y-76919000D01*
X85635224Y-76268439D01*
X85883968Y-76868960D01*
G37*
%TO.C,A1*%
G36*
X79285407Y-73885933D02*
G01*
X79318000Y-74003003D01*
X79301458Y-74106208D01*
X79233333Y-74177334D01*
X79196005Y-74164757D01*
X79148666Y-74055330D01*
X79155429Y-74003502D01*
X79233333Y-73881000D01*
X79285407Y-73885933D01*
G37*
G36*
X78762080Y-73575628D02*
G01*
X78778630Y-73612532D01*
X78767666Y-73754000D01*
X78715851Y-73807486D01*
X78610053Y-73835840D01*
X78557296Y-73775167D01*
X78597732Y-73638380D01*
X78683515Y-73553364D01*
X78762080Y-73575628D01*
G37*
G36*
X78178929Y-73281730D02*
G01*
X78286125Y-73410042D01*
X78290762Y-73461013D01*
X78212041Y-73484125D01*
X78171070Y-73464271D01*
X78063875Y-73335959D01*
X78059237Y-73284987D01*
X78137958Y-73261875D01*
X78178929Y-73281730D01*
G37*
G36*
X77913338Y-72897350D02*
G01*
X77917384Y-72997850D01*
X77904487Y-73015455D01*
X77789003Y-73076667D01*
X77765274Y-73073724D01*
X77711058Y-72998000D01*
X77763476Y-72881413D01*
X77823830Y-72853603D01*
X77913338Y-72897350D01*
G37*
G36*
X76290237Y-72909794D02*
G01*
X76354666Y-72992000D01*
X76352206Y-73012238D01*
X76270000Y-73076667D01*
X76249762Y-73074207D01*
X76185333Y-72992000D01*
X76187793Y-72971763D01*
X76270000Y-72907334D01*
X76290237Y-72909794D01*
G37*
G36*
X72860378Y-73201198D02*
G01*
X72849080Y-73418423D01*
X72863864Y-73780722D01*
X72934078Y-74023167D01*
X73082714Y-74214388D01*
X73301363Y-74319558D01*
X73525877Y-74279787D01*
X73528353Y-74278392D01*
X73591149Y-74216298D01*
X73540778Y-74138119D01*
X73358252Y-74013718D01*
X73222563Y-73910907D01*
X73083838Y-73711413D01*
X73082455Y-73674729D01*
X73267667Y-73674729D01*
X73326290Y-73736459D01*
X73480715Y-73841190D01*
X73486881Y-73844468D01*
X73611856Y-73885244D01*
X73645333Y-73809679D01*
X73644577Y-73793420D01*
X73575416Y-73644050D01*
X73441186Y-73541999D01*
X73308994Y-73540895D01*
X73279361Y-73566861D01*
X73267667Y-73674729D01*
X73082455Y-73674729D01*
X73076774Y-73524047D01*
X73197023Y-73385052D01*
X73440233Y-73330667D01*
X73481918Y-73332326D01*
X73666902Y-73403632D01*
X73798142Y-73596980D01*
X73857704Y-73809679D01*
X73892930Y-73935471D01*
X73965447Y-74304334D01*
X73974723Y-73864830D01*
X73991749Y-73617278D01*
X74053657Y-73412029D01*
X74164218Y-73362169D01*
X74328002Y-73462495D01*
X74422594Y-73541636D01*
X74524477Y-73562052D01*
X74655998Y-73462495D01*
X74792137Y-73369748D01*
X74910548Y-73389261D01*
X74978370Y-73561861D01*
X75000000Y-73893052D01*
X75007309Y-74126126D01*
X75040822Y-74292589D01*
X75105833Y-74325500D01*
X75130551Y-74309045D01*
X75190045Y-74158178D01*
X75211666Y-73884145D01*
X75212076Y-73863295D01*
X75349132Y-73863295D01*
X75426312Y-74098233D01*
X75549561Y-74233794D01*
X75708170Y-74236811D01*
X75852336Y-74082073D01*
X75893415Y-73983219D01*
X75873785Y-73853521D01*
X75737119Y-73690635D01*
X75709920Y-73664623D01*
X75547662Y-73552119D01*
X75432137Y-73536892D01*
X75356967Y-73651053D01*
X75349132Y-73863295D01*
X75212076Y-73863295D01*
X75213664Y-73782524D01*
X75254141Y-73523305D01*
X75353258Y-73387781D01*
X75445663Y-73351546D01*
X75664824Y-73376674D01*
X75879706Y-73512495D01*
X76036269Y-73731793D01*
X76077891Y-73825853D01*
X76122438Y-73893646D01*
X76146284Y-73825686D01*
X76166456Y-73605447D01*
X76173464Y-73526301D01*
X76208711Y-73355000D01*
X76293112Y-73282577D01*
X76463531Y-73294795D01*
X76756833Y-73377415D01*
X76800807Y-73383503D01*
X76862666Y-73328010D01*
X76865107Y-73308485D01*
X76947333Y-73246000D01*
X76985220Y-73298612D01*
X77019033Y-73480458D01*
X77032000Y-73749003D01*
X77032955Y-73833879D01*
X77059109Y-74131609D01*
X77116383Y-74287947D01*
X77198510Y-74293728D01*
X77299223Y-74139789D01*
X77305186Y-74126290D01*
X77350179Y-73948069D01*
X77345611Y-73706257D01*
X77290969Y-73351848D01*
X77234847Y-72989819D01*
X77225762Y-72813797D01*
X77307128Y-72813797D01*
X77369451Y-73156818D01*
X77502451Y-73446029D01*
X77755920Y-73783606D01*
X78082440Y-74108210D01*
X78439511Y-74377970D01*
X78784629Y-74551015D01*
X79047237Y-74626205D01*
X79511635Y-74672692D01*
X79889500Y-74581998D01*
X79911052Y-74571444D01*
X80054234Y-74480662D01*
X80042174Y-74425608D01*
X79871089Y-74404495D01*
X79537199Y-74415538D01*
X79348566Y-74424770D01*
X79070264Y-74412935D01*
X78834059Y-74347838D01*
X78557702Y-74212422D01*
X78385973Y-74109359D01*
X78095420Y-73898579D01*
X77876400Y-73696150D01*
X77748491Y-73523147D01*
X77578417Y-73174221D01*
X77486950Y-72813623D01*
X77494642Y-72521564D01*
X77549640Y-72521564D01*
X77554769Y-72694934D01*
X77629757Y-73015481D01*
X77654020Y-73092105D01*
X77872042Y-73490038D01*
X78216422Y-73852609D01*
X78651397Y-74140438D01*
X78819973Y-74212472D01*
X79128838Y-74300323D01*
X79438633Y-74348003D01*
X79696362Y-74348654D01*
X79849027Y-74295418D01*
X79829565Y-74240067D01*
X79706028Y-74109940D01*
X79503305Y-73941555D01*
X79367563Y-73837359D01*
X79071375Y-73607749D01*
X78723436Y-73336134D01*
X78373743Y-73061471D01*
X78119798Y-72863719D01*
X77859668Y-72667060D01*
X77673567Y-72533339D01*
X77590576Y-72484000D01*
X77549640Y-72521564D01*
X77494642Y-72521564D01*
X77495034Y-72506677D01*
X77495257Y-72505790D01*
X77509771Y-72354674D01*
X77437859Y-72334076D01*
X77387446Y-72366227D01*
X77314162Y-72537810D01*
X77307128Y-72813797D01*
X77225762Y-72813797D01*
X77214887Y-72603094D01*
X77260398Y-72353341D01*
X77370666Y-72250454D01*
X77374293Y-72250429D01*
X77478376Y-72303604D01*
X77688415Y-72441001D01*
X77979609Y-72644179D01*
X78327156Y-72894697D01*
X78706256Y-73174116D01*
X79092107Y-73463996D01*
X79459907Y-73745897D01*
X79784857Y-74001378D01*
X80042155Y-74211999D01*
X80135497Y-74295418D01*
X80207000Y-74359320D01*
X80224037Y-74454685D01*
X80201434Y-74480662D01*
X80091787Y-74606677D01*
X80005417Y-74665674D01*
X79766009Y-74745384D01*
X79414453Y-74768141D01*
X78888276Y-74703982D01*
X78371877Y-74487980D01*
X77898162Y-74112163D01*
X77564001Y-73778001D01*
X77488500Y-74075207D01*
X77470447Y-74137230D01*
X77347886Y-74368278D01*
X77189738Y-74494990D01*
X77032091Y-74511005D01*
X76911038Y-74409962D01*
X76862666Y-74185503D01*
X76859440Y-74087078D01*
X76802847Y-73785950D01*
X76689375Y-73577744D01*
X76536867Y-73500000D01*
X76524535Y-73500249D01*
X76428768Y-73538264D01*
X76371699Y-73668025D01*
X76335055Y-73928317D01*
X76326166Y-73983219D01*
X76287313Y-74223182D01*
X76209611Y-74431312D01*
X76116168Y-74508669D01*
X76018927Y-74436070D01*
X75943617Y-74363052D01*
X75825819Y-74413502D01*
X75767163Y-74443511D01*
X75559498Y-74484935D01*
X75291194Y-74492724D01*
X75266580Y-74491544D01*
X75019643Y-74466099D01*
X74895081Y-74409861D01*
X74849531Y-74304334D01*
X74840770Y-74247438D01*
X74783669Y-73955473D01*
X74725325Y-73811713D01*
X74658851Y-73797868D01*
X74643166Y-73813700D01*
X74595754Y-73957336D01*
X74576666Y-74182330D01*
X74574697Y-74253822D01*
X74545342Y-74440962D01*
X74492000Y-74516000D01*
X74473859Y-74508238D01*
X74426374Y-74392551D01*
X74407333Y-74182330D01*
X74405821Y-74117716D01*
X74377660Y-73907816D01*
X74325149Y-73797868D01*
X74313953Y-73792204D01*
X74249472Y-73824630D01*
X74191958Y-73988986D01*
X74134387Y-74303898D01*
X74128107Y-74335520D01*
X74070336Y-74423793D01*
X73927633Y-74470762D01*
X73657888Y-74493154D01*
X73527654Y-74494719D01*
X73213652Y-74465083D01*
X72984303Y-74396866D01*
X72876838Y-74345188D01*
X72755124Y-74329348D01*
X72663156Y-74414957D01*
X72654926Y-74425983D01*
X72570794Y-74497860D01*
X72444474Y-74500160D01*
X72218729Y-74435535D01*
X72024570Y-74379315D01*
X71860292Y-74369203D01*
X71741491Y-74430373D01*
X71703201Y-74459549D01*
X71586673Y-74486382D01*
X71442412Y-74387563D01*
X71340377Y-74302573D01*
X71239556Y-74285692D01*
X71106921Y-74387563D01*
X71064002Y-74424758D01*
X70932250Y-74490690D01*
X70810588Y-74432652D01*
X70731876Y-74323754D01*
X70682000Y-74119067D01*
X70681847Y-74103819D01*
X70635884Y-73851367D01*
X70528311Y-73660333D01*
X70388735Y-73584667D01*
X70208777Y-73654746D01*
X70062965Y-73838277D01*
X70003370Y-74077548D01*
X69996204Y-74179421D01*
X69946479Y-74372887D01*
X69869999Y-74496056D01*
X69791252Y-74500141D01*
X69766674Y-74399978D01*
X69778865Y-74188571D01*
X69822912Y-73931720D01*
X69887990Y-73690687D01*
X69963272Y-73526731D01*
X70140600Y-73410598D01*
X70462232Y-73363394D01*
X70851333Y-73350297D01*
X70851333Y-73806148D01*
X70858036Y-73988650D01*
X70886970Y-74185530D01*
X70931003Y-74262000D01*
X71032831Y-74221178D01*
X71076630Y-74075931D01*
X71014774Y-73869991D01*
X70964466Y-73761869D01*
X70965737Y-73645254D01*
X71191207Y-73645254D01*
X71200179Y-73778608D01*
X71326371Y-73987832D01*
X71375989Y-74048903D01*
X71520277Y-74201072D01*
X71613333Y-74262000D01*
X71634861Y-74255098D01*
X71749727Y-74159667D01*
X71900296Y-73987832D01*
X72006534Y-73824096D01*
X72043719Y-73669862D01*
X71969536Y-73608936D01*
X71791756Y-73664469D01*
X71643042Y-73715975D01*
X71434910Y-73664469D01*
X71291685Y-73610924D01*
X71191207Y-73645254D01*
X70965737Y-73645254D01*
X70965906Y-73629790D01*
X71086466Y-73481237D01*
X71215845Y-73364389D01*
X71311963Y-73353891D01*
X71441012Y-73454963D01*
X71550019Y-73545373D01*
X71650296Y-73559982D01*
X71782666Y-73457667D01*
X71887800Y-73370256D01*
X71988214Y-73354832D01*
X72121333Y-73457667D01*
X72233134Y-73581076D01*
X72256512Y-73669862D01*
X72279851Y-73758498D01*
X72163667Y-73923333D01*
X72057854Y-74036726D01*
X72073452Y-74140925D01*
X72246719Y-74245859D01*
X72411796Y-74283191D01*
X72543557Y-74200249D01*
X72590882Y-73985844D01*
X72547917Y-73651526D01*
X72508792Y-73446678D01*
X72472250Y-73109852D01*
X72469174Y-72937833D01*
X72640057Y-72937833D01*
X72655827Y-73141154D01*
X72666647Y-73168892D01*
X72685833Y-73123918D01*
X72692648Y-72949667D01*
X72690452Y-72857327D01*
X72676422Y-72755562D01*
X72654118Y-72802487D01*
X72640057Y-72937833D01*
X72469174Y-72937833D01*
X72466679Y-72798315D01*
X72492060Y-72559134D01*
X72548375Y-72439375D01*
X72623483Y-72428212D01*
X72770081Y-72495409D01*
X72807980Y-72534176D01*
X72860430Y-72656932D01*
X72876164Y-72865735D01*
X72872214Y-72949667D01*
X72860378Y-73201198D01*
G37*
%TO.C,D2*%
G36*
X92326262Y-49305458D02*
G01*
X92842885Y-50552696D01*
X91919005Y-50935379D01*
X91268444Y-49364784D01*
X91868965Y-49116040D01*
X92326262Y-49305458D01*
G37*
%TO.C,D1*%
G36*
X80936571Y-40702925D02*
G01*
X80553888Y-41626805D01*
X78983292Y-40976243D01*
X79232037Y-40375721D01*
X79689334Y-40186302D01*
X80936571Y-40702925D01*
G37*
%TD*%
D10*
%TO.C,H2*%
X74999999Y-30000001D03*
%TD*%
%TO.C,H1*%
X100980762Y-74999999D03*
%TD*%
D11*
%TO.C,H6*%
X52726137Y-82273864D03*
%TD*%
%TO.C,H9*%
X52726136Y-37726137D03*
%TD*%
%TO.C,H8*%
X97273864Y-82273863D03*
%TD*%
D12*
%TO.C,SW1*%
X95787076Y-72000993D03*
D13*
X97689680Y-53920318D03*
D14*
X68911112Y-82685102D03*
D13*
X58386888Y-43386888D03*
D12*
X51107185Y-57906342D03*
D15*
X85672275Y-31851243D03*
X80865966Y-30473056D03*
X83269121Y-31162149D03*
D16*
X103067021Y-64948973D03*
D17*
X77058909Y-89441319D03*
X57654764Y-83876954D03*
D16*
X48575260Y-49323712D03*
%TD*%
D18*
%TO.C,J3*%
X65500000Y-48600000D03*
D19*
X65500000Y-51140000D03*
D20*
X65500000Y-53680000D03*
X65500000Y-56220000D03*
%TD*%
D11*
%TO.C,H7*%
X97273863Y-37726136D03*
%TD*%
D10*
%TO.C,H3*%
X49019238Y-75000001D03*
%TD*%
D21*
%TO.C,C9*%
X83000000Y-57880000D03*
X83000000Y-56920000D03*
%TD*%
%TO.C,C14*%
X82799998Y-34580000D03*
X82799998Y-33620000D03*
%TD*%
D22*
%TO.C,R11*%
X69100000Y-37510000D03*
X69100000Y-36490000D03*
%TD*%
D23*
%TO.C,R5*%
X84090000Y-54400000D03*
X85110000Y-54400000D03*
%TD*%
D24*
%TO.C,C7*%
X60282499Y-47972305D03*
X59915123Y-48859229D03*
%TD*%
D25*
%TO.C,C5*%
X62972307Y-74717505D03*
X63859231Y-75084881D03*
%TD*%
D26*
%TO.C,C1*%
X87027700Y-45282501D03*
X86140776Y-44915125D03*
%TD*%
D27*
%TO.C,J1*%
X77750000Y-37800000D03*
X77250000Y-37800000D03*
X76750000Y-37800000D03*
X76250000Y-37800000D03*
X75750000Y-37800000D03*
X75250000Y-37800000D03*
X74750000Y-37800000D03*
X74250000Y-37800000D03*
X73750000Y-37800000D03*
X73250000Y-37800000D03*
X72750000Y-37800000D03*
X72250000Y-37800000D03*
D28*
X71250000Y-35300000D03*
X78750000Y-35300000D03*
%TD*%
D29*
%TO.C,C8*%
X73098023Y-41088290D03*
X72211099Y-41455666D03*
%TD*%
D11*
%TO.C,H5*%
X88800003Y-60000000D03*
%TD*%
D30*
%TO.C,U1*%
X80350000Y-54340000D03*
D31*
X80350000Y-56120000D03*
X80350000Y-57900000D03*
X80350000Y-59680000D03*
X80350000Y-61460000D03*
X80350000Y-63240000D03*
X80350000Y-65020000D03*
X80350000Y-66800000D03*
X69650000Y-67690000D03*
X69650000Y-65910000D03*
X69650000Y-64130000D03*
X69650000Y-62350000D03*
X69650000Y-60570000D03*
X69650000Y-58790000D03*
X69650000Y-57010000D03*
X69650000Y-55230000D03*
%TD*%
D11*
%TO.C,H4*%
X61200001Y-59999953D03*
%TD*%
D32*
%TO.C,R7*%
X84789998Y-33600000D03*
X84789998Y-34620000D03*
%TD*%
D33*
%TO.C,C2*%
X93911717Y-58098022D03*
X93544341Y-57211098D03*
%TD*%
D34*
%TO.C,C4*%
X76901985Y-78911712D03*
X77788909Y-78544336D03*
%TD*%
D35*
%TO.C,C12*%
X83080000Y-53400000D03*
X82120000Y-53400000D03*
%TD*%
D22*
%TO.C,R6*%
X85800000Y-34610000D03*
X85800000Y-33590000D03*
%TD*%
D32*
%TO.C,R9*%
X80799998Y-33590000D03*
X80799998Y-34610000D03*
%TD*%
D21*
%TO.C,C13*%
X83799998Y-34580000D03*
X83799998Y-33620000D03*
%TD*%
D35*
%TO.C,C11*%
X83580000Y-48200000D03*
X82620000Y-48200000D03*
%TD*%
D36*
%TO.C,R4*%
X85110000Y-53400000D03*
X84090000Y-53400000D03*
%TD*%
D22*
%TO.C,R1*%
X82200000Y-63710000D03*
X82200000Y-62690000D03*
%TD*%
D37*
%TO.C,D7*%
X59237774Y-50494497D03*
X57944343Y-49958740D03*
X57133015Y-55575834D03*
%TD*%
D38*
%TO.C,D3*%
X90762231Y-69505511D03*
X92055662Y-70041268D03*
X92866990Y-64424174D03*
%TD*%
D39*
%TO.C,D5*%
X65494500Y-75762229D03*
X64958743Y-77055660D03*
X70575837Y-77866988D03*
%TD*%
D40*
%TO.C,D6*%
X57133017Y-64424172D03*
X55839586Y-64959929D03*
X59237776Y-69505509D03*
%TD*%
D22*
%TO.C,R8*%
X81799997Y-34610000D03*
X81799997Y-33590000D03*
%TD*%
D41*
%TO.C,D8*%
X70575833Y-42133017D03*
X70040076Y-40839586D03*
X65494496Y-44237776D03*
%TD*%
D42*
%TO.C,C6*%
X56088290Y-61901982D03*
X56455666Y-62788906D03*
%TD*%
D43*
%TO.C,D4*%
X79424174Y-77866987D03*
X79959931Y-79160418D03*
X84505511Y-75762228D03*
%TD*%
D23*
%TO.C,R2*%
X80290000Y-50600000D03*
X81310000Y-50600000D03*
%TD*%
D44*
%TO.C,C10*%
X82000000Y-56920000D03*
X82000000Y-57880000D03*
%TD*%
D22*
%TO.C,R3*%
X80400000Y-47510000D03*
X80400000Y-46490000D03*
%TD*%
D45*
%TO.C,C3*%
X89717507Y-72027691D03*
X90084883Y-71140767D03*
%TD*%
D27*
%TO.C,J2*%
X72249989Y-45600008D03*
X72749989Y-45600008D03*
X73249989Y-45600008D03*
X73749989Y-45600008D03*
X74249989Y-45600008D03*
X74749989Y-45600008D03*
X75249989Y-45600008D03*
X75749989Y-45600008D03*
X76249989Y-45600008D03*
X76749989Y-45600008D03*
X77249989Y-45600008D03*
X77749989Y-45600008D03*
D28*
X78749989Y-48100008D03*
X71249989Y-48100008D03*
%TD*%
D46*
%TO.C,U2*%
X82650000Y-49662500D03*
X83600000Y-49662500D03*
X84550000Y-49662500D03*
X84550000Y-51937500D03*
X82650000Y-51937500D03*
%TD*%
D22*
%TO.C,R10*%
X70100000Y-37510000D03*
X70100000Y-36490000D03*
%TD*%
D47*
%TO.C,D2*%
X92866992Y-55575834D03*
X94160423Y-55040077D03*
X90762233Y-50494497D03*
%TD*%
D48*
%TO.C,D1*%
X84505512Y-44237774D03*
X85041269Y-42944343D03*
X79424175Y-42133015D03*
%TD*%
M02*
