M48
; DRILL file {KiCad 7.0.6} date Thu Jul 27 21:49:21 2023
; FORMAT={-:-/ absolute / inch / decimal}
; #@! TF.CreationDate,2023-07-27T21:49:21+01:00
; #@! TF.GenerationSoftware,Kicad,Pcbnew,7.0.6
; #@! TF.FileFunction,Plated,1,2,PTH
FMAT,2
INCH
; #@! TA.AperFunction,Plated,PTH,ViaDrill
T1C0.0118
; #@! TA.AperFunction,Plated,PTH,ComponentDrill
T2C0.0276
; #@! TA.AperFunction,Plated,PTH,ComponentDrill
T3C0.0394
; #@! TA.AperFunction,Plated,PTH,ComponentDrill
T4C0.0866
; #@! TA.AperFunction,Plated,PTH,ComponentDrill
T5C0.1260
%
G90
G05
T1
X2.1676Y-2.2053
X2.1931Y-2.2159
X2.1989Y-2.4145
X2.2866Y-2.8065
X2.3121Y-2.7959
X2.3827Y-1.8661
X2.4567Y-2.9323
X2.5085Y-1.6961
X2.5191Y-1.7215
X2.6732Y-1.9488
X2.7677Y-1.9488
X2.7756Y-1.8228
X2.7959Y-3.1474
X2.7992Y-1.5827
X2.8064Y-3.1219
X2.8307Y-1.8937
X2.8346Y-1.4528
X2.8346Y-1.8307
X2.8425Y-1.6063
X2.8642Y-1.4528
X2.8642Y-1.8307
X2.8819Y-1.6457
X2.8858Y-1.7047
X2.8937Y-1.4528
X2.8937Y-1.8307
X2.9567Y-1.5236
X2.9567Y-1.5591
X2.9882Y-1.8819
X3.0051Y-3.1161
X3.0079Y-1.8504
X3.0472Y-1.9409
X3.0534Y-1.8959
X3.063Y-1.4134
X3.0866Y-1.5591
X3.1024Y-1.8622
X3.1102Y-1.7165
X3.126Y-1.7953
X3.1457Y-1.5709
X3.1732Y-1.5827
X3.2205Y-1.4134
X3.2283Y-2.2165
X3.2598Y-1.3858
X3.2677Y-2.2165
X3.2913Y-1.9961
X3.2913Y-2.0236
X3.2913Y-2.0512
X3.2913Y-2.0787
X3.2992Y-1.3858
X3.3865Y-3.0029
X3.397Y-3.0283
X3.4488Y-1.7921
X3.5228Y-2.8583
X3.5934Y-1.9285
X3.6189Y-1.918
X3.7067Y-2.3099
X3.7125Y-2.5086
X3.7379Y-2.5191
T2
X2.7421Y-2.1744
X2.7421Y-2.2445
X2.7421Y-2.3146
X2.7421Y-2.3846
X2.7421Y-2.4547
X2.7421Y-2.5248
X2.7421Y-2.5949
X2.7421Y-2.665
X3.1634Y-2.1394
X3.1634Y-2.2094
X3.1634Y-2.2795
X3.1634Y-2.3496
X3.1634Y-2.4197
X3.1634Y-2.4898
X3.1634Y-2.5598
X3.1634Y-2.6299
T3
X2.5787Y-1.9134
X2.5787Y-2.0134
X2.5787Y-2.1134
X2.5787Y-2.2134
X3.1837Y-1.1997
X3.2783Y-1.2269
X3.3729Y-1.254
T4
X2.2699Y-3.3022
X3.0338Y-3.5213
T5
X2.0758Y-1.4853
X2.0758Y-3.2391
X2.4094Y-2.3622
X3.4961Y-2.3622
X3.8297Y-1.4853
X3.8297Y-3.2391
T5
G00X1.9124Y-1.9419
M15
G01X1.9124Y-1.9419
M16
G05
G00X4.0578Y-2.557
M15
G01X4.0578Y-2.557
M16
G05
T0
M30
