%TF.GenerationSoftware,KiCad,Pcbnew,7.0.6*%
%TF.CreationDate,2023-07-30T12:59:47+01:00*%
%TF.ProjectId,Kiwano,4b697761-6e6f-42e6-9b69-6361645f7063,V1.0*%
%TF.SameCoordinates,Original*%
%TF.FileFunction,Copper,L2,Bot*%
%TF.FilePolarity,Positive*%
%FSLAX46Y46*%
G04 Gerber Fmt 4.6, Leading zero omitted, Abs format (unit mm)*
G04 Created by KiCad (PCBNEW 7.0.6) date 2023-07-30 12:59:47*
%MOMM*%
%LPD*%
G01*
G04 APERTURE LIST*
G04 Aperture macros list*
%AMRoundRect*
0 Rectangle with rounded corners*
0 $1 Rounding radius*
0 $2 $3 $4 $5 $6 $7 $8 $9 X,Y pos of 4 corners*
0 Add a 4 corners polygon primitive as box body*
4,1,4,$2,$3,$4,$5,$6,$7,$8,$9,$2,$3,0*
0 Add four circle primitives for the rounded corners*
1,1,$1+$1,$2,$3*
1,1,$1+$1,$4,$5*
1,1,$1+$1,$6,$7*
1,1,$1+$1,$8,$9*
0 Add four rect primitives between the rounded corners*
20,1,$1+$1,$2,$3,$4,$5,0*
20,1,$1+$1,$4,$5,$6,$7,0*
20,1,$1+$1,$6,$7,$8,$9,0*
20,1,$1+$1,$8,$9,$2,$3,0*%
%AMRotRect*
0 Rectangle, with rotation*
0 The origin of the aperture is its center*
0 $1 length*
0 $2 width*
0 $3 Rotation angle, in degrees counterclockwise*
0 Add horizontal line*
21,1,$1,$2,0,0,$3*%
G04 Aperture macros list end*
%TA.AperFunction,ComponentPad*%
%ADD10C,6.000000*%
%TD*%
%TA.AperFunction,ComponentPad*%
%ADD11C,2.000000*%
%TD*%
%TA.AperFunction,ComponentPad*%
%ADD12C,4.400000*%
%TD*%
%TA.AperFunction,ComponentPad*%
%ADD13C,3.200000*%
%TD*%
%TA.AperFunction,ComponentPad*%
%ADD14C,1.700000*%
%TD*%
%TA.AperFunction,ComponentPad*%
%ADD15O,1.700000X1.700000*%
%TD*%
%TA.AperFunction,ComponentPad*%
%ADD16R,1.700000X1.700000*%
%TD*%
%TA.AperFunction,SMDPad,CuDef*%
%ADD17RoundRect,0.140000X0.170000X-0.140000X0.170000X0.140000X-0.170000X0.140000X-0.170000X-0.140000X0*%
%TD*%
%TA.AperFunction,SMDPad,CuDef*%
%ADD18RoundRect,0.135000X0.185000X-0.135000X0.185000X0.135000X-0.185000X0.135000X-0.185000X-0.135000X0*%
%TD*%
%TA.AperFunction,SMDPad,CuDef*%
%ADD19RoundRect,0.135000X-0.135000X-0.185000X0.135000X-0.185000X0.135000X0.185000X-0.135000X0.185000X0*%
%TD*%
%TA.AperFunction,SMDPad,CuDef*%
%ADD20RoundRect,0.140000X-0.103484X0.194399X-0.210635X-0.064287X0.103484X-0.194399X0.210635X0.064287X0*%
%TD*%
%TA.AperFunction,SMDPad,CuDef*%
%ADD21RoundRect,0.140000X-0.194399X-0.103484X0.064287X-0.210635X0.194399X0.103484X-0.064287X0.210635X0*%
%TD*%
%TA.AperFunction,SMDPad,CuDef*%
%ADD22RoundRect,0.140000X0.194399X0.103484X-0.064287X0.210635X-0.194399X-0.103484X0.064287X-0.210635X0*%
%TD*%
%TA.AperFunction,SMDPad,CuDef*%
%ADD23R,0.300000X0.800000*%
%TD*%
%TA.AperFunction,SMDPad,CuDef*%
%ADD24R,0.400000X0.800000*%
%TD*%
%TA.AperFunction,SMDPad,CuDef*%
%ADD25RoundRect,0.140000X0.064287X0.210635X-0.194399X0.103484X-0.064287X-0.210635X0.194399X-0.103484X0*%
%TD*%
%TA.AperFunction,ComponentPad*%
%ADD26R,1.200000X1.200000*%
%TD*%
%TA.AperFunction,ComponentPad*%
%ADD27C,1.200000*%
%TD*%
%TA.AperFunction,SMDPad,CuDef*%
%ADD28RoundRect,0.135000X-0.185000X0.135000X-0.185000X-0.135000X0.185000X-0.135000X0.185000X0.135000X0*%
%TD*%
%TA.AperFunction,SMDPad,CuDef*%
%ADD29RoundRect,0.140000X0.210635X-0.064287X0.103484X0.194399X-0.210635X0.064287X-0.103484X-0.194399X0*%
%TD*%
%TA.AperFunction,SMDPad,CuDef*%
%ADD30RoundRect,0.140000X-0.064287X-0.210635X0.194399X-0.103484X0.064287X0.210635X-0.194399X0.103484X0*%
%TD*%
%TA.AperFunction,SMDPad,CuDef*%
%ADD31RoundRect,0.140000X0.140000X0.170000X-0.140000X0.170000X-0.140000X-0.170000X0.140000X-0.170000X0*%
%TD*%
%TA.AperFunction,SMDPad,CuDef*%
%ADD32RoundRect,0.135000X0.135000X0.185000X-0.135000X0.185000X-0.135000X-0.185000X0.135000X-0.185000X0*%
%TD*%
%TA.AperFunction,SMDPad,CuDef*%
%ADD33RotRect,1.700000X1.000000X67.500000*%
%TD*%
%TA.AperFunction,SMDPad,CuDef*%
%ADD34RotRect,1.700000X1.000000X247.500000*%
%TD*%
%TA.AperFunction,SMDPad,CuDef*%
%ADD35RotRect,1.700000X1.000000X157.500000*%
%TD*%
%TA.AperFunction,SMDPad,CuDef*%
%ADD36RotRect,1.700000X1.000000X112.500000*%
%TD*%
%TA.AperFunction,SMDPad,CuDef*%
%ADD37RotRect,1.700000X1.000000X22.500000*%
%TD*%
%TA.AperFunction,SMDPad,CuDef*%
%ADD38RoundRect,0.140000X-0.210635X0.064287X-0.103484X-0.194399X0.210635X-0.064287X0.103484X0.194399X0*%
%TD*%
%TA.AperFunction,SMDPad,CuDef*%
%ADD39RotRect,1.700000X1.000000X202.500000*%
%TD*%
%TA.AperFunction,SMDPad,CuDef*%
%ADD40RoundRect,0.140000X-0.170000X0.140000X-0.170000X-0.140000X0.170000X-0.140000X0.170000X0.140000X0*%
%TD*%
%TA.AperFunction,SMDPad,CuDef*%
%ADD41RoundRect,0.140000X0.103484X-0.194399X0.210635X0.064287X-0.103484X0.194399X-0.210635X-0.064287X0*%
%TD*%
%TA.AperFunction,SMDPad,CuDef*%
%ADD42RoundRect,0.150000X-0.150000X0.512500X-0.150000X-0.512500X0.150000X-0.512500X0.150000X0.512500X0*%
%TD*%
%TA.AperFunction,SMDPad,CuDef*%
%ADD43RotRect,1.700000X1.000000X292.500000*%
%TD*%
%TA.AperFunction,SMDPad,CuDef*%
%ADD44RotRect,1.700000X1.000000X337.500000*%
%TD*%
%TA.AperFunction,ViaPad*%
%ADD45C,0.600000*%
%TD*%
%TA.AperFunction,Conductor*%
%ADD46C,0.200000*%
%TD*%
%TA.AperFunction,Conductor*%
%ADD47C,0.400000*%
%TD*%
%TA.AperFunction,Conductor*%
%ADD48C,0.300000*%
%TD*%
%TA.AperFunction,Conductor*%
%ADD49C,0.150000*%
%TD*%
G04 APERTURE END LIST*
D10*
%TO.P,H6,1*%
%TO.N,N/C*%
X52726137Y-82273864D03*
%TD*%
%TO.P,H9,1*%
%TO.N,N/C*%
X52726136Y-37726137D03*
%TD*%
%TO.P,H8,1*%
%TO.N,N/C*%
X97273864Y-82273863D03*
%TD*%
D11*
%TO.P,SW1,A,A*%
%TO.N,Net-(C13-Pad2)*%
X85672275Y-31851243D03*
%TO.P,SW1,B,B*%
%TO.N,Net-(C14-Pad2)*%
X80865966Y-30473056D03*
%TO.P,SW1,C,C*%
%TO.N,GND*%
X83269121Y-31162149D03*
D12*
%TO.P,SW1,MP*%
%TO.N,N/C*%
X103067021Y-64948973D03*
D13*
X77058909Y-89441319D03*
X57654764Y-83876954D03*
D12*
X48575260Y-49323712D03*
%TD*%
D14*
%TO.P,J3,1,Pin_1*%
%TO.N,Net-(D8-DOUT)*%
X65500000Y-48600000D03*
D15*
%TO.P,J3,2,Pin_2*%
%TO.N,+5V*%
X65500000Y-51140000D03*
D16*
%TO.P,J3,3,Pin_3*%
%TO.N,GND*%
X65500000Y-53680000D03*
%TO.P,J3,4,Pin_4*%
X65500000Y-56220000D03*
%TD*%
D10*
%TO.P,H7,1*%
%TO.N,N/C*%
X97273863Y-37726136D03*
%TD*%
D17*
%TO.P,C9,1*%
%TO.N,Net-(U1-VDDPIX)*%
X83000000Y-57880000D03*
%TO.P,C9,2*%
%TO.N,GND*%
X83000000Y-56920000D03*
%TD*%
%TO.P,C14,1*%
%TO.N,GND*%
X82799998Y-34580000D03*
%TO.P,C14,2*%
%TO.N,Net-(C14-Pad2)*%
X82799998Y-33620000D03*
%TD*%
D18*
%TO.P,R11,1*%
%TO.N,+3V3*%
X69100000Y-37510000D03*
%TO.P,R11,2*%
%TO.N,SCL*%
X69100000Y-36490000D03*
%TD*%
D19*
%TO.P,R5,1*%
%TO.N,+2V*%
X84090000Y-54400000D03*
%TO.P,R5,2*%
%TO.N,Net-(U2-ADJ)*%
X85110000Y-54400000D03*
%TD*%
D20*
%TO.P,C7,1*%
%TO.N,GND*%
X60282499Y-47972305D03*
%TO.P,C7,2*%
%TO.N,+5V*%
X59915123Y-48859229D03*
%TD*%
D21*
%TO.P,C5,1*%
%TO.N,GND*%
X62972307Y-74717505D03*
%TO.P,C5,2*%
%TO.N,+5V*%
X63859231Y-75084881D03*
%TD*%
D22*
%TO.P,C1,1*%
%TO.N,GND*%
X87027700Y-45282501D03*
%TO.P,C1,2*%
%TO.N,+5V*%
X86140776Y-44915125D03*
%TD*%
D23*
%TO.P,J1,1,SCLK*%
%TO.N,SCK*%
X77750000Y-37800000D03*
%TO.P,J1,2,MISO*%
%TO.N,MISO*%
X77250000Y-37800000D03*
%TO.P,J1,3,CS*%
%TO.N,CS*%
X76750000Y-37800000D03*
%TO.P,J1,4,GPIO2*%
%TO.N,ROTA*%
X76250000Y-37800000D03*
%TO.P,J1,5,MOSI*%
%TO.N,MOSI*%
X75750000Y-37800000D03*
%TO.P,J1,6,GPIO1*%
%TO.N,ROTB*%
X75250000Y-37800000D03*
%TO.P,J1,7,5V*%
%TO.N,+5V*%
X74750000Y-37800000D03*
%TO.P,J1,8,RGB*%
%TO.N,RGB*%
X74250000Y-37800000D03*
%TO.P,J1,9,SCL*%
%TO.N,SCL*%
X73750000Y-37800000D03*
%TO.P,J1,10,SDA*%
%TO.N,SDA*%
X73250000Y-37800000D03*
%TO.P,J1,11,GND*%
%TO.N,GND*%
X72750000Y-37800000D03*
%TO.P,J1,12,3V3*%
%TO.N,+3V3*%
X72250000Y-37800000D03*
D24*
%TO.P,J1,MP*%
%TO.N,GND*%
X71250000Y-35300000D03*
X78750000Y-35300000D03*
%TD*%
D25*
%TO.P,C8,1*%
%TO.N,GND*%
X73098023Y-41088290D03*
%TO.P,C8,2*%
%TO.N,+5V*%
X72211099Y-41455666D03*
%TD*%
D10*
%TO.P,H5,1*%
%TO.N,N/C*%
X88800003Y-60000000D03*
%TD*%
D26*
%TO.P,U1,1,NC*%
%TO.N,unconnected-(U1-NC-Pad1)*%
X80350000Y-54340000D03*
D27*
%TO.P,U1,2,NC*%
%TO.N,unconnected-(U1-NC-Pad2)*%
X80350000Y-56120000D03*
%TO.P,U1,3,VDDPIX*%
%TO.N,Net-(U1-VDDPIX)*%
X80350000Y-57900000D03*
%TO.P,U1,4,VDD*%
%TO.N,+2V*%
X80350000Y-59680000D03*
%TO.P,U1,5,VDDIO*%
%TO.N,+3V3*%
X80350000Y-61460000D03*
%TO.P,U1,6,NC*%
%TO.N,unconnected-(U1-NC-Pad6)*%
X80350000Y-63240000D03*
%TO.P,U1,7,NRESET*%
%TO.N,Net-(U1-NRESET)*%
X80350000Y-65020000D03*
%TO.P,U1,8,GND*%
%TO.N,GND*%
X80350000Y-66800000D03*
%TO.P,U1,9,MOTION*%
%TO.N,unconnected-(U1-MOTION-Pad9)*%
X69650000Y-67690000D03*
%TO.P,U1,10,SCLK*%
%TO.N,SCK*%
X69650000Y-65910000D03*
%TO.P,U1,11,MOSI*%
%TO.N,MOSI*%
X69650000Y-64130000D03*
%TO.P,U1,12,MISO*%
%TO.N,MISO*%
X69650000Y-62350000D03*
%TO.P,U1,13,NCS*%
%TO.N,CS*%
X69650000Y-60570000D03*
%TO.P,U1,14,NC*%
%TO.N,unconnected-(U1-NC-Pad14)*%
X69650000Y-58790000D03*
%TO.P,U1,15,LED_P*%
%TO.N,Net-(U1-LED_P)*%
X69650000Y-57010000D03*
%TO.P,U1,16,NC*%
%TO.N,unconnected-(U1-NC-Pad16)*%
X69650000Y-55230000D03*
%TD*%
D10*
%TO.P,H4,1*%
%TO.N,N/C*%
X61200001Y-59999953D03*
%TD*%
D28*
%TO.P,R7,1*%
%TO.N,Net-(C13-Pad2)*%
X84789998Y-33600000D03*
%TO.P,R7,2*%
%TO.N,+3V3*%
X84789998Y-34620000D03*
%TD*%
D29*
%TO.P,C2,1*%
%TO.N,GND*%
X93911717Y-58098022D03*
%TO.P,C2,2*%
%TO.N,+5V*%
X93544341Y-57211098D03*
%TD*%
D30*
%TO.P,C4,1*%
%TO.N,GND*%
X76901985Y-78911712D03*
%TO.P,C4,2*%
%TO.N,+5V*%
X77788909Y-78544336D03*
%TD*%
D31*
%TO.P,C12,1*%
%TO.N,GND*%
X83080000Y-53400000D03*
%TO.P,C12,2*%
%TO.N,+2V*%
X82120000Y-53400000D03*
%TD*%
D18*
%TO.P,R6,1*%
%TO.N,ROTA*%
X85800000Y-34610000D03*
%TO.P,R6,2*%
%TO.N,Net-(C13-Pad2)*%
X85800000Y-33590000D03*
%TD*%
D28*
%TO.P,R9,1*%
%TO.N,Net-(C14-Pad2)*%
X80799998Y-33590000D03*
%TO.P,R9,2*%
%TO.N,ROTB*%
X80799998Y-34610000D03*
%TD*%
D17*
%TO.P,C13,1*%
%TO.N,GND*%
X83799998Y-34580000D03*
%TO.P,C13,2*%
%TO.N,Net-(C13-Pad2)*%
X83799998Y-33620000D03*
%TD*%
D31*
%TO.P,C11,1*%
%TO.N,GND*%
X83580000Y-48200000D03*
%TO.P,C11,2*%
%TO.N,+3V3*%
X82620000Y-48200000D03*
%TD*%
D32*
%TO.P,R4,1*%
%TO.N,Net-(U2-ADJ)*%
X85110000Y-53400000D03*
%TO.P,R4,2*%
%TO.N,GND*%
X84090000Y-53400000D03*
%TD*%
D18*
%TO.P,R1,1*%
%TO.N,Net-(U1-NRESET)*%
X82200000Y-63710000D03*
%TO.P,R1,2*%
%TO.N,+3V3*%
X82200000Y-62690000D03*
%TD*%
D33*
%TO.P,D7,1,VDD*%
%TO.N,+5V*%
X59237774Y-50494497D03*
%TO.P,D7,2,DOUT*%
%TO.N,Net-(D7-DOUT)*%
X57944343Y-49958740D03*
%TO.P,D7,3,VSS*%
%TO.N,GND*%
X55839584Y-55040077D03*
%TO.P,D7,4,DIN*%
%TO.N,Net-(D6-DOUT)*%
X57133015Y-55575834D03*
%TD*%
D34*
%TO.P,D3,1,VDD*%
%TO.N,+5V*%
X90762231Y-69505511D03*
%TO.P,D3,2,DOUT*%
%TO.N,Net-(D3-DOUT)*%
X92055662Y-70041268D03*
%TO.P,D3,3,VSS*%
%TO.N,GND*%
X94160421Y-64959931D03*
%TO.P,D3,4,DIN*%
%TO.N,Net-(D2-DOUT)*%
X92866990Y-64424174D03*
%TD*%
D35*
%TO.P,D5,1,VDD*%
%TO.N,+5V*%
X65494500Y-75762229D03*
%TO.P,D5,2,DOUT*%
%TO.N,Net-(D5-DOUT)*%
X64958743Y-77055660D03*
%TO.P,D5,3,VSS*%
%TO.N,GND*%
X70040080Y-79160419D03*
%TO.P,D5,4,DIN*%
%TO.N,Net-(D4-DOUT)*%
X70575837Y-77866988D03*
%TD*%
D36*
%TO.P,D6,1,VDD*%
%TO.N,+5V*%
X57133017Y-64424172D03*
%TO.P,D6,2,DOUT*%
%TO.N,Net-(D6-DOUT)*%
X55839586Y-64959929D03*
%TO.P,D6,3,VSS*%
%TO.N,GND*%
X57944345Y-70041266D03*
%TO.P,D6,4,DIN*%
%TO.N,Net-(D5-DOUT)*%
X59237776Y-69505509D03*
%TD*%
D18*
%TO.P,R8,1*%
%TO.N,+3V3*%
X81799997Y-34610000D03*
%TO.P,R8,2*%
%TO.N,Net-(C14-Pad2)*%
X81799997Y-33590000D03*
%TD*%
D37*
%TO.P,D8,1,VDD*%
%TO.N,+5V*%
X70575833Y-42133017D03*
%TO.P,D8,2,DOUT*%
%TO.N,Net-(D8-DOUT)*%
X70040076Y-40839586D03*
%TO.P,D8,3,VSS*%
%TO.N,GND*%
X64958739Y-42944345D03*
%TO.P,D8,4,DIN*%
%TO.N,Net-(D7-DOUT)*%
X65494496Y-44237776D03*
%TD*%
D38*
%TO.P,C6,1*%
%TO.N,GND*%
X56088290Y-61901982D03*
%TO.P,C6,2*%
%TO.N,+5V*%
X56455666Y-62788906D03*
%TD*%
D39*
%TO.P,D4,1,VDD*%
%TO.N,+5V*%
X79424174Y-77866987D03*
%TO.P,D4,2,DOUT*%
%TO.N,Net-(D4-DOUT)*%
X79959931Y-79160418D03*
%TO.P,D4,3,VSS*%
%TO.N,GND*%
X85041268Y-77055659D03*
%TO.P,D4,4,DIN*%
%TO.N,Net-(D3-DOUT)*%
X84505511Y-75762228D03*
%TD*%
D19*
%TO.P,R2,1*%
%TO.N,Net-(U1-LED_P)*%
X80290000Y-50600000D03*
%TO.P,R2,2*%
%TO.N,+2V*%
X81310000Y-50600000D03*
%TD*%
D40*
%TO.P,C10,1*%
%TO.N,GND*%
X82000000Y-56920000D03*
%TO.P,C10,2*%
%TO.N,Net-(U1-VDDPIX)*%
X82000000Y-57880000D03*
%TD*%
D18*
%TO.P,R3,1*%
%TO.N,MISO*%
X80400000Y-47510000D03*
%TO.P,R3,2*%
%TO.N,+3V3*%
X80400000Y-46490000D03*
%TD*%
D41*
%TO.P,C3,1*%
%TO.N,GND*%
X89717507Y-72027691D03*
%TO.P,C3,2*%
%TO.N,+5V*%
X90084883Y-71140767D03*
%TD*%
D23*
%TO.P,J2,1,3V3*%
%TO.N,+3V3*%
X72249989Y-45600008D03*
%TO.P,J2,2,GND*%
%TO.N,GND*%
X72749989Y-45600008D03*
%TO.P,J2,3,SDA*%
%TO.N,SDA*%
X73249989Y-45600008D03*
%TO.P,J2,4,SCL*%
%TO.N,SCL*%
X73749989Y-45600008D03*
%TO.P,J2,5,BTN1*%
%TO.N,unconnected-(J2-BTN1-Pad5)*%
X74249989Y-45600008D03*
%TO.P,J2,6,BTN2*%
%TO.N,unconnected-(J2-BTN2-Pad6)*%
X74749989Y-45600008D03*
%TO.P,J2,7,BTN3*%
%TO.N,unconnected-(J2-BTN3-Pad7)*%
X75249989Y-45600008D03*
%TO.P,J2,8,MOSI*%
%TO.N,MOSI*%
X75749989Y-45600008D03*
%TO.P,J2,9,DR*%
%TO.N,unconnected-(J2-DR-Pad9)*%
X76249989Y-45600008D03*
%TO.P,J2,10,CS*%
%TO.N,CS*%
X76749989Y-45600008D03*
%TO.P,J2,11,MISO*%
%TO.N,MISO*%
X77249989Y-45600008D03*
%TO.P,J2,12,SCK*%
%TO.N,SCK*%
X77749989Y-45600008D03*
D24*
%TO.P,J2,MP*%
%TO.N,GND*%
X78749989Y-48100008D03*
X71249989Y-48100008D03*
%TD*%
D42*
%TO.P,U2,1,VIN*%
%TO.N,+3V3*%
X82650000Y-49662500D03*
%TO.P,U2,2,GND*%
%TO.N,GND*%
X83600000Y-49662500D03*
%TO.P,U2,3,EN*%
%TO.N,+3V3*%
X84550000Y-49662500D03*
%TO.P,U2,4,ADJ*%
%TO.N,Net-(U2-ADJ)*%
X84550000Y-51937500D03*
%TO.P,U2,5,VOUT*%
%TO.N,+2V*%
X82650000Y-51937500D03*
%TD*%
D18*
%TO.P,R10,1*%
%TO.N,+3V3*%
X70100000Y-37510000D03*
%TO.P,R10,2*%
%TO.N,SDA*%
X70100000Y-36490000D03*
%TD*%
D43*
%TO.P,D2,1,VDD*%
%TO.N,+5V*%
X92866992Y-55575834D03*
%TO.P,D2,2,DOUT*%
%TO.N,Net-(D2-DOUT)*%
X94160423Y-55040077D03*
%TO.P,D2,3,VSS*%
%TO.N,GND*%
X92055664Y-49958740D03*
%TO.P,D2,4,DIN*%
%TO.N,Net-(D1-DOUT)*%
X90762233Y-50494497D03*
%TD*%
D44*
%TO.P,D1,1,VDD*%
%TO.N,+5V*%
X84505512Y-44237774D03*
%TO.P,D1,2,DOUT*%
%TO.N,Net-(D1-DOUT)*%
X85041269Y-42944343D03*
%TO.P,D1,3,VSS*%
%TO.N,GND*%
X79959932Y-40839584D03*
%TO.P,D1,4,DIN*%
%TO.N,RGB*%
X79424175Y-42133015D03*
%TD*%
D45*
%TO.N,GND*%
X83600000Y-51400000D03*
X82799998Y-35200000D03*
X78800000Y-47300000D03*
X71850000Y-36900000D03*
X58080212Y-71283861D03*
X87600501Y-45519765D03*
X83000000Y-56300000D03*
X72600000Y-36900000D03*
X82000000Y-56299999D03*
X91919795Y-48716141D03*
X60519769Y-47399506D03*
X71014798Y-79942994D03*
X83600000Y-52100000D03*
X94148972Y-58670826D03*
X63716143Y-43080213D03*
X55057010Y-56014796D03*
X94296287Y-63717336D03*
X72000000Y-46500000D03*
X72750000Y-46500000D03*
X71900000Y-48100000D03*
X73200000Y-41800000D03*
X58726919Y-71015983D03*
X89480239Y-72600500D03*
X80600073Y-40199974D03*
X63984026Y-43726922D03*
X76329178Y-79148971D03*
X79900075Y-39899975D03*
X55703725Y-56282669D03*
X83799998Y-35199999D03*
X86283861Y-76919792D03*
X86015983Y-76273083D03*
X62399507Y-74480234D03*
X79000000Y-43600000D03*
X83600000Y-50700000D03*
X71900000Y-35100000D03*
X83600000Y-52800000D03*
X73500000Y-46500000D03*
X55851037Y-61329176D03*
X91273083Y-48984023D03*
X71282671Y-79296283D03*
X94942996Y-63985210D03*
%TO.N,+5V*%
X72200000Y-40800000D03*
X75100000Y-38700000D03*
%TO.N,+3V3*%
X72600000Y-35900000D03*
X73300000Y-43300000D03*
X81799997Y-35899997D03*
X79400000Y-45600000D03*
X74349500Y-35900000D03*
%TO.N,RGB*%
X78400000Y-39600000D03*
X75100000Y-39600000D03*
%TO.N,Net-(D8-DOUT)*%
X71100000Y-40200000D03*
X70500000Y-46300001D03*
%TO.N,SCK*%
X67900000Y-49500000D03*
X70300000Y-49500000D03*
%TO.N,MISO*%
X75900000Y-47800000D03*
X77400000Y-49300000D03*
%TO.N,CS*%
X76400000Y-47000000D03*
X77556755Y-48156754D03*
%TD*%
D46*
%TO.N,GND*%
X72749989Y-46499989D02*
X72750000Y-46500000D01*
D47*
%TO.N,+5V*%
X72149751Y-43483502D02*
X72600406Y-42395535D01*
X93544343Y-57211098D02*
X91853641Y-57911413D01*
X70575833Y-42133016D02*
X72211100Y-41455666D01*
X90762232Y-69505511D02*
X90084881Y-71140778D01*
X86140780Y-44915123D02*
X85681558Y-46023784D01*
X62486254Y-47486254D02*
X72149751Y-43483502D01*
X57133014Y-64424172D02*
X56455670Y-62788903D01*
X84505508Y-44237777D02*
X86140778Y-44915127D01*
X77788903Y-78544339D02*
X77088593Y-76853643D01*
X61605826Y-49559537D02*
X63919537Y-49559537D01*
D48*
X74750000Y-38350000D02*
X75100000Y-38700000D01*
D47*
X90084881Y-71140780D02*
X88394184Y-70440466D01*
X92697117Y-60000004D02*
X87513751Y-72513745D01*
X92866992Y-55575833D02*
X93544336Y-57211098D01*
X87513751Y-72513745D02*
X75000003Y-77697111D01*
D48*
X74750000Y-37800000D02*
X74750000Y-38350000D01*
D47*
X65494497Y-75762233D02*
X63859234Y-75084881D01*
X77788906Y-78544339D02*
X79424172Y-77866989D01*
X86033340Y-46873047D02*
X87513746Y-47486255D01*
X59237774Y-50494494D02*
X59915126Y-48859232D01*
D48*
X72200001Y-40800001D02*
X72200001Y-41444567D01*
D47*
X56455666Y-62788907D02*
X58146364Y-62088596D01*
X79424172Y-77866989D02*
X77788905Y-78544337D01*
X85681558Y-46023784D02*
X86033340Y-46873047D01*
X90762232Y-69505511D02*
X90084885Y-71140771D01*
X86140775Y-44915123D02*
X84505508Y-44237777D01*
X87513746Y-47486255D02*
X92697117Y-60000004D01*
X63859227Y-75084883D02*
X64559534Y-73394184D01*
X72211103Y-41455666D02*
X72600406Y-42395535D01*
D48*
X72200000Y-40800000D02*
X72200001Y-40800001D01*
D47*
X93544342Y-57211102D02*
X92866992Y-55575833D01*
X57302890Y-60000006D02*
X62486254Y-47486254D01*
X65494497Y-75762233D02*
X63859227Y-75084881D01*
X62486256Y-72513751D02*
X57302890Y-60000006D01*
X59915125Y-48859226D02*
X61605826Y-49559537D01*
X57133017Y-64424170D02*
X56455670Y-62788903D01*
X75000003Y-77697111D02*
X62486256Y-72513751D01*
X63919537Y-49559537D02*
X65500000Y-51139999D01*
D46*
%TO.N,Net-(U1-VDDPIX)*%
X80350000Y-57900000D02*
X82980000Y-57900000D01*
D48*
%TO.N,+3V3*%
X72250000Y-38801041D02*
X73900000Y-40451041D01*
X82620000Y-48200000D02*
X82620000Y-47380000D01*
X72249989Y-45047929D02*
X72249990Y-45600008D01*
X82200000Y-60407106D02*
X86200000Y-56407106D01*
X84900000Y-48400000D02*
X83250000Y-46750000D01*
X70900000Y-37510000D02*
X69100000Y-37510000D01*
X71800000Y-35900000D02*
X70900000Y-36800000D01*
X84550000Y-49662500D02*
X84550000Y-48750000D01*
X84789998Y-35410002D02*
X84789998Y-34620000D01*
X86200000Y-56407106D02*
X86200000Y-49700000D01*
X81799997Y-35899997D02*
X84300003Y-35899997D01*
X71800000Y-35900000D02*
X72600000Y-35900000D01*
X71190000Y-37800000D02*
X72250000Y-37800000D01*
X73900000Y-43397918D02*
X73648959Y-43648959D01*
X70900000Y-36800000D02*
X70900000Y-37510000D01*
X82620000Y-47380000D02*
X83250000Y-46750000D01*
X82200000Y-62690000D02*
X82200000Y-60407106D01*
X84300003Y-35899997D02*
X84789998Y-35410002D01*
X84550000Y-48750000D02*
X84900000Y-48400000D01*
X73900000Y-40451041D02*
X73900000Y-43397918D01*
X73648959Y-43648959D02*
X72249989Y-45047929D01*
X80400000Y-46490000D02*
X80400000Y-45600000D01*
X82100000Y-45600000D02*
X83250000Y-46750000D01*
X70900000Y-37510000D02*
X71190000Y-37800000D01*
X72250000Y-37762500D02*
X72250000Y-38801041D01*
X79400000Y-45600000D02*
X80400000Y-45600000D01*
X80400000Y-45600000D02*
X82100000Y-45600000D01*
X81799997Y-35899997D02*
X81799997Y-34610000D01*
X86200000Y-49700000D02*
X84900000Y-48400000D01*
X80350000Y-61460000D02*
X82160000Y-61459999D01*
X73300000Y-43300000D02*
X73648959Y-43648959D01*
%TO.N,+2V*%
X81500000Y-51300000D02*
X81600000Y-51400000D01*
X81600000Y-51400000D02*
X81900000Y-51400000D01*
X81310000Y-51110000D02*
X81500000Y-51300000D01*
X82120000Y-55020000D02*
X82120000Y-53400000D01*
X82220000Y-59680000D02*
X83800000Y-58100000D01*
X83800000Y-55500000D02*
X83500000Y-55200000D01*
X83500000Y-55200000D02*
X82300000Y-55200000D01*
X80350000Y-59680000D02*
X82220000Y-59680000D01*
X81310000Y-50600000D02*
X81310000Y-51110000D01*
X82300000Y-55200000D02*
X82120000Y-55020000D01*
X83800000Y-58100000D02*
X83800000Y-55500000D01*
D49*
%TO.N,Net-(D1-DOUT)*%
X88172004Y-44241140D02*
X90762232Y-50494496D01*
X85041266Y-42944344D02*
X88172004Y-44241140D01*
D46*
%TO.N,RGB*%
X75100000Y-39600000D02*
X74250000Y-38750000D01*
X78400000Y-39600000D02*
X78400000Y-41108840D01*
X78400000Y-41108840D02*
X79424175Y-42133015D01*
X74250000Y-38750000D02*
X74250000Y-37800000D01*
D49*
%TO.N,Net-(D2-DOUT)*%
X95457216Y-58170813D02*
X92866989Y-64424171D01*
X94160422Y-55040075D02*
X95457216Y-58170813D01*
%TO.N,Net-(D3-DOUT)*%
X90758866Y-73172006D02*
X84505510Y-75762233D01*
X92055663Y-70041266D02*
X90758866Y-73172006D01*
%TO.N,Net-(D4-DOUT)*%
X79959928Y-79160419D02*
X76829192Y-80457214D01*
X76829192Y-80457214D02*
X70575829Y-77866991D01*
%TO.N,Net-(D5-DOUT)*%
X64958738Y-77055662D02*
X61827997Y-75758867D01*
X61827997Y-75758867D02*
X59237776Y-69505511D01*
%TO.N,Net-(D6-DOUT)*%
X54542789Y-61829191D02*
X57133015Y-55575834D01*
X55839589Y-64959928D02*
X54542789Y-61829191D01*
%TO.N,Net-(D7-DOUT)*%
X57944344Y-49958739D02*
X59241136Y-46828001D01*
X59241136Y-46828001D02*
X65494496Y-44237774D01*
D46*
%TO.N,Net-(D8-DOUT)*%
X70500000Y-46300001D02*
X67800000Y-46300000D01*
X67800000Y-46300000D02*
X65500000Y-48600000D01*
X71100000Y-40200000D02*
X70679662Y-40200000D01*
%TO.N,SCK*%
X67100000Y-50300000D02*
X67100000Y-63360000D01*
X77750000Y-37800000D02*
X77750000Y-45599997D01*
X77749989Y-47115696D02*
X77749989Y-45600008D01*
X70300000Y-49500000D02*
X75365685Y-49500000D01*
X67100000Y-63360000D02*
X69650000Y-65910000D01*
X67900000Y-49500000D02*
X67100000Y-50300000D01*
X75365685Y-49500000D02*
X77749989Y-47115696D01*
%TO.N,MISO*%
X77249988Y-47050012D02*
X77249988Y-45600008D01*
X76200000Y-48100000D02*
X75900000Y-47800000D01*
X75400000Y-48900000D02*
X76200000Y-48100000D01*
X69650000Y-62350000D02*
X67900000Y-60600000D01*
X67900000Y-50965686D02*
X69965686Y-48900000D01*
X69965686Y-48900000D02*
X75400000Y-48900000D01*
X77249989Y-45600008D02*
X77249989Y-37800011D01*
X77400000Y-49300000D02*
X79500000Y-49300000D01*
X80400000Y-48400000D02*
X80400000Y-47510000D01*
X76200000Y-48100000D02*
X77249988Y-47050012D01*
X67900000Y-60600000D02*
X67900000Y-50965686D01*
X79500000Y-49300000D02*
X80400000Y-48400000D01*
%TO.N,CS*%
X75613509Y-50100000D02*
X69331372Y-50100000D01*
X68300000Y-59220000D02*
X69650000Y-60570000D01*
X76750000Y-37800000D02*
X76750000Y-45599997D01*
X69331372Y-50100000D02*
X68300000Y-51131372D01*
X68300000Y-51131372D02*
X68300000Y-59220000D01*
X76400000Y-47000000D02*
X76749989Y-46650011D01*
X77556755Y-48156754D02*
X75613509Y-50100000D01*
X76749989Y-46650011D02*
X76749989Y-45600008D01*
%TO.N,MOSI*%
X75749989Y-46350011D02*
X75749989Y-45600008D01*
X75750000Y-37800000D02*
X75750000Y-45599997D01*
X75000000Y-47100000D02*
X75749989Y-46350011D01*
X67500001Y-61980000D02*
X67500001Y-50800000D01*
X69650000Y-64130000D02*
X67500001Y-61980000D01*
X71200000Y-47100000D02*
X75000000Y-47100000D01*
X67500001Y-50800000D02*
X71200000Y-47100000D01*
%TO.N,SCL*%
X70334314Y-34000000D02*
X69100000Y-35234314D01*
X69100000Y-35234314D02*
X69100000Y-36490000D01*
X74750000Y-43750000D02*
X73749989Y-44750011D01*
X73750000Y-35084314D02*
X72665686Y-34000000D01*
X73750000Y-39098959D02*
X74750000Y-40098959D01*
X74750000Y-40098959D02*
X74750000Y-43750000D01*
X72665686Y-34000000D02*
X70334314Y-34000000D01*
X73749989Y-44750011D02*
X73749989Y-45600008D01*
X73750000Y-37762499D02*
X73750000Y-39098959D01*
X73750000Y-37800000D02*
X73750000Y-35084314D01*
%TO.N,SDA*%
X73249989Y-44684325D02*
X73249988Y-45600008D01*
X73250000Y-35150000D02*
X72500000Y-34400000D01*
X72500000Y-34400000D02*
X70500000Y-34400000D01*
X74350000Y-43584315D02*
X73249989Y-44684325D01*
X73250000Y-37762500D02*
X73250000Y-39164645D01*
X74350000Y-40264645D02*
X74350000Y-43584315D01*
X73250000Y-37800000D02*
X73250000Y-35150000D01*
X70100000Y-34800000D02*
X70100000Y-36490000D01*
X73250000Y-39164645D02*
X74350000Y-40264645D01*
X70500000Y-34400000D02*
X70100000Y-34800000D01*
%TO.N,Net-(U1-LED_P)*%
X69397058Y-50600000D02*
X68700000Y-51297058D01*
X68700000Y-56060000D02*
X69650000Y-57010000D01*
X68700000Y-51297058D02*
X68700000Y-56060000D01*
X80290000Y-50600000D02*
X69397058Y-50600000D01*
%TO.N,Net-(C13-Pad2)*%
X83799998Y-33620000D02*
X85769999Y-33620000D01*
X85800000Y-33590000D02*
X85800000Y-31978968D01*
%TO.N,Net-(C14-Pad2)*%
X82799998Y-33620000D02*
X80829998Y-33620000D01*
X80799998Y-33590000D02*
X80799998Y-30539024D01*
%TO.N,ROTB*%
X75750000Y-36600000D02*
X75250000Y-37100000D01*
X80799998Y-36000002D02*
X80200000Y-36600000D01*
X80200000Y-36600000D02*
X75750000Y-36600000D01*
X80799998Y-34610000D02*
X80799998Y-36000002D01*
X75250000Y-37100000D02*
X75250000Y-37800000D01*
%TO.N,ROTA*%
X76250000Y-37800000D02*
X76250000Y-37250000D01*
X84400000Y-37000000D02*
X85800000Y-35600000D01*
X76250000Y-37250000D02*
X76500000Y-37000000D01*
X76500000Y-37000000D02*
X84400000Y-37000000D01*
X85800000Y-35600000D02*
X85800000Y-34610000D01*
%TO.N,Net-(U1-NRESET)*%
X81880000Y-65020000D02*
X82200000Y-64700000D01*
X82200000Y-64700000D02*
X82200000Y-63710000D01*
X80350000Y-65020000D02*
X81880000Y-65020000D01*
%TD*%
%TA.AperFunction,Conductor*%
%TO.N,GND*%
G36*
X76098024Y-28719765D02*
G01*
X77194698Y-28777539D01*
X78288670Y-28873750D01*
X79378593Y-29008280D01*
X80395090Y-29170130D01*
X80449584Y-29197952D01*
X80477317Y-29252491D01*
X80467696Y-29312915D01*
X80424396Y-29356144D01*
X80415293Y-29360210D01*
X80328565Y-29393809D01*
X80236839Y-29450603D01*
X80139404Y-29510932D01*
X79974986Y-29660819D01*
X79840909Y-29838365D01*
X79840904Y-29838374D01*
X79760423Y-30000001D01*
X79741737Y-30037528D01*
X79680851Y-30251520D01*
X79660323Y-30473056D01*
X79680851Y-30694592D01*
X79741737Y-30908584D01*
X79840908Y-31107745D01*
X79974985Y-31285292D01*
X80139404Y-31435180D01*
X80328565Y-31552303D01*
X80436261Y-31594024D01*
X80483692Y-31632674D01*
X80499498Y-31686338D01*
X80499498Y-33075604D01*
X80480591Y-33133795D01*
X80442339Y-33165328D01*
X80419596Y-33175933D01*
X80335931Y-33259598D01*
X80285930Y-33366824D01*
X80285930Y-33366825D01*
X80279498Y-33415685D01*
X80279498Y-33764314D01*
X80279497Y-33764314D01*
X80285930Y-33813174D01*
X80285930Y-33813175D01*
X80335931Y-33920401D01*
X80335932Y-33920402D01*
X80335933Y-33920404D01*
X80419594Y-34004065D01*
X80419595Y-34004065D01*
X80419596Y-34004066D01*
X80432913Y-34010276D01*
X80477661Y-34052005D01*
X80489335Y-34112066D01*
X80463476Y-34167518D01*
X80432913Y-34189724D01*
X80419596Y-34195933D01*
X80335931Y-34279598D01*
X80285930Y-34386824D01*
X80285930Y-34386825D01*
X80281642Y-34419398D01*
X80279574Y-34435111D01*
X80279498Y-34435685D01*
X80279498Y-34784314D01*
X80279497Y-34784314D01*
X80285930Y-34833174D01*
X80285930Y-34833175D01*
X80335931Y-34940401D01*
X80335932Y-34940402D01*
X80335933Y-34940404D01*
X80419594Y-35024065D01*
X80442335Y-35034669D01*
X80487084Y-35076396D01*
X80499498Y-35124394D01*
X80499498Y-35834522D01*
X80480591Y-35892713D01*
X80470502Y-35904525D01*
X80104525Y-36270503D01*
X80050008Y-36298281D01*
X80034521Y-36299500D01*
X75815165Y-36299500D01*
X75801489Y-36297267D01*
X75801318Y-36298494D01*
X75792234Y-36297226D01*
X75751887Y-36299092D01*
X75744207Y-36299447D01*
X75741931Y-36299500D01*
X75722153Y-36299500D01*
X75718658Y-36300153D01*
X75711845Y-36300943D01*
X75680011Y-36302414D01*
X75680007Y-36302415D01*
X75671013Y-36306386D01*
X75649228Y-36313132D01*
X75639571Y-36314937D01*
X75639565Y-36314940D01*
X75612465Y-36331718D01*
X75606396Y-36334917D01*
X75577238Y-36347792D01*
X75577231Y-36347796D01*
X75570286Y-36354742D01*
X75552406Y-36368905D01*
X75544048Y-36374080D01*
X75524839Y-36399515D01*
X75520335Y-36404692D01*
X75083590Y-36841437D01*
X75072361Y-36849550D01*
X75073090Y-36850515D01*
X75065771Y-36856041D01*
X75033372Y-36891580D01*
X75031796Y-36893231D01*
X75017830Y-36907198D01*
X75017817Y-36907213D01*
X75015813Y-36910138D01*
X75011561Y-36915504D01*
X74990084Y-36939065D01*
X74990083Y-36939067D01*
X74986529Y-36948240D01*
X74975896Y-36968412D01*
X74970346Y-36976515D01*
X74970342Y-36976524D01*
X74963045Y-37007545D01*
X74961016Y-37014098D01*
X74949500Y-37043824D01*
X74949500Y-37053651D01*
X74946870Y-37076318D01*
X74944620Y-37085880D01*
X74944752Y-37086820D01*
X74944515Y-37088154D01*
X74944197Y-37095043D01*
X74943300Y-37095001D01*
X74934067Y-37147065D01*
X74890012Y-37189524D01*
X74846702Y-37199500D01*
X74580246Y-37199500D01*
X74519311Y-37211621D01*
X74480684Y-37211621D01*
X74419750Y-37199500D01*
X74419748Y-37199500D01*
X74149500Y-37199500D01*
X74091309Y-37180593D01*
X74055345Y-37131093D01*
X74050500Y-37100500D01*
X74050500Y-36466084D01*
X74069407Y-36407893D01*
X74118907Y-36371929D01*
X74177390Y-36371094D01*
X74277539Y-36400500D01*
X74277541Y-36400500D01*
X74421459Y-36400500D01*
X74421461Y-36400500D01*
X74559553Y-36359953D01*
X74680628Y-36282143D01*
X74774877Y-36173373D01*
X74834665Y-36042457D01*
X74844277Y-35975604D01*
X74855147Y-35900002D01*
X74855147Y-35899997D01*
X74834665Y-35757543D01*
X74803411Y-35689108D01*
X74774877Y-35626627D01*
X74680628Y-35517857D01*
X74680627Y-35517856D01*
X74680626Y-35517855D01*
X74559557Y-35440049D01*
X74559554Y-35440047D01*
X74559553Y-35440047D01*
X74559550Y-35440046D01*
X74421464Y-35399500D01*
X74421461Y-35399500D01*
X74277539Y-35399500D01*
X74277535Y-35399500D01*
X74177391Y-35428905D01*
X74116230Y-35427157D01*
X74067778Y-35389794D01*
X74050500Y-35333915D01*
X74050500Y-35149485D01*
X74052731Y-35135808D01*
X74051506Y-35135638D01*
X74052774Y-35126547D01*
X74050553Y-35078517D01*
X74050500Y-35076231D01*
X74050500Y-35056475D01*
X74050500Y-35056470D01*
X74049845Y-35052968D01*
X74049057Y-35046179D01*
X74047585Y-35014323D01*
X74043615Y-35005333D01*
X74036865Y-34983534D01*
X74035061Y-34973881D01*
X74018278Y-34946776D01*
X74015085Y-34940720D01*
X74006090Y-34920345D01*
X74002207Y-34911550D01*
X73995257Y-34904600D01*
X73981088Y-34886710D01*
X73975920Y-34878363D01*
X73975919Y-34878362D01*
X73950483Y-34859153D01*
X73945306Y-34854648D01*
X72924251Y-33833594D01*
X72916165Y-33822344D01*
X72915173Y-33823094D01*
X72909644Y-33815772D01*
X72874114Y-33783382D01*
X72872461Y-33781804D01*
X72858483Y-33767826D01*
X72855545Y-33765813D01*
X72850182Y-33761564D01*
X72826619Y-33740084D01*
X72817448Y-33736531D01*
X72797272Y-33725895D01*
X72789170Y-33720345D01*
X72789165Y-33720343D01*
X72758143Y-33713046D01*
X72751588Y-33711016D01*
X72721863Y-33699501D01*
X72721860Y-33699500D01*
X72721859Y-33699500D01*
X72721858Y-33699500D01*
X72712034Y-33699500D01*
X72689369Y-33696870D01*
X72679805Y-33694621D01*
X72679804Y-33694621D01*
X72648233Y-33699025D01*
X72641387Y-33699500D01*
X70399482Y-33699500D01*
X70385803Y-33697267D01*
X70385633Y-33698493D01*
X70376549Y-33697225D01*
X70335295Y-33699133D01*
X70328510Y-33699447D01*
X70326231Y-33699500D01*
X70306470Y-33699500D01*
X70306465Y-33699500D01*
X70306463Y-33699501D01*
X70302965Y-33700154D01*
X70296164Y-33700942D01*
X70264322Y-33702415D01*
X70255328Y-33706386D01*
X70233542Y-33713132D01*
X70223886Y-33714937D01*
X70223879Y-33714940D01*
X70196779Y-33731718D01*
X70190710Y-33734917D01*
X70161552Y-33747792D01*
X70161545Y-33747796D01*
X70154600Y-33754742D01*
X70136720Y-33768905D01*
X70128362Y-33774080D01*
X70109153Y-33799515D01*
X70104649Y-33804692D01*
X68933590Y-34975751D01*
X68922361Y-34983864D01*
X68923090Y-34984829D01*
X68915771Y-34990355D01*
X68883372Y-35025894D01*
X68881796Y-35027545D01*
X68867830Y-35041512D01*
X68867817Y-35041527D01*
X68865813Y-35044452D01*
X68861561Y-35049818D01*
X68840084Y-35073379D01*
X68840083Y-35073381D01*
X68836529Y-35082554D01*
X68825896Y-35102726D01*
X68820346Y-35110829D01*
X68820342Y-35110838D01*
X68813045Y-35141859D01*
X68811016Y-35148412D01*
X68799500Y-35178138D01*
X68799500Y-35187965D01*
X68796870Y-35210632D01*
X68794621Y-35220195D01*
X68797531Y-35241056D01*
X68799025Y-35251766D01*
X68799500Y-35258612D01*
X68799500Y-35975604D01*
X68780593Y-36033795D01*
X68742341Y-36065328D01*
X68719598Y-36075933D01*
X68635933Y-36159598D01*
X68585932Y-36266824D01*
X68585932Y-36266825D01*
X68581930Y-36297226D01*
X68581198Y-36302790D01*
X68579500Y-36315685D01*
X68579500Y-36664314D01*
X68579499Y-36664314D01*
X68585932Y-36713174D01*
X68585932Y-36713175D01*
X68635933Y-36820401D01*
X68635934Y-36820402D01*
X68635935Y-36820404D01*
X68719596Y-36904065D01*
X68719597Y-36904065D01*
X68719598Y-36904066D01*
X68732915Y-36910276D01*
X68777663Y-36952005D01*
X68789337Y-37012066D01*
X68763478Y-37067518D01*
X68732915Y-37089724D01*
X68719598Y-37095933D01*
X68635933Y-37179598D01*
X68585932Y-37286824D01*
X68585932Y-37286825D01*
X68579500Y-37335685D01*
X68579500Y-37684314D01*
X68579499Y-37684314D01*
X68585932Y-37733174D01*
X68585932Y-37733175D01*
X68635933Y-37840401D01*
X68635934Y-37840402D01*
X68635935Y-37840404D01*
X68719596Y-37924065D01*
X68719597Y-37924065D01*
X68719598Y-37924066D01*
X68826824Y-37974067D01*
X68826825Y-37974067D01*
X68826827Y-37974068D01*
X68875684Y-37980500D01*
X68875685Y-37980500D01*
X69324314Y-37980500D01*
X69324316Y-37980500D01*
X69373173Y-37974068D01*
X69480404Y-37924065D01*
X69497688Y-37906780D01*
X69514974Y-37889496D01*
X69569491Y-37861719D01*
X69584977Y-37860500D01*
X69615023Y-37860500D01*
X69673214Y-37879407D01*
X69685026Y-37889496D01*
X69719595Y-37924064D01*
X69719598Y-37924066D01*
X69826824Y-37974067D01*
X69826825Y-37974067D01*
X69826827Y-37974068D01*
X69875684Y-37980500D01*
X69875685Y-37980500D01*
X70324314Y-37980500D01*
X70324316Y-37980500D01*
X70373173Y-37974068D01*
X70480404Y-37924065D01*
X70497688Y-37906780D01*
X70514974Y-37889496D01*
X70569491Y-37861719D01*
X70584977Y-37860500D01*
X70713810Y-37860500D01*
X70772001Y-37879407D01*
X70783814Y-37889496D01*
X70909197Y-38014879D01*
X70922070Y-38030731D01*
X70928563Y-38040669D01*
X70955110Y-38061331D01*
X70959709Y-38065391D01*
X70962689Y-38068371D01*
X70962692Y-38068373D01*
X70962694Y-38068375D01*
X70980430Y-38081038D01*
X71020874Y-38112517D01*
X71020880Y-38112519D01*
X71027354Y-38116022D01*
X71033934Y-38119240D01*
X71083045Y-38133861D01*
X71131512Y-38150500D01*
X71131516Y-38150500D01*
X71138736Y-38151705D01*
X71146039Y-38152615D01*
X71146046Y-38152617D01*
X71197231Y-38150500D01*
X71800500Y-38150500D01*
X71858691Y-38169407D01*
X71894655Y-38218907D01*
X71899500Y-38249500D01*
X71899500Y-38754422D01*
X71897393Y-38774737D01*
X71894957Y-38786354D01*
X71899120Y-38819750D01*
X71899500Y-38825878D01*
X71899500Y-38830081D01*
X71901891Y-38844414D01*
X71903087Y-38851582D01*
X71909425Y-38902429D01*
X71911527Y-38909489D01*
X71913907Y-38916421D01*
X71938295Y-38961485D01*
X71960801Y-39007523D01*
X71965078Y-39013513D01*
X71969579Y-39019296D01*
X72007275Y-39053999D01*
X73520504Y-40567227D01*
X73548281Y-40621744D01*
X73549500Y-40637231D01*
X73549500Y-42719381D01*
X73530593Y-42777572D01*
X73481093Y-42813536D01*
X73422609Y-42814371D01*
X73371964Y-42799500D01*
X73371961Y-42799500D01*
X73228039Y-42799500D01*
X73228035Y-42799500D01*
X73089949Y-42840046D01*
X73089943Y-42840048D01*
X73028636Y-42879448D01*
X72969461Y-42895001D01*
X72912445Y-42872802D01*
X72879366Y-42821329D01*
X72882860Y-42760244D01*
X72883623Y-42758343D01*
X72952196Y-42592796D01*
X72994694Y-42490197D01*
X72996585Y-42466151D01*
X72999017Y-42450802D01*
X73004647Y-42427355D01*
X73004648Y-42427351D01*
X73002755Y-42403297D01*
X73002755Y-42387771D01*
X73004648Y-42363722D01*
X72999015Y-42340261D01*
X72996587Y-42324926D01*
X72994695Y-42300876D01*
X72957546Y-42211191D01*
X72825167Y-41891596D01*
X72746426Y-41701497D01*
X72741238Y-41642181D01*
X72743054Y-41633987D01*
X72743053Y-41633987D01*
X72743055Y-41633985D01*
X72748293Y-41514019D01*
X72735349Y-41465710D01*
X72613231Y-41170896D01*
X72608431Y-41109900D01*
X72623547Y-41080619D01*
X72621547Y-41079334D01*
X72625375Y-41073375D01*
X72625374Y-41073375D01*
X72625377Y-41073373D01*
X72685165Y-40942457D01*
X72701693Y-40827500D01*
X72705647Y-40800002D01*
X72705647Y-40799997D01*
X72685165Y-40657543D01*
X72679435Y-40644996D01*
X72625377Y-40526627D01*
X72531128Y-40417857D01*
X72531127Y-40417856D01*
X72531126Y-40417855D01*
X72410057Y-40340049D01*
X72410054Y-40340047D01*
X72410053Y-40340047D01*
X72388250Y-40333645D01*
X72271964Y-40299500D01*
X72271961Y-40299500D01*
X72128039Y-40299500D01*
X72128035Y-40299500D01*
X71989949Y-40340046D01*
X71989942Y-40340049D01*
X71868873Y-40417855D01*
X71774622Y-40526628D01*
X71714834Y-40657543D01*
X71694353Y-40799997D01*
X71694353Y-40800002D01*
X71714834Y-40942456D01*
X71759260Y-41039734D01*
X71766235Y-41100521D01*
X71742199Y-41147742D01*
X71737383Y-41152999D01*
X71725093Y-41166411D01*
X71712252Y-41197412D01*
X71672515Y-41243937D01*
X71658674Y-41250989D01*
X71484567Y-41323107D01*
X71423570Y-41327908D01*
X71371401Y-41295939D01*
X71355217Y-41269528D01*
X71347470Y-41250824D01*
X71330654Y-41225657D01*
X71314345Y-41201248D01*
X71314344Y-41201247D01*
X71314342Y-41201244D01*
X71248020Y-41156930D01*
X71248019Y-41156929D01*
X71247574Y-41156632D01*
X71209694Y-41108582D01*
X71205477Y-41055002D01*
X71208514Y-41039734D01*
X71221143Y-40976245D01*
X71209510Y-40917762D01*
X71167379Y-40816050D01*
X71162579Y-40755057D01*
X71194548Y-40702888D01*
X71230950Y-40683179D01*
X71310053Y-40659953D01*
X71431128Y-40582143D01*
X71525377Y-40473373D01*
X71585165Y-40342457D01*
X71600998Y-40232333D01*
X71605647Y-40200002D01*
X71605647Y-40199997D01*
X71585165Y-40057543D01*
X71566153Y-40015914D01*
X71525377Y-39926627D01*
X71431128Y-39817857D01*
X71431127Y-39817856D01*
X71431126Y-39817855D01*
X71310057Y-39740049D01*
X71310054Y-39740047D01*
X71310053Y-39740047D01*
X71310050Y-39740046D01*
X71171964Y-39699500D01*
X71171961Y-39699500D01*
X71028039Y-39699500D01*
X71028035Y-39699500D01*
X70889949Y-39740046D01*
X70889942Y-39740049D01*
X70768871Y-39817856D01*
X70768869Y-39817859D01*
X70764497Y-39822904D01*
X70712099Y-39854496D01*
X70670369Y-39855165D01*
X70634032Y-39847937D01*
X70575550Y-39859569D01*
X69032441Y-40498746D01*
X68971444Y-40503547D01*
X68919275Y-40471577D01*
X68903073Y-40445123D01*
X68902888Y-40444677D01*
X68899346Y-40436127D01*
X68894255Y-40423836D01*
X68894253Y-40423834D01*
X68893397Y-40421766D01*
X68892931Y-40420799D01*
X68888412Y-40409891D01*
X68872637Y-40371810D01*
X68821328Y-40299500D01*
X68781296Y-40243082D01*
X68769267Y-40232333D01*
X68674872Y-40147979D01*
X68663594Y-40137901D01*
X68663592Y-40137900D01*
X68525449Y-40061555D01*
X68525443Y-40061552D01*
X68373768Y-40017857D01*
X68373758Y-40017855D01*
X68216176Y-40009007D01*
X68216170Y-40009008D01*
X68060560Y-40035447D01*
X68060551Y-40035450D01*
X67914729Y-40095851D01*
X67914728Y-40095852D01*
X67901349Y-40105345D01*
X67785995Y-40187193D01*
X67785993Y-40187194D01*
X67785993Y-40187195D01*
X67680817Y-40304883D01*
X67680816Y-40304884D01*
X67604460Y-40443036D01*
X67604458Y-40443041D01*
X67560762Y-40594704D01*
X67560761Y-40594710D01*
X67551906Y-40752309D01*
X67552826Y-40757723D01*
X67543927Y-40818257D01*
X67501146Y-40862000D01*
X67493109Y-40865760D01*
X66778280Y-41161852D01*
X66717283Y-41166653D01*
X66665114Y-41134683D01*
X66659650Y-41127671D01*
X66656476Y-41123197D01*
X66635535Y-41104481D01*
X66617188Y-41088083D01*
X66538770Y-41017995D01*
X66538767Y-41017993D01*
X66530394Y-41013365D01*
X66400602Y-40941622D01*
X66317794Y-40917762D01*
X66248907Y-40897913D01*
X66248903Y-40897912D01*
X66091283Y-40889056D01*
X65935649Y-40915498D01*
X65935648Y-40915498D01*
X65789798Y-40975912D01*
X65789792Y-40975915D01*
X65661051Y-41067265D01*
X65555858Y-41184981D01*
X65555857Y-41184982D01*
X65479497Y-41323155D01*
X65435803Y-41474852D01*
X65433102Y-41523003D01*
X65426962Y-41632467D01*
X65426961Y-41632477D01*
X65453416Y-41788111D01*
X65453417Y-41788113D01*
X65479805Y-41851804D01*
X66019569Y-43154910D01*
X66024370Y-43215907D01*
X65992400Y-43268076D01*
X65965991Y-43284260D01*
X64422880Y-43923438D01*
X64373308Y-43956561D01*
X64373302Y-43956567D01*
X64328989Y-44022885D01*
X64328989Y-44022886D01*
X64313429Y-44101115D01*
X64313429Y-44101117D01*
X64323395Y-44151216D01*
X64325062Y-44159599D01*
X64325062Y-44159601D01*
X64380644Y-44293790D01*
X64385444Y-44354787D01*
X64353475Y-44406956D01*
X64327066Y-44423139D01*
X59169786Y-46559356D01*
X59151218Y-46564989D01*
X59133641Y-46568485D01*
X59133639Y-46568486D01*
X59042515Y-46629373D01*
X59042508Y-46629380D01*
X58981621Y-46720504D01*
X58981620Y-46720507D01*
X58978125Y-46738078D01*
X58972492Y-46756647D01*
X58129708Y-48791311D01*
X58089971Y-48837836D01*
X58030477Y-48852120D01*
X58000359Y-48844889D01*
X57866167Y-48789306D01*
X57866166Y-48789305D01*
X57807684Y-48777673D01*
X57807683Y-48777673D01*
X57729453Y-48793233D01*
X57729452Y-48793233D01*
X57663134Y-48837546D01*
X57663128Y-48837552D01*
X57630005Y-48887124D01*
X56990827Y-50430236D01*
X56951090Y-50476761D01*
X56891596Y-50491045D01*
X56861478Y-50483814D01*
X56837889Y-50474043D01*
X56837320Y-50473843D01*
X56809048Y-50462130D01*
X56788101Y-50453452D01*
X56788099Y-50453451D01*
X56788098Y-50453451D01*
X56749191Y-50446837D01*
X56632474Y-50426998D01*
X56632471Y-50426998D01*
X56553665Y-50431418D01*
X56474857Y-50435839D01*
X56323170Y-50479532D01*
X56323168Y-50479532D01*
X56323168Y-50479533D01*
X56185004Y-50555888D01*
X56185002Y-50555888D01*
X56185001Y-50555890D01*
X56067295Y-50661074D01*
X55975945Y-50789816D01*
X55915536Y-50935655D01*
X55915533Y-50935664D01*
X55889094Y-51091278D01*
X55889094Y-51091286D01*
X55897948Y-51248895D01*
X55897948Y-51248897D01*
X55897949Y-51248899D01*
X55941656Y-51400587D01*
X55982358Y-51474223D01*
X56018020Y-51538742D01*
X56018024Y-51538748D01*
X56086441Y-51615297D01*
X56122617Y-51655773D01*
X56123220Y-51656447D01*
X56127684Y-51659614D01*
X56164204Y-51708705D01*
X56164895Y-51769886D01*
X56161865Y-51778244D01*
X55865782Y-52493050D01*
X55826045Y-52539575D01*
X55766550Y-52553859D01*
X55757739Y-52552766D01*
X55752307Y-52551843D01*
X55594698Y-52560699D01*
X55594692Y-52560700D01*
X55443015Y-52604400D01*
X55443007Y-52604403D01*
X55304852Y-52680763D01*
X55304850Y-52680764D01*
X55187144Y-52785955D01*
X55095796Y-52914699D01*
X55095795Y-52914699D01*
X55035389Y-53060535D01*
X55035386Y-53060543D01*
X55008945Y-53216167D01*
X55017793Y-53373768D01*
X55017795Y-53373781D01*
X55061492Y-53525463D01*
X55061494Y-53525468D01*
X55137825Y-53663585D01*
X55137851Y-53663631D01*
X55237901Y-53775593D01*
X55243039Y-53781342D01*
X55371776Y-53872690D01*
X55371777Y-53872690D01*
X55371778Y-53872691D01*
X55414824Y-53890522D01*
X55414840Y-53890530D01*
X55423833Y-53894255D01*
X55423834Y-53894256D01*
X55433156Y-53898117D01*
X55447704Y-53904143D01*
X55490538Y-53921888D01*
X55490558Y-53921894D01*
X56738598Y-54438848D01*
X56785122Y-54478585D01*
X56799406Y-54538079D01*
X56792175Y-54568198D01*
X56152998Y-56111308D01*
X56141366Y-56169791D01*
X56141365Y-56169792D01*
X56156927Y-56248018D01*
X56156928Y-56248022D01*
X56166217Y-56261924D01*
X56201242Y-56314343D01*
X56201245Y-56314345D01*
X56201246Y-56314346D01*
X56250819Y-56347469D01*
X56250821Y-56347471D01*
X56385012Y-56403054D01*
X56431538Y-56442790D01*
X56445822Y-56502285D01*
X56438591Y-56532404D01*
X54302373Y-61689687D01*
X54293227Y-61706798D01*
X54283275Y-61721692D01*
X54283274Y-61721696D01*
X54283273Y-61721697D01*
X54283274Y-61721697D01*
X54277877Y-61748828D01*
X54277877Y-61748829D01*
X54265804Y-61809522D01*
X54261892Y-61829191D01*
X54283273Y-61936685D01*
X54293227Y-61951582D01*
X54302375Y-61968697D01*
X54740166Y-63025612D01*
X55116092Y-63933175D01*
X55145163Y-64003357D01*
X55149964Y-64064354D01*
X55117994Y-64116523D01*
X55091585Y-64132707D01*
X54957389Y-64188293D01*
X54907817Y-64221416D01*
X54907811Y-64221422D01*
X54863499Y-64287740D01*
X54863498Y-64287744D01*
X54847937Y-64365970D01*
X54847937Y-64365971D01*
X54859569Y-64424454D01*
X55498746Y-65967563D01*
X55503547Y-66028560D01*
X55471577Y-66080729D01*
X55445171Y-66096912D01*
X55421718Y-66106627D01*
X55420882Y-66107029D01*
X55390693Y-66119535D01*
X55371805Y-66127360D01*
X55371803Y-66127361D01*
X55243077Y-66218701D01*
X55137899Y-66336401D01*
X55137898Y-66336402D01*
X55061548Y-66474553D01*
X55061547Y-66474555D01*
X55017852Y-66626230D01*
X55017850Y-66626240D01*
X55009002Y-66783824D01*
X55009003Y-66783830D01*
X55035442Y-66939440D01*
X55035445Y-66939448D01*
X55095847Y-67085272D01*
X55095848Y-67085274D01*
X55095849Y-67085275D01*
X55123875Y-67124775D01*
X55187188Y-67214007D01*
X55187190Y-67214009D01*
X55304879Y-67319185D01*
X55304887Y-67319191D01*
X55443033Y-67395544D01*
X55562701Y-67430022D01*
X55594709Y-67439244D01*
X55752307Y-67448098D01*
X55752307Y-67448097D01*
X55752308Y-67448098D01*
X55757713Y-67447180D01*
X55818248Y-67456073D01*
X55861995Y-67498850D01*
X55865759Y-67506895D01*
X56074880Y-68011756D01*
X56149646Y-68192258D01*
X56161849Y-68221717D01*
X56166650Y-68282714D01*
X56134680Y-68334883D01*
X56127673Y-68340344D01*
X56123191Y-68343523D01*
X56017989Y-68461230D01*
X55941618Y-68599396D01*
X55897909Y-68751093D01*
X55897908Y-68751097D01*
X55889052Y-68908716D01*
X55915494Y-69064351D01*
X55915494Y-69064352D01*
X55955300Y-69160450D01*
X55975909Y-69210204D01*
X56067264Y-69338954D01*
X56184980Y-69444146D01*
X56323152Y-69520505D01*
X56474853Y-69564201D01*
X56632473Y-69573043D01*
X56788109Y-69546588D01*
X56851066Y-69520505D01*
X58154911Y-68980433D01*
X58215907Y-68975633D01*
X58268076Y-69007603D01*
X58284259Y-69034010D01*
X58568729Y-69720782D01*
X58923438Y-70577124D01*
X58956561Y-70626696D01*
X58956562Y-70626697D01*
X58956565Y-70626701D01*
X58960965Y-70629641D01*
X59022885Y-70671015D01*
X59038446Y-70674110D01*
X59101117Y-70686576D01*
X59159600Y-70674943D01*
X59293790Y-70619358D01*
X59354785Y-70614558D01*
X59406955Y-70646527D01*
X59423139Y-70672937D01*
X61211409Y-74990208D01*
X61542045Y-75788437D01*
X61559353Y-75830221D01*
X61564986Y-75848790D01*
X61568481Y-75866360D01*
X61568484Y-75866366D01*
X61629371Y-75957490D01*
X61629372Y-75957491D01*
X61697499Y-76003012D01*
X61708822Y-76010577D01*
X61720502Y-76018381D01*
X61738076Y-76021877D01*
X61756636Y-76027507D01*
X63791313Y-76870297D01*
X63837838Y-76910034D01*
X63852122Y-76969528D01*
X63844891Y-76999646D01*
X63789309Y-77133834D01*
X63789309Y-77133836D01*
X63777676Y-77192319D01*
X63793236Y-77270549D01*
X63793236Y-77270550D01*
X63837349Y-77336569D01*
X63837551Y-77336871D01*
X63837554Y-77336873D01*
X63837555Y-77336874D01*
X63887128Y-77369997D01*
X63887127Y-77369997D01*
X63887129Y-77369998D01*
X63887131Y-77369999D01*
X64408053Y-77585772D01*
X65430238Y-78009176D01*
X65476763Y-78048913D01*
X65491047Y-78108408D01*
X65483817Y-78138523D01*
X65474006Y-78162209D01*
X65473851Y-78162649D01*
X65453447Y-78211901D01*
X65426993Y-78367527D01*
X65426993Y-78367529D01*
X65426993Y-78367530D01*
X65427873Y-78383217D01*
X65435836Y-78525145D01*
X65475395Y-78662478D01*
X65479530Y-78676834D01*
X65555885Y-78814999D01*
X65661071Y-78932709D01*
X65789814Y-79024059D01*
X65935658Y-79084469D01*
X65935662Y-79084469D01*
X65935663Y-79084470D01*
X66091277Y-79110909D01*
X66091281Y-79110909D01*
X66091287Y-79110910D01*
X66248898Y-79102055D01*
X66400587Y-79058348D01*
X66538746Y-78981982D01*
X66637724Y-78893520D01*
X66656444Y-78876789D01*
X66656444Y-78876788D01*
X66656447Y-78876786D01*
X66659614Y-78872321D01*
X66708700Y-78835799D01*
X66769882Y-78835104D01*
X66778243Y-78838134D01*
X67436872Y-79110947D01*
X67493046Y-79134215D01*
X67539571Y-79173952D01*
X67553855Y-79233446D01*
X67552763Y-79242252D01*
X67551839Y-79247689D01*
X67560694Y-79405296D01*
X67560696Y-79405308D01*
X67604397Y-79556987D01*
X67604400Y-79556995D01*
X67680758Y-79695147D01*
X67680761Y-79695152D01*
X67680764Y-79695155D01*
X67785949Y-79812856D01*
X67785951Y-79812857D01*
X67914695Y-79904205D01*
X68060538Y-79964616D01*
X68060539Y-79964616D01*
X68060541Y-79964617D01*
X68111738Y-79973315D01*
X68216167Y-79991059D01*
X68216170Y-79991058D01*
X68216172Y-79991059D01*
X68373768Y-79982210D01*
X68373772Y-79982209D01*
X68373778Y-79982209D01*
X68525469Y-79938510D01*
X68663632Y-79862153D01*
X68781341Y-79756967D01*
X68872694Y-79628226D01*
X68890525Y-79585178D01*
X68890529Y-79585172D01*
X68894258Y-79576169D01*
X68894259Y-79576169D01*
X68901100Y-79559653D01*
X68903922Y-79552841D01*
X68908477Y-79541844D01*
X68918165Y-79518460D01*
X68918165Y-79518457D01*
X68921889Y-79509468D01*
X68921897Y-79509443D01*
X68925288Y-79501257D01*
X69438852Y-78261401D01*
X69478588Y-78214879D01*
X69538082Y-78200595D01*
X69568196Y-78207824D01*
X71111310Y-78847004D01*
X71169793Y-78858637D01*
X71169793Y-78858636D01*
X71169795Y-78858637D01*
X71201085Y-78852412D01*
X71248024Y-78843075D01*
X71314346Y-78798761D01*
X71347474Y-78749181D01*
X71403056Y-78614992D01*
X71442791Y-78568468D01*
X71502286Y-78554184D01*
X71532401Y-78561414D01*
X76689692Y-80697629D01*
X76706796Y-80706771D01*
X76721698Y-80716729D01*
X76826117Y-80737499D01*
X76826804Y-80737636D01*
X76831520Y-80738817D01*
X76837778Y-80740715D01*
X76853513Y-80733273D01*
X76936687Y-80716729D01*
X76951581Y-80706776D01*
X76968692Y-80697629D01*
X79003362Y-79854839D01*
X79064356Y-79850039D01*
X79116525Y-79882009D01*
X79132709Y-79908418D01*
X79188295Y-80042614D01*
X79221418Y-80092186D01*
X79221419Y-80092187D01*
X79221422Y-80092191D01*
X79254583Y-80114348D01*
X79287742Y-80136504D01*
X79287744Y-80136505D01*
X79319036Y-80142729D01*
X79365972Y-80152067D01*
X79365973Y-80152066D01*
X79365975Y-80152067D01*
X79424458Y-80140434D01*
X80967566Y-79501256D01*
X81028562Y-79496456D01*
X81080731Y-79528426D01*
X81096893Y-79554782D01*
X81097088Y-79555252D01*
X81097099Y-79555310D01*
X81097110Y-79555306D01*
X81105753Y-79576171D01*
X81127133Y-79627784D01*
X81127364Y-79628203D01*
X81218704Y-79756924D01*
X81218712Y-79756934D01*
X81322904Y-79850039D01*
X81336406Y-79862104D01*
X81474557Y-79938454D01*
X81626234Y-79982148D01*
X81626240Y-79982148D01*
X81626243Y-79982149D01*
X81783825Y-79990997D01*
X81783826Y-79990996D01*
X81783830Y-79990997D01*
X81896110Y-79971919D01*
X81939441Y-79964557D01*
X81939441Y-79964556D01*
X81939445Y-79964556D01*
X82085274Y-79904151D01*
X82214007Y-79812812D01*
X82319188Y-79695117D01*
X82383665Y-79578460D01*
X82395541Y-79556973D01*
X82395541Y-79556972D01*
X82395543Y-79556969D01*
X82439243Y-79405295D01*
X82448098Y-79247698D01*
X82448096Y-79247689D01*
X82447180Y-79242296D01*
X82456069Y-79181760D01*
X82498844Y-79138010D01*
X82506885Y-79134248D01*
X83221721Y-78838152D01*
X83282715Y-78833352D01*
X83334884Y-78865322D01*
X83340341Y-78872323D01*
X83343527Y-78876814D01*
X83343528Y-78876815D01*
X83343529Y-78876816D01*
X83461234Y-78982015D01*
X83461237Y-78982018D01*
X83599392Y-79058380D01*
X83599396Y-79058381D01*
X83599401Y-79058384D01*
X83751097Y-79102093D01*
X83908716Y-79110948D01*
X83908722Y-79110947D01*
X83908725Y-79110947D01*
X84064347Y-79084507D01*
X84064346Y-79084507D01*
X84064353Y-79084506D01*
X84210204Y-79024092D01*
X84338953Y-78932737D01*
X84444145Y-78815023D01*
X84520504Y-78676851D01*
X84564201Y-78525151D01*
X84573045Y-78367532D01*
X84546591Y-78211896D01*
X84517443Y-78141541D01*
X84497457Y-78093290D01*
X83980437Y-76845094D01*
X83975636Y-76784097D01*
X84007606Y-76731928D01*
X84034015Y-76715744D01*
X84419685Y-76555994D01*
X85577123Y-76076567D01*
X85626703Y-76043439D01*
X85671017Y-75977118D01*
X85686578Y-75898887D01*
X85674945Y-75840404D01*
X85619360Y-75706212D01*
X85614560Y-75645218D01*
X85646529Y-75593049D01*
X85672935Y-75576867D01*
X87065607Y-75000003D01*
X100199349Y-75000003D01*
X100218939Y-75173874D01*
X100218942Y-75173886D01*
X100276733Y-75339041D01*
X100276733Y-75339042D01*
X100364612Y-75478900D01*
X100369829Y-75487202D01*
X100493559Y-75610932D01*
X100493561Y-75610933D01*
X100493562Y-75610934D01*
X100623137Y-75692352D01*
X100641720Y-75704028D01*
X100697740Y-75723630D01*
X100806874Y-75761818D01*
X100806878Y-75761819D01*
X100806881Y-75761820D01*
X100806882Y-75761820D01*
X100806886Y-75761821D01*
X100937142Y-75776498D01*
X100937158Y-75776498D01*
X100937159Y-75776499D01*
X100937160Y-75776499D01*
X101024364Y-75776499D01*
X101024365Y-75776499D01*
X101024366Y-75776498D01*
X101024381Y-75776498D01*
X101154637Y-75761821D01*
X101154639Y-75761820D01*
X101154643Y-75761820D01*
X101165009Y-75758193D01*
X101188334Y-75750031D01*
X101319804Y-75704028D01*
X101467965Y-75610932D01*
X101591695Y-75487202D01*
X101684791Y-75339041D01*
X101742583Y-75173880D01*
X101742584Y-75173874D01*
X101762175Y-75000003D01*
X101762175Y-74999994D01*
X101742584Y-74826123D01*
X101742581Y-74826111D01*
X101700929Y-74707078D01*
X101684791Y-74660957D01*
X101604088Y-74532520D01*
X101591697Y-74512799D01*
X101591696Y-74512798D01*
X101591695Y-74512796D01*
X101467965Y-74389066D01*
X101467962Y-74389064D01*
X101467961Y-74389063D01*
X101319805Y-74295970D01*
X101154649Y-74238179D01*
X101154637Y-74238176D01*
X101024381Y-74223499D01*
X101024365Y-74223499D01*
X100937159Y-74223499D01*
X100937142Y-74223499D01*
X100806886Y-74238176D01*
X100806874Y-74238179D01*
X100641719Y-74295970D01*
X100641718Y-74295970D01*
X100493562Y-74389063D01*
X100369826Y-74512799D01*
X100276733Y-74660955D01*
X100276733Y-74660956D01*
X100218942Y-74826111D01*
X100218939Y-74826123D01*
X100199349Y-74999994D01*
X100199349Y-75000003D01*
X87065607Y-75000003D01*
X90830225Y-73440646D01*
X90848779Y-73435017D01*
X90866360Y-73431521D01*
X90957490Y-73370631D01*
X91003011Y-73302503D01*
X91003010Y-73302503D01*
X91018381Y-73279500D01*
X91021877Y-73261917D01*
X91027506Y-73243364D01*
X91542113Y-72000996D01*
X94481608Y-72000996D01*
X94501439Y-72227677D01*
X94560338Y-72447493D01*
X94656502Y-72653716D01*
X94656508Y-72653727D01*
X94787022Y-72840123D01*
X94787023Y-72840125D01*
X94787026Y-72840128D01*
X94787029Y-72840132D01*
X94947937Y-73001040D01*
X94947940Y-73001042D01*
X94947943Y-73001045D01*
X94947945Y-73001046D01*
X95072206Y-73088053D01*
X95134342Y-73131561D01*
X95134348Y-73131564D01*
X95134352Y-73131566D01*
X95340576Y-73227730D01*
X95340580Y-73227732D01*
X95560384Y-73286628D01*
X95560388Y-73286628D01*
X95560391Y-73286629D01*
X95730287Y-73301493D01*
X95730292Y-73301493D01*
X95843865Y-73301493D01*
X96013760Y-73286629D01*
X96013761Y-73286628D01*
X96013768Y-73286628D01*
X96233572Y-73227732D01*
X96439810Y-73131561D01*
X96626215Y-73001040D01*
X96787123Y-72840132D01*
X96917644Y-72653727D01*
X97013815Y-72447489D01*
X97072711Y-72227685D01*
X97074502Y-72207220D01*
X97092544Y-72000996D01*
X97092544Y-72000989D01*
X97072712Y-71774308D01*
X97072711Y-71774305D01*
X97072711Y-71774301D01*
X97013815Y-71554497D01*
X97013813Y-71554492D01*
X96917649Y-71348269D01*
X96917647Y-71348265D01*
X96917644Y-71348259D01*
X96829471Y-71222334D01*
X96787129Y-71161862D01*
X96787128Y-71161860D01*
X96787125Y-71161857D01*
X96787123Y-71161854D01*
X96626215Y-71000946D01*
X96626211Y-71000943D01*
X96626208Y-71000940D01*
X96626206Y-71000939D01*
X96439813Y-70870427D01*
X96439812Y-70870426D01*
X96439810Y-70870425D01*
X96439807Y-70870423D01*
X96439799Y-70870419D01*
X96233575Y-70774255D01*
X96233576Y-70774255D01*
X96160304Y-70754621D01*
X96013768Y-70715358D01*
X96013767Y-70715357D01*
X96013760Y-70715356D01*
X95843865Y-70700493D01*
X95843860Y-70700493D01*
X95730292Y-70700493D01*
X95730287Y-70700493D01*
X95560391Y-70715356D01*
X95340575Y-70774255D01*
X95134352Y-70870419D01*
X95134338Y-70870427D01*
X94947945Y-71000939D01*
X94947943Y-71000940D01*
X94787023Y-71161860D01*
X94787022Y-71161862D01*
X94656510Y-71348255D01*
X94656502Y-71348269D01*
X94560338Y-71554492D01*
X94501439Y-71774308D01*
X94481608Y-72000989D01*
X94481608Y-72000996D01*
X91542113Y-72000996D01*
X91870296Y-71208693D01*
X91910032Y-71162170D01*
X91969527Y-71147886D01*
X91999641Y-71155116D01*
X92133838Y-71210702D01*
X92192321Y-71222335D01*
X92270552Y-71206774D01*
X92336873Y-71162460D01*
X92370001Y-71112880D01*
X92946627Y-69720782D01*
X93009178Y-69569772D01*
X93048915Y-69523247D01*
X93108409Y-69508963D01*
X93138528Y-69516194D01*
X93162081Y-69525950D01*
X93162817Y-69526208D01*
X93185376Y-69535553D01*
X93211913Y-69546547D01*
X93367537Y-69572998D01*
X93525146Y-69564155D01*
X93676835Y-69520460D01*
X93814997Y-69444106D01*
X93932703Y-69338921D01*
X94024051Y-69210181D01*
X94084460Y-69064340D01*
X94110901Y-68908714D01*
X94102046Y-68751106D01*
X94058342Y-68599420D01*
X93981978Y-68461264D01*
X93981949Y-68461232D01*
X93941334Y-68415788D01*
X93876785Y-68343565D01*
X93872316Y-68340394D01*
X93835798Y-68291306D01*
X93835107Y-68230124D01*
X93838137Y-68221766D01*
X94134226Y-67506941D01*
X94173962Y-67460419D01*
X94233456Y-67446135D01*
X94242262Y-67447227D01*
X94247698Y-67448151D01*
X94405306Y-67439295D01*
X94556991Y-67395591D01*
X94695149Y-67319230D01*
X94812852Y-67214042D01*
X94904198Y-67085300D01*
X94964607Y-66939460D01*
X94964611Y-66939440D01*
X94973673Y-66886104D01*
X94991050Y-66783834D01*
X94991050Y-66783828D01*
X94982202Y-66626235D01*
X94982200Y-66626222D01*
X94957629Y-66540931D01*
X94938503Y-66474539D01*
X94929490Y-66458230D01*
X94862151Y-66336380D01*
X94862150Y-66336379D01*
X94862149Y-66336377D01*
X94793471Y-66259522D01*
X94756963Y-66218666D01*
X94628232Y-66127320D01*
X94628223Y-66127315D01*
X94585182Y-66109485D01*
X94585172Y-66109479D01*
X94552834Y-66096085D01*
X94538975Y-66090344D01*
X94518464Y-66081847D01*
X94518461Y-66081846D01*
X94516005Y-66080829D01*
X94515997Y-66080825D01*
X93261407Y-65561158D01*
X93214882Y-65521421D01*
X93200598Y-65461927D01*
X93207828Y-65431811D01*
X93407827Y-64948972D01*
X100661775Y-64948972D01*
X100680741Y-65250435D01*
X100733147Y-65525153D01*
X100737340Y-65547133D01*
X100830680Y-65834403D01*
X100830682Y-65834409D01*
X100959288Y-66107709D01*
X100959295Y-66107722D01*
X101121135Y-66362740D01*
X101313666Y-66595470D01*
X101313676Y-66595481D01*
X101533858Y-66802247D01*
X101533861Y-66802249D01*
X101778213Y-66979780D01*
X101778217Y-66979782D01*
X101778226Y-66979789D01*
X102042917Y-67125305D01*
X102323759Y-67236498D01*
X102616323Y-67311615D01*
X102773639Y-67331489D01*
X102915993Y-67349473D01*
X102915994Y-67349473D01*
X103218049Y-67349473D01*
X103289265Y-67340476D01*
X103517719Y-67311615D01*
X103810283Y-67236498D01*
X104091125Y-67125305D01*
X104355816Y-66979789D01*
X104600183Y-66802247D01*
X104820370Y-66595477D01*
X105012906Y-66362741D01*
X105160334Y-66130431D01*
X105174746Y-66107722D01*
X105174747Y-66107719D01*
X105174754Y-66107709D01*
X105303362Y-65834403D01*
X105396702Y-65547133D01*
X105453301Y-65250430D01*
X105472267Y-64948973D01*
X105453301Y-64647516D01*
X105396702Y-64350813D01*
X105303362Y-64063543D01*
X105300248Y-64056926D01*
X105242015Y-63933174D01*
X105174754Y-63790237D01*
X105174750Y-63790232D01*
X105174746Y-63790223D01*
X105012906Y-63535205D01*
X104820375Y-63302475D01*
X104820365Y-63302464D01*
X104600183Y-63095698D01*
X104600180Y-63095696D01*
X104355828Y-62918165D01*
X104355821Y-62918160D01*
X104355816Y-62918157D01*
X104091125Y-62772641D01*
X104091123Y-62772640D01*
X104091121Y-62772639D01*
X103810283Y-62661448D01*
X103764850Y-62649783D01*
X103517719Y-62586331D01*
X103517712Y-62586330D01*
X103517716Y-62586330D01*
X103218049Y-62548473D01*
X103218048Y-62548473D01*
X102915994Y-62548473D01*
X102915993Y-62548473D01*
X102616327Y-62586330D01*
X102323758Y-62661448D01*
X102042920Y-62772639D01*
X101778234Y-62918152D01*
X101778213Y-62918165D01*
X101533861Y-63095696D01*
X101533858Y-63095698D01*
X101313676Y-63302464D01*
X101313666Y-63302475D01*
X101121135Y-63535205D01*
X100959295Y-63790223D01*
X100959288Y-63790236D01*
X100830682Y-64063536D01*
X100820517Y-64094822D01*
X100750843Y-64309257D01*
X100737341Y-64350811D01*
X100737338Y-64350821D01*
X100680741Y-64647510D01*
X100661775Y-64948972D01*
X93407827Y-64948972D01*
X93847006Y-63888701D01*
X93858639Y-63830218D01*
X93858639Y-63830216D01*
X93858639Y-63830215D01*
X93849301Y-63783279D01*
X93843077Y-63751987D01*
X93836576Y-63742258D01*
X93798764Y-63685667D01*
X93798763Y-63685665D01*
X93798759Y-63685662D01*
X93798758Y-63685661D01*
X93749185Y-63652538D01*
X93749186Y-63652538D01*
X93614988Y-63596951D01*
X93568462Y-63557214D01*
X93554179Y-63497719D01*
X93561408Y-63467607D01*
X95697635Y-58310305D01*
X95706775Y-58293206D01*
X95716731Y-58278307D01*
X95738113Y-58170813D01*
X95722128Y-58090451D01*
X95722127Y-58090450D01*
X95719263Y-58076048D01*
X95719263Y-58076047D01*
X95719261Y-58076044D01*
X95716731Y-58063319D01*
X95706775Y-58048419D01*
X95697632Y-58031314D01*
X94854844Y-55996645D01*
X94850044Y-55935650D01*
X94882014Y-55883481D01*
X94908420Y-55867299D01*
X95042616Y-55811714D01*
X95092196Y-55778586D01*
X95136510Y-55712264D01*
X95148670Y-55651134D01*
X95152072Y-55634035D01*
X95152072Y-55634034D01*
X95140439Y-55575551D01*
X95132327Y-55555968D01*
X94696680Y-54504222D01*
X94501262Y-54032441D01*
X94498237Y-53994014D01*
X95485487Y-53994014D01*
X95514832Y-54285721D01*
X95514976Y-54287145D01*
X95543021Y-54404829D01*
X95583270Y-54573722D01*
X95583273Y-54573732D01*
X95679158Y-54822692D01*
X95689158Y-54848655D01*
X95689162Y-54848665D01*
X95788468Y-55029874D01*
X95829304Y-55104391D01*
X95830746Y-55107021D01*
X95830747Y-55107023D01*
X96005496Y-55344195D01*
X96005498Y-55344198D01*
X96005502Y-55344202D01*
X96210315Y-55555976D01*
X96210323Y-55555982D01*
X96210329Y-55555988D01*
X96433543Y-55732258D01*
X96441526Y-55738562D01*
X96695011Y-55888701D01*
X96966246Y-56003715D01*
X96966252Y-56003716D01*
X96966258Y-56003719D01*
X97220910Y-56073474D01*
X97250390Y-56081550D01*
X97542374Y-56120818D01*
X97542375Y-56120818D01*
X97763245Y-56120818D01*
X97763251Y-56120818D01*
X97983634Y-56106065D01*
X98272343Y-56047382D01*
X98273657Y-56046926D01*
X98550640Y-55950747D01*
X98550641Y-55950746D01*
X98550654Y-55950742D01*
X98813601Y-55817869D01*
X99056492Y-55651134D01*
X99274992Y-55453513D01*
X99465202Y-55228531D01*
X99623727Y-54980205D01*
X99747740Y-54712965D01*
X99835026Y-54431580D01*
X99884029Y-54141072D01*
X99893873Y-53846624D01*
X99864384Y-53553491D01*
X99796087Y-53266904D01*
X99690201Y-52991978D01*
X99687613Y-52987256D01*
X99626937Y-52876536D01*
X99548616Y-52733618D01*
X99544453Y-52727968D01*
X99373863Y-52496440D01*
X99373861Y-52496437D01*
X99268140Y-52387123D01*
X99169045Y-52284660D01*
X99169037Y-52284653D01*
X99169030Y-52284647D01*
X98937841Y-52102079D01*
X98937836Y-52102076D01*
X98937834Y-52102074D01*
X98937829Y-52102071D01*
X98684350Y-51951935D01*
X98684348Y-51951934D01*
X98493312Y-51870928D01*
X98413114Y-51836921D01*
X98413112Y-51836920D01*
X98413111Y-51836920D01*
X98413101Y-51836916D01*
X98128976Y-51759087D01*
X98128968Y-51759085D01*
X97869658Y-51724212D01*
X97836986Y-51719818D01*
X97616109Y-51719818D01*
X97550471Y-51724212D01*
X97395727Y-51734570D01*
X97107027Y-51793251D01*
X97107004Y-51793257D01*
X96828719Y-51889888D01*
X96828699Y-51889897D01*
X96565764Y-52022763D01*
X96322866Y-52189502D01*
X96104365Y-52387125D01*
X96104364Y-52387126D01*
X95914159Y-52612103D01*
X95914154Y-52612109D01*
X95755632Y-52860431D01*
X95631616Y-53127680D01*
X95544338Y-53409041D01*
X95544334Y-53409056D01*
X95495331Y-53699564D01*
X95486242Y-53971444D01*
X95485487Y-53994014D01*
X94498237Y-53994014D01*
X94496461Y-53971444D01*
X94528431Y-53919275D01*
X94554841Y-53903090D01*
X94576173Y-53894256D01*
X94576174Y-53894254D01*
X94578166Y-53893430D01*
X94579270Y-53892897D01*
X94628197Y-53872629D01*
X94664849Y-53846621D01*
X94756921Y-53781288D01*
X94773248Y-53763017D01*
X94862098Y-53663588D01*
X94899754Y-53595451D01*
X94938444Y-53525443D01*
X94938445Y-53525439D01*
X94938446Y-53525438D01*
X94982139Y-53373764D01*
X94984843Y-53325621D01*
X94990988Y-53216169D01*
X94975951Y-53127671D01*
X94964547Y-53060557D01*
X94956645Y-53041480D01*
X94904145Y-52914732D01*
X94904120Y-52914697D01*
X94812805Y-52785999D01*
X94741966Y-52722692D01*
X94695113Y-52680820D01*
X94695107Y-52680816D01*
X94556971Y-52604467D01*
X94556965Y-52604465D01*
X94405298Y-52560767D01*
X94405296Y-52560766D01*
X94405294Y-52560766D01*
X94405292Y-52560765D01*
X94405288Y-52560765D01*
X94247697Y-52551910D01*
X94247696Y-52551910D01*
X94242282Y-52552830D01*
X94181748Y-52543930D01*
X94138006Y-52501148D01*
X94134252Y-52493122D01*
X93838149Y-51778267D01*
X93833349Y-51717273D01*
X93865319Y-51665104D01*
X93872325Y-51659644D01*
X93876809Y-51656464D01*
X93887783Y-51644186D01*
X93899138Y-51631480D01*
X93982008Y-51538759D01*
X94058375Y-51400595D01*
X94102083Y-51248901D01*
X94110938Y-51091284D01*
X94110230Y-51087118D01*
X94100521Y-51029970D01*
X94084496Y-50935650D01*
X94024084Y-50789801D01*
X93932730Y-50661054D01*
X93815017Y-50555863D01*
X93815015Y-50555862D01*
X93815014Y-50555861D01*
X93676850Y-50479506D01*
X93676849Y-50479505D01*
X93525153Y-50435809D01*
X93472612Y-50432860D01*
X93367534Y-50426965D01*
X93367533Y-50426965D01*
X93367530Y-50426965D01*
X93211903Y-50453417D01*
X93211902Y-50453417D01*
X93185880Y-50464198D01*
X93151442Y-50478465D01*
X92537276Y-50732861D01*
X91845098Y-51019570D01*
X91784101Y-51024371D01*
X91731932Y-50992401D01*
X91715748Y-50965992D01*
X91703448Y-50936298D01*
X91076572Y-49422885D01*
X91076571Y-49422883D01*
X91076570Y-49422881D01*
X91043447Y-49373309D01*
X91043446Y-49373308D01*
X91043444Y-49373305D01*
X91032154Y-49365761D01*
X90977123Y-49328990D01*
X90898892Y-49313430D01*
X90840409Y-49325063D01*
X90840407Y-49325063D01*
X90706214Y-49380647D01*
X90645217Y-49385447D01*
X90593048Y-49353478D01*
X90576867Y-49327072D01*
X88440647Y-44169788D01*
X88435014Y-44151216D01*
X88431519Y-44133646D01*
X88370630Y-44042516D01*
X88367315Y-44040302D01*
X88367300Y-44040292D01*
X88279498Y-43981625D01*
X88279495Y-43981624D01*
X88261927Y-43978129D01*
X88243357Y-43972496D01*
X86208695Y-43129710D01*
X86162170Y-43089973D01*
X86147886Y-43030478D01*
X86155115Y-43000366D01*
X86210703Y-42866167D01*
X86222336Y-42807684D01*
X86216346Y-42777572D01*
X86206775Y-42729453D01*
X86206775Y-42729452D01*
X86162462Y-42663134D01*
X86162461Y-42663132D01*
X86162457Y-42663129D01*
X86162456Y-42663128D01*
X86112883Y-42630005D01*
X86112884Y-42630005D01*
X85075214Y-42200188D01*
X84569771Y-41990826D01*
X84523247Y-41951090D01*
X84508963Y-41891596D01*
X84516195Y-41861476D01*
X84525031Y-41840145D01*
X84525030Y-41840145D01*
X84525918Y-41838004D01*
X84526207Y-41837173D01*
X84546542Y-41788092D01*
X84572995Y-41632467D01*
X84564152Y-41474858D01*
X84561518Y-41465715D01*
X84553078Y-41436411D01*
X84520459Y-41323169D01*
X84444105Y-41185007D01*
X84338920Y-41067300D01*
X84328382Y-41059823D01*
X84210180Y-40975952D01*
X84064342Y-40915543D01*
X84064333Y-40915540D01*
X83908713Y-40889101D01*
X83751108Y-40897956D01*
X83751099Y-40897958D01*
X83599425Y-40941659D01*
X83599416Y-40941663D01*
X83461264Y-41018025D01*
X83461255Y-41018032D01*
X83343564Y-41123218D01*
X83343562Y-41123221D01*
X83340391Y-41127691D01*
X83291297Y-41164208D01*
X83230116Y-41164894D01*
X83221770Y-41161867D01*
X82506941Y-40865775D01*
X82460417Y-40826039D01*
X82446133Y-40766544D01*
X82447227Y-40757729D01*
X82448148Y-40752307D01*
X82447248Y-40736289D01*
X82439293Y-40594698D01*
X82395589Y-40443013D01*
X82395588Y-40443011D01*
X82395587Y-40443008D01*
X82338679Y-40340046D01*
X82319229Y-40304854D01*
X82314444Y-40299500D01*
X82214042Y-40187152D01*
X82214040Y-40187150D01*
X82144631Y-40137903D01*
X82085299Y-40095805D01*
X82059308Y-40085039D01*
X81939460Y-40035396D01*
X81939455Y-40035394D01*
X81783834Y-40008953D01*
X81783828Y-40008952D01*
X81626234Y-40017801D01*
X81626221Y-40017803D01*
X81474538Y-40061500D01*
X81336378Y-40137854D01*
X81336374Y-40137857D01*
X81218670Y-40243037D01*
X81127317Y-40371779D01*
X81106422Y-40422218D01*
X81103888Y-40428337D01*
X81097111Y-40444697D01*
X81082520Y-40479920D01*
X80561159Y-41738597D01*
X80521422Y-41785122D01*
X80461928Y-41799406D01*
X80431809Y-41792175D01*
X78888695Y-41152996D01*
X78884324Y-41151670D01*
X78843072Y-41126941D01*
X78729496Y-41013365D01*
X78701719Y-40958848D01*
X78700500Y-40943361D01*
X78700500Y-40053893D01*
X78719407Y-39995702D01*
X78726741Y-39987711D01*
X78726491Y-39987494D01*
X78749500Y-39960940D01*
X78825377Y-39873373D01*
X78885165Y-39742457D01*
X78905647Y-39600000D01*
X78903079Y-39582140D01*
X78885165Y-39457543D01*
X78825377Y-39326628D01*
X78825377Y-39326627D01*
X78731128Y-39217857D01*
X78731127Y-39217856D01*
X78731126Y-39217855D01*
X78610057Y-39140049D01*
X78610054Y-39140047D01*
X78610053Y-39140047D01*
X78610050Y-39140046D01*
X78471964Y-39099500D01*
X78471961Y-39099500D01*
X78328039Y-39099500D01*
X78328035Y-39099500D01*
X78197060Y-39137958D01*
X78189951Y-39140046D01*
X78183153Y-39142042D01*
X78182742Y-39140642D01*
X78129834Y-39146710D01*
X78076559Y-39116620D01*
X78051145Y-39060962D01*
X78050500Y-39049683D01*
X78050500Y-38365681D01*
X78067184Y-38310681D01*
X78088867Y-38278231D01*
X78100500Y-38219748D01*
X78100500Y-37399500D01*
X78119407Y-37341309D01*
X78168907Y-37305345D01*
X78199500Y-37300500D01*
X84334836Y-37300500D01*
X84348511Y-37302732D01*
X84348683Y-37301506D01*
X84357764Y-37302772D01*
X84357765Y-37302773D01*
X84357765Y-37302772D01*
X84357766Y-37302773D01*
X84366507Y-37302368D01*
X84405793Y-37300552D01*
X84408070Y-37300500D01*
X84427841Y-37300500D01*
X84427844Y-37300500D01*
X84431337Y-37299846D01*
X84438141Y-37299056D01*
X84469992Y-37297585D01*
X84478976Y-37293617D01*
X84500777Y-37286865D01*
X84510433Y-37285061D01*
X84537543Y-37268274D01*
X84543589Y-37265088D01*
X84572765Y-37252206D01*
X84579709Y-37245260D01*
X84597601Y-37231089D01*
X84605952Y-37225919D01*
X84625165Y-37200474D01*
X84629662Y-37195308D01*
X85294473Y-36530497D01*
X85966405Y-35858564D01*
X85977664Y-35850493D01*
X85976905Y-35849487D01*
X85984221Y-35843961D01*
X85984228Y-35843958D01*
X86016632Y-35808411D01*
X86018186Y-35806783D01*
X86032174Y-35792797D01*
X86034181Y-35789865D01*
X86038440Y-35784490D01*
X86059916Y-35760933D01*
X86063465Y-35751770D01*
X86074106Y-35731582D01*
X86079656Y-35723481D01*
X86086955Y-35692443D01*
X86088977Y-35685914D01*
X86100500Y-35656173D01*
X86100500Y-35646348D01*
X86103129Y-35623683D01*
X86105379Y-35614119D01*
X86100973Y-35582533D01*
X86100499Y-35575714D01*
X86100499Y-35124394D01*
X86119406Y-35066204D01*
X86157658Y-35034671D01*
X86180404Y-35024065D01*
X86264065Y-34940404D01*
X86314068Y-34833173D01*
X86320500Y-34784316D01*
X86320500Y-34435684D01*
X86314068Y-34386827D01*
X86299999Y-34356657D01*
X86264066Y-34279598D01*
X86264065Y-34279597D01*
X86264065Y-34279596D01*
X86180404Y-34195935D01*
X86167085Y-34189724D01*
X86122337Y-34147997D01*
X86110662Y-34087936D01*
X86136519Y-34032483D01*
X86167084Y-34010275D01*
X86180404Y-34004065D01*
X86264065Y-33920404D01*
X86314068Y-33813173D01*
X86320500Y-33764316D01*
X86320500Y-33415684D01*
X86314068Y-33366827D01*
X86264065Y-33259596D01*
X86180404Y-33175935D01*
X86180402Y-33175934D01*
X86180401Y-33175933D01*
X86157659Y-33165328D01*
X86112912Y-33123598D01*
X86100500Y-33075604D01*
X86100500Y-33040601D01*
X86119407Y-32982410D01*
X86163736Y-32948286D01*
X86209676Y-32930490D01*
X86398837Y-32813367D01*
X86563256Y-32663479D01*
X86697333Y-32485932D01*
X86796504Y-32286771D01*
X86857390Y-32072779D01*
X86877918Y-31851243D01*
X86857390Y-31629707D01*
X86796504Y-31415715D01*
X86697333Y-31216554D01*
X86643785Y-31145645D01*
X86623807Y-31087815D01*
X86641636Y-31029285D01*
X86690463Y-30992413D01*
X86751638Y-30991282D01*
X86758421Y-30993621D01*
X86778710Y-31001454D01*
X86783028Y-31003121D01*
X87793020Y-31434332D01*
X88787264Y-31900710D01*
X89764536Y-32401680D01*
X90723631Y-32936626D01*
X91663369Y-33504889D01*
X92582593Y-34105769D01*
X93480172Y-34738527D01*
X94355001Y-35402384D01*
X94386343Y-35427046D01*
X94386344Y-35427046D01*
X94393739Y-35432865D01*
X94394194Y-35433155D01*
X94394558Y-35433442D01*
X94407781Y-35443838D01*
X94409471Y-35445166D01*
X94532983Y-35507836D01*
X94666376Y-35545109D01*
X94713930Y-35548701D01*
X94770530Y-35571938D01*
X94802664Y-35624007D01*
X94798055Y-35685018D01*
X94780292Y-35713387D01*
X94767669Y-35727511D01*
X94767668Y-35727513D01*
X94559650Y-36020686D01*
X94385770Y-36335298D01*
X94248203Y-36667412D01*
X94148691Y-37012828D01*
X94148687Y-37012848D01*
X94088477Y-37367218D01*
X94088474Y-37367238D01*
X94068320Y-37726131D01*
X94068320Y-37726140D01*
X94088474Y-38085033D01*
X94088477Y-38085053D01*
X94148687Y-38439423D01*
X94148691Y-38439443D01*
X94248203Y-38784859D01*
X94385770Y-39116973D01*
X94559650Y-39431585D01*
X94749746Y-39699500D01*
X94767669Y-39724759D01*
X95007202Y-39992797D01*
X95275240Y-40232330D01*
X95275243Y-40232332D01*
X95275244Y-40232333D01*
X95305292Y-40253653D01*
X95568411Y-40440347D01*
X95616696Y-40467033D01*
X95883026Y-40614228D01*
X95883025Y-40614228D01*
X96215139Y-40751795D01*
X96560555Y-40851307D01*
X96560558Y-40851307D01*
X96560563Y-40851309D01*
X96914956Y-40911523D01*
X96914959Y-40911523D01*
X96914965Y-40911524D01*
X97273858Y-40931679D01*
X97273863Y-40931679D01*
X97273868Y-40931679D01*
X97632760Y-40911524D01*
X97632764Y-40911523D01*
X97632770Y-40911523D01*
X97987163Y-40851309D01*
X98332587Y-40751795D01*
X98664696Y-40614230D01*
X98665737Y-40613655D01*
X98795208Y-40542099D01*
X98979315Y-40440347D01*
X99272486Y-40232330D01*
X99286543Y-40219767D01*
X99342527Y-40195090D01*
X99402328Y-40208032D01*
X99443100Y-40253653D01*
X99451230Y-40286125D01*
X99454821Y-40333645D01*
X99492114Y-40467058D01*
X99554817Y-40590584D01*
X99560779Y-40598164D01*
X99566625Y-40605597D01*
X99567240Y-40606378D01*
X99567301Y-40606473D01*
X99572950Y-40613653D01*
X99572951Y-40613654D01*
X99573405Y-40614231D01*
X99597610Y-40644993D01*
X99597613Y-40644996D01*
X99597613Y-40644997D01*
X99764789Y-40865301D01*
X100261469Y-41519825D01*
X100894228Y-42417404D01*
X101495108Y-43336628D01*
X102063371Y-44276366D01*
X102598317Y-45235461D01*
X103099288Y-46212733D01*
X103565666Y-47206977D01*
X103996878Y-48216971D01*
X104392392Y-49241470D01*
X104751723Y-50279215D01*
X105045706Y-51235498D01*
X105074427Y-51328924D01*
X105360107Y-52389310D01*
X105608412Y-53459065D01*
X105819035Y-54536872D01*
X105991718Y-55621404D01*
X106126248Y-56711327D01*
X106222460Y-57805299D01*
X106280234Y-58901973D01*
X106299500Y-59999998D01*
X106280234Y-61098023D01*
X106222460Y-62194696D01*
X106126249Y-63288668D01*
X105991719Y-64378591D01*
X105819036Y-65463124D01*
X105608413Y-66540931D01*
X105360108Y-67610686D01*
X105074428Y-68671071D01*
X104751724Y-69720782D01*
X104392394Y-70758526D01*
X103996879Y-71783025D01*
X103565668Y-72793019D01*
X103099290Y-73787263D01*
X102598319Y-74764535D01*
X102063373Y-75723630D01*
X101495110Y-76663368D01*
X100894230Y-77582592D01*
X100261472Y-78480171D01*
X99831659Y-79046577D01*
X99597679Y-79354914D01*
X99567227Y-79393616D01*
X99566916Y-79394102D01*
X99554832Y-79409473D01*
X99492164Y-79532980D01*
X99472604Y-79602983D01*
X99465551Y-79628226D01*
X99454891Y-79666375D01*
X99451298Y-79713931D01*
X99428060Y-79770532D01*
X99375991Y-79802664D01*
X99314979Y-79798054D01*
X99286610Y-79780290D01*
X99272489Y-79767670D01*
X99272486Y-79767668D01*
X98979313Y-79559650D01*
X98664700Y-79385770D01*
X98664701Y-79385770D01*
X98332587Y-79248203D01*
X97987171Y-79148691D01*
X97987151Y-79148687D01*
X97632781Y-79088477D01*
X97632761Y-79088474D01*
X97273869Y-79068320D01*
X97273859Y-79068320D01*
X96914966Y-79088474D01*
X96914946Y-79088477D01*
X96560576Y-79148687D01*
X96560556Y-79148691D01*
X96215140Y-79248203D01*
X95883026Y-79385770D01*
X95568414Y-79559650D01*
X95275245Y-79767665D01*
X95007210Y-80007195D01*
X95007196Y-80007209D01*
X94767666Y-80275244D01*
X94559651Y-80568413D01*
X94385771Y-80883025D01*
X94248204Y-81215139D01*
X94148692Y-81560555D01*
X94148688Y-81560575D01*
X94088478Y-81914945D01*
X94088475Y-81914965D01*
X94068321Y-82273858D01*
X94068321Y-82273867D01*
X94088475Y-82632760D01*
X94088478Y-82632780D01*
X94148688Y-82987150D01*
X94148692Y-82987170D01*
X94248204Y-83332586D01*
X94385771Y-83664700D01*
X94559651Y-83979312D01*
X94709878Y-84191037D01*
X94767670Y-84272486D01*
X94780230Y-84286541D01*
X94804907Y-84342529D01*
X94791961Y-84402329D01*
X94746339Y-84443099D01*
X94713871Y-84451227D01*
X94666353Y-84454817D01*
X94563705Y-84483512D01*
X94532940Y-84492112D01*
X94532939Y-84492112D01*
X94532937Y-84492113D01*
X94409422Y-84554809D01*
X94409415Y-84554814D01*
X94393097Y-84567647D01*
X94392998Y-84567712D01*
X94355003Y-84597609D01*
X93480173Y-85261467D01*
X92582594Y-85894225D01*
X91663370Y-86495106D01*
X90723632Y-87063369D01*
X89764537Y-87598315D01*
X88787265Y-88099285D01*
X87793021Y-88565663D01*
X86783028Y-88996875D01*
X85758528Y-89392390D01*
X84720785Y-89751720D01*
X83671074Y-90074424D01*
X82610688Y-90360104D01*
X81540934Y-90608409D01*
X80463127Y-90819032D01*
X79378594Y-90991715D01*
X78288670Y-91126245D01*
X78086834Y-91143995D01*
X78027211Y-91130259D01*
X77987048Y-91084100D01*
X77981688Y-91023149D01*
X78013177Y-90970689D01*
X78022379Y-90963588D01*
X78184650Y-90852954D01*
X78382470Y-90669404D01*
X78382474Y-90669400D01*
X78496353Y-90526600D01*
X78550724Y-90458421D01*
X78685652Y-90224717D01*
X78784243Y-89973514D01*
X78844292Y-89710422D01*
X78864458Y-89441319D01*
X78844292Y-89172216D01*
X78784243Y-88909124D01*
X78685652Y-88657921D01*
X78550724Y-88424217D01*
X78550717Y-88424208D01*
X78382474Y-88213237D01*
X78382468Y-88213231D01*
X78184656Y-88029689D01*
X78184653Y-88029687D01*
X78184650Y-88029684D01*
X77961684Y-87877668D01*
X77961676Y-87877664D01*
X77718552Y-87760581D01*
X77460685Y-87681040D01*
X77460682Y-87681039D01*
X77460681Y-87681039D01*
X77460676Y-87681038D01*
X77460675Y-87681038D01*
X77193841Y-87640819D01*
X77193838Y-87640819D01*
X76923980Y-87640819D01*
X76923976Y-87640819D01*
X76657142Y-87681038D01*
X76657132Y-87681040D01*
X76399267Y-87760581D01*
X76156142Y-87877664D01*
X76156138Y-87877666D01*
X76156135Y-87877668D01*
X75933168Y-88029684D01*
X75933161Y-88029689D01*
X75735349Y-88213231D01*
X75735343Y-88213237D01*
X75567100Y-88424208D01*
X75567096Y-88424213D01*
X75567094Y-88424217D01*
X75501596Y-88537663D01*
X75432167Y-88657918D01*
X75432163Y-88657927D01*
X75333575Y-88909121D01*
X75273527Y-89172211D01*
X75273525Y-89172220D01*
X75253360Y-89441316D01*
X75253360Y-89441321D01*
X75273525Y-89710417D01*
X75273527Y-89710426D01*
X75333575Y-89973516D01*
X75373180Y-90074425D01*
X75432166Y-90224717D01*
X75567094Y-90458421D01*
X75567098Y-90458427D01*
X75567100Y-90458429D01*
X75735343Y-90669400D01*
X75735349Y-90669406D01*
X75933161Y-90852948D01*
X75933163Y-90852949D01*
X75933168Y-90852954D01*
X76156135Y-91004970D01*
X76317348Y-91082606D01*
X76361573Y-91124889D01*
X76372498Y-91185091D01*
X76345951Y-91240217D01*
X76292071Y-91269211D01*
X76279603Y-91270665D01*
X76098025Y-91280230D01*
X76098026Y-91280231D01*
X75000001Y-91299497D01*
X73901976Y-91280231D01*
X72805302Y-91222457D01*
X71711331Y-91126246D01*
X70621408Y-90991716D01*
X69536875Y-90819033D01*
X68459068Y-90608409D01*
X68459068Y-90608408D01*
X67389313Y-90360104D01*
X66328927Y-90074425D01*
X65279218Y-89751721D01*
X64241473Y-89392390D01*
X63216974Y-88996876D01*
X62206980Y-88565664D01*
X61212736Y-88099286D01*
X60235465Y-87598315D01*
X59276370Y-87063369D01*
X58336632Y-86495106D01*
X57417407Y-85894226D01*
X57340580Y-85840066D01*
X57303914Y-85791084D01*
X57303040Y-85729905D01*
X57338294Y-85679897D01*
X57396209Y-85660161D01*
X57412372Y-85661256D01*
X57519835Y-85677454D01*
X57519840Y-85677454D01*
X57789688Y-85677454D01*
X57789693Y-85677454D01*
X58056536Y-85637234D01*
X58314405Y-85557692D01*
X58557539Y-85440605D01*
X58780505Y-85288589D01*
X58978325Y-85105039D01*
X58978329Y-85105035D01*
X59085365Y-84970815D01*
X59146579Y-84894056D01*
X59281507Y-84660352D01*
X59380098Y-84409149D01*
X59440147Y-84146057D01*
X59460313Y-83876954D01*
X59457380Y-83837821D01*
X59440147Y-83607855D01*
X59440147Y-83607851D01*
X59380098Y-83344759D01*
X59375320Y-83332586D01*
X59347234Y-83261024D01*
X59281507Y-83093556D01*
X59146579Y-82859852D01*
X59139398Y-82850847D01*
X59007221Y-82685102D01*
X66605676Y-82685102D01*
X66625398Y-82986019D01*
X66684233Y-83281799D01*
X66781169Y-83567360D01*
X66914546Y-83837821D01*
X66914550Y-83837827D01*
X67082079Y-84088552D01*
X67082083Y-84088557D01*
X67082087Y-84088563D01*
X67280923Y-84315291D01*
X67507651Y-84514127D01*
X67507658Y-84514131D01*
X67507661Y-84514134D01*
X67758386Y-84681663D01*
X67758392Y-84681667D01*
X68028853Y-84815044D01*
X68028855Y-84815044D01*
X68028860Y-84815047D01*
X68194169Y-84871162D01*
X68314414Y-84911980D01*
X68314416Y-84911980D01*
X68314421Y-84911982D01*
X68610192Y-84970815D01*
X68835802Y-84985602D01*
X68986422Y-84985602D01*
X69212032Y-84970815D01*
X69507803Y-84911982D01*
X69793364Y-84815047D01*
X70063830Y-84681668D01*
X70314573Y-84514127D01*
X70541301Y-84315291D01*
X70740137Y-84088563D01*
X70907678Y-83837820D01*
X71041057Y-83567354D01*
X71137992Y-83281793D01*
X71196825Y-82986022D01*
X71216548Y-82685102D01*
X71196825Y-82384182D01*
X71137992Y-82088411D01*
X71041057Y-81802850D01*
X71024155Y-81768577D01*
X70907677Y-81532382D01*
X70907673Y-81532376D01*
X70740144Y-81281651D01*
X70740141Y-81281648D01*
X70740137Y-81281641D01*
X70541301Y-81054913D01*
X70314573Y-80856077D01*
X70314567Y-80856073D01*
X70314562Y-80856069D01*
X70063837Y-80688540D01*
X70063831Y-80688536D01*
X69793370Y-80555159D01*
X69507809Y-80458223D01*
X69212029Y-80399388D01*
X68986422Y-80384602D01*
X68835802Y-80384602D01*
X68610194Y-80399388D01*
X68314414Y-80458223D01*
X68028853Y-80555159D01*
X67758392Y-80688536D01*
X67758386Y-80688540D01*
X67507661Y-80856069D01*
X67507642Y-80856084D01*
X67280932Y-81054904D01*
X67280914Y-81054922D01*
X67082094Y-81281632D01*
X67082079Y-81281651D01*
X66914550Y-81532376D01*
X66914546Y-81532382D01*
X66781169Y-81802843D01*
X66684233Y-82088404D01*
X66625398Y-82384184D01*
X66605676Y-82685101D01*
X66605676Y-82685102D01*
X59007221Y-82685102D01*
X58978329Y-82648872D01*
X58978323Y-82648866D01*
X58780511Y-82465324D01*
X58780508Y-82465322D01*
X58780505Y-82465319D01*
X58557539Y-82313303D01*
X58557531Y-82313299D01*
X58314407Y-82196216D01*
X58056540Y-82116675D01*
X58056537Y-82116674D01*
X58056536Y-82116674D01*
X58056531Y-82116673D01*
X58056530Y-82116673D01*
X57789696Y-82076454D01*
X57789693Y-82076454D01*
X57519835Y-82076454D01*
X57519831Y-82076454D01*
X57252997Y-82116673D01*
X57252987Y-82116675D01*
X56995122Y-82196216D01*
X56751997Y-82313299D01*
X56751993Y-82313301D01*
X56751990Y-82313303D01*
X56529023Y-82465319D01*
X56529016Y-82465324D01*
X56331204Y-82648866D01*
X56331198Y-82648872D01*
X56162955Y-82859843D01*
X56162951Y-82859848D01*
X56162949Y-82859852D01*
X56097451Y-82973298D01*
X56028022Y-83093553D01*
X56028020Y-83093558D01*
X56021406Y-83110409D01*
X55982544Y-83157668D01*
X55923326Y-83173059D01*
X55866371Y-83150703D01*
X55833434Y-83099139D01*
X55834119Y-83046832D01*
X55851310Y-82987164D01*
X55911524Y-82632771D01*
X55925485Y-82384184D01*
X55931680Y-82273868D01*
X55931680Y-82273859D01*
X55911525Y-81914966D01*
X55911523Y-81914956D01*
X55851310Y-81560564D01*
X55851307Y-81560555D01*
X55751796Y-81215140D01*
X55614229Y-80883026D01*
X55440349Y-80568414D01*
X55440348Y-80568412D01*
X55232331Y-80275241D01*
X54992798Y-80007203D01*
X54724760Y-79767670D01*
X54724757Y-79767668D01*
X54724755Y-79767666D01*
X54458012Y-79578401D01*
X54431589Y-79559653D01*
X54431588Y-79559652D01*
X54431586Y-79559651D01*
X54116973Y-79385771D01*
X54116974Y-79385771D01*
X53784860Y-79248204D01*
X53439444Y-79148692D01*
X53439424Y-79148688D01*
X53085054Y-79088478D01*
X53085034Y-79088475D01*
X52726142Y-79068321D01*
X52726132Y-79068321D01*
X52367239Y-79088475D01*
X52367219Y-79088478D01*
X52012849Y-79148688D01*
X52012829Y-79148692D01*
X51667413Y-79248204D01*
X51335299Y-79385771D01*
X51020687Y-79559651D01*
X50727514Y-79767669D01*
X50727513Y-79767670D01*
X50713437Y-79780249D01*
X50657448Y-79804924D01*
X50597648Y-79791977D01*
X50556879Y-79746353D01*
X50548753Y-79713891D01*
X50545162Y-79666360D01*
X50507877Y-79532954D01*
X50445189Y-79409433D01*
X50433329Y-79394351D01*
X50433241Y-79394211D01*
X50402387Y-79355000D01*
X49738530Y-78480171D01*
X49105772Y-77582592D01*
X48504892Y-76663368D01*
X47936629Y-75723630D01*
X47533019Y-75000005D01*
X48237825Y-75000005D01*
X48257415Y-75173876D01*
X48257418Y-75173888D01*
X48315209Y-75339043D01*
X48315209Y-75339044D01*
X48403087Y-75478900D01*
X48408305Y-75487204D01*
X48532035Y-75610934D01*
X48532037Y-75610935D01*
X48532038Y-75610936D01*
X48680192Y-75704028D01*
X48680196Y-75704030D01*
X48736210Y-75723630D01*
X48845350Y-75761820D01*
X48845354Y-75761821D01*
X48845357Y-75761822D01*
X48845358Y-75761822D01*
X48845362Y-75761823D01*
X48975618Y-75776500D01*
X48975634Y-75776500D01*
X48975635Y-75776501D01*
X48975636Y-75776501D01*
X49062840Y-75776501D01*
X49062841Y-75776501D01*
X49062842Y-75776500D01*
X49062857Y-75776500D01*
X49193113Y-75761823D01*
X49193115Y-75761822D01*
X49193119Y-75761822D01*
X49193131Y-75761818D01*
X49228033Y-75749605D01*
X49358280Y-75704030D01*
X49506441Y-75610934D01*
X49630171Y-75487204D01*
X49723267Y-75339043D01*
X49781059Y-75173882D01*
X49781988Y-75165638D01*
X49800651Y-75000005D01*
X49800651Y-74999996D01*
X49781060Y-74826125D01*
X49781057Y-74826113D01*
X49757435Y-74758608D01*
X49723267Y-74660959D01*
X49723264Y-74660955D01*
X49630173Y-74512801D01*
X49630172Y-74512800D01*
X49630171Y-74512798D01*
X49506441Y-74389068D01*
X49506438Y-74389066D01*
X49506437Y-74389065D01*
X49358281Y-74295972D01*
X49193125Y-74238181D01*
X49193113Y-74238178D01*
X49062857Y-74223501D01*
X49062841Y-74223501D01*
X48975635Y-74223501D01*
X48975618Y-74223501D01*
X48845362Y-74238178D01*
X48845350Y-74238181D01*
X48680195Y-74295972D01*
X48680194Y-74295972D01*
X48532038Y-74389065D01*
X48408302Y-74512801D01*
X48315209Y-74660957D01*
X48315209Y-74660958D01*
X48257418Y-74826113D01*
X48257415Y-74826125D01*
X48237825Y-74999996D01*
X48237825Y-75000005D01*
X47533019Y-75000005D01*
X47401683Y-74764535D01*
X46900713Y-73787264D01*
X46434335Y-72793019D01*
X46003123Y-71783026D01*
X45607608Y-70758527D01*
X45248278Y-69720783D01*
X44925574Y-68671072D01*
X44639894Y-67610687D01*
X44391590Y-66540932D01*
X44180966Y-65463125D01*
X44008283Y-64378592D01*
X43873753Y-63288669D01*
X43777542Y-62194698D01*
X43719768Y-61098024D01*
X43700502Y-59999999D01*
X43719768Y-58901974D01*
X43772219Y-57906345D01*
X49801717Y-57906345D01*
X49821548Y-58133026D01*
X49821549Y-58133033D01*
X49821550Y-58133034D01*
X49847397Y-58229496D01*
X49880447Y-58352842D01*
X49976611Y-58559065D01*
X49976619Y-58559079D01*
X50107131Y-58745472D01*
X50107132Y-58745474D01*
X50107135Y-58745477D01*
X50107138Y-58745481D01*
X50268046Y-58906389D01*
X50268049Y-58906391D01*
X50268052Y-58906394D01*
X50268054Y-58906395D01*
X50357837Y-58969261D01*
X50454451Y-59036910D01*
X50454457Y-59036913D01*
X50454461Y-59036915D01*
X50660685Y-59133079D01*
X50660689Y-59133081D01*
X50880493Y-59191977D01*
X50880497Y-59191977D01*
X50880500Y-59191978D01*
X51050396Y-59206842D01*
X51050401Y-59206842D01*
X51163974Y-59206842D01*
X51333869Y-59191978D01*
X51333870Y-59191977D01*
X51333877Y-59191977D01*
X51553681Y-59133081D01*
X51759919Y-59036910D01*
X51946324Y-58906389D01*
X52107232Y-58745481D01*
X52237753Y-58559076D01*
X52333924Y-58352838D01*
X52392820Y-58133034D01*
X52394476Y-58114112D01*
X52412653Y-57906345D01*
X52412653Y-57906338D01*
X52392821Y-57679657D01*
X52392820Y-57679654D01*
X52392820Y-57679650D01*
X52333924Y-57459846D01*
X52333922Y-57459841D01*
X52237758Y-57253618D01*
X52237756Y-57253614D01*
X52237753Y-57253608D01*
X52187577Y-57181948D01*
X52107238Y-57067211D01*
X52107237Y-57067209D01*
X52107234Y-57067206D01*
X52107232Y-57067203D01*
X51946324Y-56906295D01*
X51946320Y-56906292D01*
X51946317Y-56906289D01*
X51946315Y-56906288D01*
X51759922Y-56775776D01*
X51759921Y-56775775D01*
X51759919Y-56775774D01*
X51759916Y-56775772D01*
X51759908Y-56775768D01*
X51553684Y-56679604D01*
X51553685Y-56679604D01*
X51449911Y-56651798D01*
X51333877Y-56620707D01*
X51333876Y-56620706D01*
X51333869Y-56620705D01*
X51163974Y-56605842D01*
X51163969Y-56605842D01*
X51050401Y-56605842D01*
X51050396Y-56605842D01*
X50880500Y-56620705D01*
X50660684Y-56679604D01*
X50454461Y-56775768D01*
X50454447Y-56775776D01*
X50268054Y-56906288D01*
X50268052Y-56906289D01*
X50107132Y-57067209D01*
X50107131Y-57067211D01*
X49976619Y-57253604D01*
X49976611Y-57253618D01*
X49880447Y-57459841D01*
X49821548Y-57679657D01*
X49801717Y-57906338D01*
X49801717Y-57906345D01*
X43772219Y-57906345D01*
X43777542Y-57805301D01*
X43873754Y-56711329D01*
X44008284Y-55621406D01*
X44180967Y-54536873D01*
X44391590Y-53459066D01*
X44639895Y-52389312D01*
X44925575Y-51328926D01*
X45248279Y-50279215D01*
X45579133Y-49323711D01*
X46170014Y-49323711D01*
X46188980Y-49625174D01*
X46241510Y-49900541D01*
X46245579Y-49921872D01*
X46308494Y-50115504D01*
X46338921Y-50209148D01*
X46467527Y-50482448D01*
X46467534Y-50482461D01*
X46629374Y-50737479D01*
X46821905Y-50970209D01*
X46821915Y-50970220D01*
X47042097Y-51176986D01*
X47042100Y-51176988D01*
X47286452Y-51354519D01*
X47286456Y-51354521D01*
X47286465Y-51354528D01*
X47551156Y-51500044D01*
X47831998Y-51611237D01*
X48124562Y-51686354D01*
X48274730Y-51705325D01*
X48424232Y-51724212D01*
X48424233Y-51724212D01*
X48726288Y-51724212D01*
X48791251Y-51716005D01*
X49025958Y-51686354D01*
X49318522Y-51611237D01*
X49599364Y-51500044D01*
X49864055Y-51354528D01*
X50108422Y-51176986D01*
X50328609Y-50970216D01*
X50521145Y-50737480D01*
X50653053Y-50529626D01*
X50682985Y-50482461D01*
X50682986Y-50482458D01*
X50682993Y-50482448D01*
X50811601Y-50209142D01*
X50904941Y-49921872D01*
X50961540Y-49625169D01*
X50980506Y-49323712D01*
X50961540Y-49022255D01*
X50904941Y-48725552D01*
X50811601Y-48438282D01*
X50800230Y-48414118D01*
X50744121Y-48294880D01*
X50682993Y-48164976D01*
X50682989Y-48164971D01*
X50682985Y-48164962D01*
X50521145Y-47909944D01*
X50328614Y-47677214D01*
X50328604Y-47677203D01*
X50108422Y-47470437D01*
X50108419Y-47470435D01*
X49864067Y-47292904D01*
X49864060Y-47292899D01*
X49864055Y-47292896D01*
X49599364Y-47147380D01*
X49599362Y-47147379D01*
X49599360Y-47147378D01*
X49318522Y-47036187D01*
X49267808Y-47023166D01*
X49025958Y-46961070D01*
X49025951Y-46961069D01*
X49025955Y-46961069D01*
X48726288Y-46923212D01*
X48726287Y-46923212D01*
X48424233Y-46923212D01*
X48424232Y-46923212D01*
X48124566Y-46961069D01*
X47831997Y-47036187D01*
X47551159Y-47147378D01*
X47286473Y-47292891D01*
X47286452Y-47292904D01*
X47042100Y-47470435D01*
X47042097Y-47470437D01*
X46821915Y-47677203D01*
X46821905Y-47677214D01*
X46629374Y-47909944D01*
X46467534Y-48164962D01*
X46467527Y-48164975D01*
X46338921Y-48438275D01*
X46306227Y-48538897D01*
X46254228Y-48698935D01*
X46245580Y-48725550D01*
X46245577Y-48725560D01*
X46188980Y-49022249D01*
X46170014Y-49323711D01*
X45579133Y-49323711D01*
X45607609Y-49241472D01*
X46003124Y-48216973D01*
X46434335Y-47206979D01*
X46900714Y-46212735D01*
X47401684Y-45235464D01*
X47936630Y-44276369D01*
X48429938Y-43460584D01*
X56182695Y-43460584D01*
X56211032Y-43742272D01*
X56212184Y-43753715D01*
X56225244Y-43808517D01*
X56280478Y-44040292D01*
X56280481Y-44040302D01*
X56361246Y-44250004D01*
X56386366Y-44315225D01*
X56386370Y-44315235D01*
X56461319Y-44451998D01*
X56520036Y-44559144D01*
X56527954Y-44573591D01*
X56527955Y-44573593D01*
X56702704Y-44810765D01*
X56702706Y-44810768D01*
X56712236Y-44820622D01*
X56907523Y-45022546D01*
X56907531Y-45022552D01*
X56907537Y-45022558D01*
X57123510Y-45193110D01*
X57138734Y-45205132D01*
X57271878Y-45283993D01*
X57364182Y-45338665D01*
X57392219Y-45355271D01*
X57663454Y-45470285D01*
X57663460Y-45470286D01*
X57663466Y-45470289D01*
X57918118Y-45540044D01*
X57947598Y-45548120D01*
X58239582Y-45587388D01*
X58239583Y-45587388D01*
X58460453Y-45587388D01*
X58460459Y-45587388D01*
X58680842Y-45572635D01*
X58969551Y-45513952D01*
X59095307Y-45470285D01*
X59247848Y-45417317D01*
X59247849Y-45417316D01*
X59247862Y-45417312D01*
X59510809Y-45284439D01*
X59753700Y-45117704D01*
X59972200Y-44920083D01*
X60162410Y-44695101D01*
X60320935Y-44446775D01*
X60444948Y-44179535D01*
X60532234Y-43898150D01*
X60581237Y-43607642D01*
X60591081Y-43313194D01*
X60561592Y-43020061D01*
X60493295Y-42733474D01*
X60387409Y-42458548D01*
X60387317Y-42458381D01*
X60326776Y-42347907D01*
X60245824Y-42200188D01*
X60245820Y-42200182D01*
X60071071Y-41963010D01*
X60071069Y-41963007D01*
X59952245Y-41840145D01*
X59866253Y-41751230D01*
X59866245Y-41751223D01*
X59866238Y-41751217D01*
X59635049Y-41568649D01*
X59635044Y-41568646D01*
X59635042Y-41568644D01*
X59557985Y-41523003D01*
X59381558Y-41418505D01*
X59381556Y-41418504D01*
X59140345Y-41316222D01*
X59110322Y-41303491D01*
X59110320Y-41303490D01*
X59110319Y-41303490D01*
X59110309Y-41303486D01*
X58826184Y-41225657D01*
X58826176Y-41225655D01*
X58576429Y-41192068D01*
X58534194Y-41186388D01*
X58313317Y-41186388D01*
X58247001Y-41190827D01*
X58092935Y-41201140D01*
X57804235Y-41259821D01*
X57804212Y-41259827D01*
X57525927Y-41356458D01*
X57525907Y-41356467D01*
X57262972Y-41489333D01*
X57020074Y-41656072D01*
X56801573Y-41853695D01*
X56801572Y-41853696D01*
X56611367Y-42078673D01*
X56611362Y-42078679D01*
X56452840Y-42327001D01*
X56328824Y-42594250D01*
X56241546Y-42875611D01*
X56241542Y-42875626D01*
X56192539Y-43166134D01*
X56184518Y-43406069D01*
X56182695Y-43460584D01*
X48429938Y-43460584D01*
X48504893Y-43336631D01*
X49105773Y-42417406D01*
X49738531Y-41519827D01*
X49772660Y-41474852D01*
X50402388Y-40644999D01*
X50402387Y-40644998D01*
X50402450Y-40644915D01*
X50427048Y-40613655D01*
X50427048Y-40613654D01*
X50433091Y-40605975D01*
X50433331Y-40605597D01*
X50445165Y-40590549D01*
X50507850Y-40467033D01*
X50545133Y-40333632D01*
X50548725Y-40286086D01*
X50571961Y-40229489D01*
X50624029Y-40197356D01*
X50685041Y-40201964D01*
X50713408Y-40219726D01*
X50727513Y-40232331D01*
X50727516Y-40232333D01*
X50727517Y-40232334D01*
X50742604Y-40243039D01*
X51020684Y-40440348D01*
X51095221Y-40481543D01*
X51335299Y-40614229D01*
X51335298Y-40614229D01*
X51667412Y-40751796D01*
X52012828Y-40851308D01*
X52012831Y-40851308D01*
X52012836Y-40851310D01*
X52367229Y-40911524D01*
X52367232Y-40911524D01*
X52367238Y-40911525D01*
X52726131Y-40931680D01*
X52726136Y-40931680D01*
X52726141Y-40931680D01*
X53085033Y-40911525D01*
X53085037Y-40911524D01*
X53085043Y-40911524D01*
X53439436Y-40851310D01*
X53784860Y-40751796D01*
X54116969Y-40614231D01*
X54116975Y-40614228D01*
X54221795Y-40556296D01*
X54431588Y-40440348D01*
X54724759Y-40232331D01*
X54992797Y-39992798D01*
X55232330Y-39724760D01*
X55440347Y-39431589D01*
X55601476Y-39140047D01*
X55614228Y-39116974D01*
X55637429Y-39060962D01*
X55751795Y-38784861D01*
X55851309Y-38439437D01*
X55911523Y-38085044D01*
X55912460Y-38068375D01*
X55931679Y-37726141D01*
X55931679Y-37726132D01*
X55911524Y-37367239D01*
X55911522Y-37367229D01*
X55851309Y-37012837D01*
X55851306Y-37012828D01*
X55751795Y-36667413D01*
X55614228Y-36335299D01*
X55440348Y-36020687D01*
X55440347Y-36020685D01*
X55256042Y-35760933D01*
X55232333Y-35727518D01*
X55232332Y-35727517D01*
X55232330Y-35727514D01*
X55219747Y-35713434D01*
X55195072Y-35657446D01*
X55208018Y-35597646D01*
X55253642Y-35556876D01*
X55286104Y-35548750D01*
X55333637Y-35545159D01*
X55333641Y-35545158D01*
X55333642Y-35545158D01*
X55385767Y-35530590D01*
X55467044Y-35507875D01*
X55590565Y-35445187D01*
X55605501Y-35433440D01*
X55605639Y-35433354D01*
X55613654Y-35427047D01*
X55613656Y-35427047D01*
X55644998Y-35402385D01*
X56519827Y-34738528D01*
X57417406Y-34105770D01*
X58336630Y-33504890D01*
X59276368Y-32936627D01*
X60235463Y-32401681D01*
X61212734Y-31900711D01*
X62206979Y-31434332D01*
X63216972Y-31003121D01*
X64241471Y-30607606D01*
X65279215Y-30248276D01*
X66086806Y-30000005D01*
X74218586Y-30000005D01*
X74238176Y-30173876D01*
X74238179Y-30173888D01*
X74295970Y-30339043D01*
X74295970Y-30339044D01*
X74380176Y-30473056D01*
X74389066Y-30487204D01*
X74512796Y-30610934D01*
X74512798Y-30610935D01*
X74512799Y-30610936D01*
X74645936Y-30694592D01*
X74660957Y-30704030D01*
X74727093Y-30727172D01*
X74826111Y-30761820D01*
X74826115Y-30761821D01*
X74826118Y-30761822D01*
X74826119Y-30761822D01*
X74826123Y-30761823D01*
X74956379Y-30776500D01*
X74956395Y-30776500D01*
X74956396Y-30776501D01*
X74956397Y-30776501D01*
X75043601Y-30776501D01*
X75043602Y-30776501D01*
X75043603Y-30776500D01*
X75043618Y-30776500D01*
X75173874Y-30761823D01*
X75173876Y-30761822D01*
X75173880Y-30761822D01*
X75339041Y-30704030D01*
X75487202Y-30610934D01*
X75610932Y-30487204D01*
X75704028Y-30339043D01*
X75761820Y-30173882D01*
X75781412Y-30000001D01*
X75781412Y-29999996D01*
X75761821Y-29826125D01*
X75761818Y-29826113D01*
X75738196Y-29758608D01*
X75704028Y-29660959D01*
X75610932Y-29512798D01*
X75487202Y-29389068D01*
X75487199Y-29389066D01*
X75487198Y-29389065D01*
X75339042Y-29295972D01*
X75173886Y-29238181D01*
X75173874Y-29238178D01*
X75043618Y-29223501D01*
X75043602Y-29223501D01*
X74956396Y-29223501D01*
X74956379Y-29223501D01*
X74826123Y-29238178D01*
X74826111Y-29238181D01*
X74660956Y-29295972D01*
X74660955Y-29295972D01*
X74512799Y-29389065D01*
X74389063Y-29512801D01*
X74295970Y-29660957D01*
X74295970Y-29660958D01*
X74238179Y-29826113D01*
X74238176Y-29826125D01*
X74218586Y-29999996D01*
X74218586Y-30000005D01*
X66086806Y-30000005D01*
X66328926Y-29925572D01*
X67389312Y-29639892D01*
X68459066Y-29391587D01*
X69536873Y-29180963D01*
X70621406Y-29008280D01*
X71711329Y-28873751D01*
X72805301Y-28777539D01*
X73901974Y-28719765D01*
X74999999Y-28700499D01*
X76098024Y-28719765D01*
G37*
%TD.AperFunction*%
%TA.AperFunction,Conductor*%
G36*
X70191546Y-76138882D02*
G01*
X74875858Y-78079187D01*
X74875863Y-78079188D01*
X74905343Y-78091399D01*
X74929393Y-78093291D01*
X74944718Y-78095717D01*
X74968189Y-78101353D01*
X74992240Y-78099460D01*
X75007766Y-78099460D01*
X75031818Y-78101353D01*
X75055286Y-78095718D01*
X75070614Y-78093291D01*
X75094663Y-78091399D01*
X75094664Y-78091398D01*
X75094666Y-78091398D01*
X75121820Y-78080150D01*
X75121842Y-78080142D01*
X75124148Y-78079187D01*
X76772725Y-77396322D01*
X76833719Y-77391522D01*
X76885888Y-77423492D01*
X76902072Y-77449901D01*
X77253579Y-78298511D01*
X77258770Y-78357819D01*
X77256953Y-78366016D01*
X77251756Y-78485055D01*
X77251715Y-78485983D01*
X77264659Y-78534292D01*
X77425311Y-78922137D01*
X77450317Y-78965452D01*
X77538849Y-79046576D01*
X77538851Y-79046577D01*
X77538850Y-79046577D01*
X77591346Y-79068321D01*
X77649787Y-79092528D01*
X77769752Y-79097766D01*
X77818062Y-79084822D01*
X78150474Y-78947131D01*
X78193789Y-78922125D01*
X78274914Y-78833592D01*
X78287753Y-78802593D01*
X78327489Y-78756067D01*
X78341332Y-78749014D01*
X78515441Y-78676895D01*
X78576435Y-78672095D01*
X78628604Y-78704064D01*
X78644787Y-78730472D01*
X78652537Y-78749181D01*
X78652538Y-78749182D01*
X78685661Y-78798755D01*
X78685662Y-78798756D01*
X78685665Y-78798760D01*
X78751987Y-78843074D01*
X78752432Y-78843371D01*
X78790312Y-78891420D01*
X78794529Y-78945000D01*
X78778864Y-79023758D01*
X78778864Y-79023759D01*
X78785752Y-79058384D01*
X78790497Y-79082241D01*
X78790497Y-79082243D01*
X78846080Y-79216434D01*
X78850880Y-79277431D01*
X78818911Y-79329600D01*
X78792502Y-79345783D01*
X76867076Y-80143322D01*
X76806079Y-80148123D01*
X76791307Y-80143323D01*
X72989264Y-78568468D01*
X71743262Y-78052358D01*
X71696737Y-78012621D01*
X71682453Y-77953127D01*
X71689682Y-77923014D01*
X71745271Y-77788812D01*
X71756904Y-77730329D01*
X71741343Y-77652098D01*
X71741343Y-77652097D01*
X71697030Y-77585779D01*
X71697029Y-77585777D01*
X71697025Y-77585774D01*
X71697024Y-77585773D01*
X71647451Y-77552650D01*
X71647452Y-77552650D01*
X70104387Y-76913491D01*
X70057862Y-76873754D01*
X70043578Y-76814260D01*
X70050809Y-76784140D01*
X70051000Y-76783678D01*
X70051001Y-76783679D01*
X70081206Y-76710758D01*
X70105855Y-76565684D01*
X70107649Y-76555128D01*
X70098799Y-76397522D01*
X70098798Y-76397519D01*
X70098798Y-76397515D01*
X70058533Y-76257753D01*
X70060592Y-76196603D01*
X70098201Y-76148341D01*
X70156996Y-76131403D01*
X70191546Y-76138882D01*
G37*
%TD.AperFunction*%
%TA.AperFunction,Conductor*%
G36*
X78219504Y-41353315D02*
G01*
X78448911Y-41582722D01*
X78476688Y-41637239D01*
X78470371Y-41690611D01*
X78254741Y-42211189D01*
X78254741Y-42211191D01*
X78246598Y-42252129D01*
X78237980Y-42267517D01*
X78246598Y-42287220D01*
X78258668Y-42347904D01*
X78258668Y-42347905D01*
X78302781Y-42413924D01*
X78302983Y-42414226D01*
X78302986Y-42414228D01*
X78302987Y-42414229D01*
X78352560Y-42447352D01*
X78352559Y-42447352D01*
X78352561Y-42447353D01*
X78352563Y-42447354D01*
X79222476Y-42807684D01*
X79895601Y-43086502D01*
X79942126Y-43126239D01*
X79956410Y-43185733D01*
X79949179Y-43215851D01*
X79918785Y-43289228D01*
X79918781Y-43289240D01*
X79892339Y-43444869D01*
X79892339Y-43444870D01*
X79901188Y-43602476D01*
X79901190Y-43602486D01*
X79944889Y-43754171D01*
X79944893Y-43754181D01*
X80021249Y-43892338D01*
X80021252Y-43892342D01*
X80021254Y-43892345D01*
X80126445Y-44010055D01*
X80255193Y-44101406D01*
X80401040Y-44161818D01*
X80401042Y-44161818D01*
X80401044Y-44161819D01*
X80447954Y-44169789D01*
X80556673Y-44188261D01*
X80714288Y-44179409D01*
X80865982Y-44135707D01*
X81004148Y-44059345D01*
X81121857Y-43954153D01*
X81125039Y-43949667D01*
X81174130Y-43913148D01*
X81235311Y-43912457D01*
X81243666Y-43915486D01*
X81958625Y-44211631D01*
X82005149Y-44251367D01*
X82019433Y-44310861D01*
X82018340Y-44319675D01*
X82017421Y-44325079D01*
X82026273Y-44482673D01*
X82026273Y-44482674D01*
X82069970Y-44634351D01*
X82069971Y-44634353D01*
X82146318Y-44772493D01*
X82146321Y-44772497D01*
X82146322Y-44772499D01*
X82153025Y-44780000D01*
X82233378Y-44869915D01*
X82251501Y-44890194D01*
X82380233Y-44981534D01*
X82380234Y-44981534D01*
X82380235Y-44981535D01*
X82526054Y-45041935D01*
X82526057Y-45041936D01*
X82526062Y-45041938D01*
X82526064Y-45041938D01*
X82526066Y-45041939D01*
X82559886Y-45047685D01*
X82681676Y-45068378D01*
X82789002Y-45062350D01*
X82839263Y-45059529D01*
X82839265Y-45059528D01*
X82839272Y-45059528D01*
X82990948Y-45015831D01*
X83129097Y-44939479D01*
X83246792Y-44834300D01*
X83338133Y-44705569D01*
X83348083Y-44681545D01*
X83348087Y-44681541D01*
X83368528Y-44632192D01*
X83408264Y-44585666D01*
X83467759Y-44571382D01*
X83497874Y-44578612D01*
X85040985Y-45217790D01*
X85099468Y-45229423D01*
X85099468Y-45229422D01*
X85099470Y-45229423D01*
X85134979Y-45222359D01*
X85177699Y-45213861D01*
X85244021Y-45169547D01*
X85277146Y-45119972D01*
X85277147Y-45119971D01*
X85278086Y-45117704D01*
X85284895Y-45101265D01*
X85324627Y-45054741D01*
X85384121Y-45040454D01*
X85414241Y-45047684D01*
X85526035Y-45093990D01*
X85572560Y-45133727D01*
X85586844Y-45193222D01*
X85579613Y-45223340D01*
X85300825Y-45896391D01*
X85300824Y-45896397D01*
X85287269Y-45929125D01*
X85285376Y-45953177D01*
X85282946Y-45968515D01*
X85277315Y-45991968D01*
X85279208Y-46016017D01*
X85279208Y-46031545D01*
X85279195Y-46031717D01*
X85277316Y-46055601D01*
X85277317Y-46055604D01*
X85282947Y-46079060D01*
X85285376Y-46094396D01*
X85287269Y-46118441D01*
X85287269Y-46118443D01*
X85287270Y-46118444D01*
X85299481Y-46147926D01*
X85299483Y-46147931D01*
X85299930Y-46149010D01*
X85676154Y-47057282D01*
X85676162Y-47057298D01*
X85687599Y-47084912D01*
X85687600Y-47084913D01*
X85687601Y-47084915D01*
X85699800Y-47099198D01*
X85703265Y-47103255D01*
X85712394Y-47115820D01*
X85725003Y-47136396D01*
X85743345Y-47152061D01*
X85754324Y-47163039D01*
X85769993Y-47181385D01*
X85790564Y-47193991D01*
X85803128Y-47203119D01*
X85821473Y-47218787D01*
X85821475Y-47218787D01*
X85821477Y-47218789D01*
X85831422Y-47222908D01*
X85849330Y-47230325D01*
X85849332Y-47230327D01*
X85849333Y-47230327D01*
X85850953Y-47230998D01*
X85850955Y-47230999D01*
X87063309Y-47733175D01*
X87169331Y-47777091D01*
X87215856Y-47816828D01*
X87222909Y-47830669D01*
X89776618Y-53995860D01*
X91324714Y-57733292D01*
X91324715Y-57733293D01*
X91329516Y-57794290D01*
X91297546Y-57846459D01*
X91241018Y-57869874D01*
X91181524Y-57855590D01*
X91159432Y-57837147D01*
X91140145Y-57815565D01*
X91066664Y-57733339D01*
X90798626Y-57493806D01*
X90798623Y-57493804D01*
X90798621Y-57493802D01*
X90505452Y-57285787D01*
X90190839Y-57111907D01*
X90190840Y-57111907D01*
X89858726Y-56974340D01*
X89513310Y-56874828D01*
X89513290Y-56874824D01*
X89158920Y-56814614D01*
X89158900Y-56814611D01*
X88800008Y-56794457D01*
X88799998Y-56794457D01*
X88441105Y-56814611D01*
X88441085Y-56814614D01*
X88086715Y-56874824D01*
X88086695Y-56874828D01*
X87741279Y-56974340D01*
X87409165Y-57111907D01*
X87094553Y-57285787D01*
X86801384Y-57493802D01*
X86533349Y-57733332D01*
X86533335Y-57733346D01*
X86293805Y-58001381D01*
X86085790Y-58294550D01*
X85911910Y-58609162D01*
X85774343Y-58941276D01*
X85674831Y-59286692D01*
X85674827Y-59286712D01*
X85614617Y-59641082D01*
X85614614Y-59641102D01*
X85594460Y-59999995D01*
X85594460Y-59999998D01*
X85614614Y-60358897D01*
X85614617Y-60358917D01*
X85674827Y-60713287D01*
X85674831Y-60713307D01*
X85774343Y-61058723D01*
X85911910Y-61390837D01*
X86049206Y-61639255D01*
X86085792Y-61705452D01*
X86131847Y-61770361D01*
X86293775Y-61998576D01*
X86293809Y-61998623D01*
X86533342Y-62266661D01*
X86801380Y-62506194D01*
X87094551Y-62714211D01*
X87094553Y-62714212D01*
X87409166Y-62888092D01*
X87409165Y-62888092D01*
X87741279Y-63025659D01*
X88086695Y-63125171D01*
X88086698Y-63125171D01*
X88086703Y-63125173D01*
X88441096Y-63185387D01*
X88441099Y-63185387D01*
X88441105Y-63185388D01*
X88799998Y-63205543D01*
X88800003Y-63205543D01*
X88800008Y-63205543D01*
X89158900Y-63185388D01*
X89158904Y-63185387D01*
X89158910Y-63185387D01*
X89513303Y-63125173D01*
X89858727Y-63025659D01*
X90190836Y-62888094D01*
X90193274Y-62886747D01*
X90306297Y-62824281D01*
X90505455Y-62714211D01*
X90798626Y-62506194D01*
X91066664Y-62266661D01*
X91159441Y-62162843D01*
X91212311Y-62132054D01*
X91273185Y-62138222D01*
X91318807Y-62178992D01*
X91331753Y-62238792D01*
X91324721Y-62266699D01*
X87222913Y-72169329D01*
X87183176Y-72215854D01*
X87169335Y-72222907D01*
X75037887Y-77247919D01*
X74976890Y-77252720D01*
X74962118Y-77247920D01*
X69935044Y-75165639D01*
X62830669Y-72222912D01*
X62784144Y-72183175D01*
X62777091Y-72169334D01*
X62624315Y-71800500D01*
X58675247Y-62266612D01*
X58670447Y-62205617D01*
X58702417Y-62153448D01*
X58758945Y-62130033D01*
X58818439Y-62144317D01*
X58840529Y-62162758D01*
X58933340Y-62266614D01*
X59201378Y-62506147D01*
X59201381Y-62506149D01*
X59201382Y-62506150D01*
X59255400Y-62544478D01*
X59494549Y-62714164D01*
X59494551Y-62714165D01*
X59809164Y-62888045D01*
X59809163Y-62888045D01*
X60141277Y-63025612D01*
X60486693Y-63125124D01*
X60486696Y-63125124D01*
X60486701Y-63125126D01*
X60841094Y-63185340D01*
X60841097Y-63185340D01*
X60841103Y-63185341D01*
X61199996Y-63205496D01*
X61200001Y-63205496D01*
X61200006Y-63205496D01*
X61558898Y-63185341D01*
X61558902Y-63185340D01*
X61558908Y-63185340D01*
X61913301Y-63125126D01*
X62258725Y-63025612D01*
X62590834Y-62888047D01*
X62593187Y-62886747D01*
X62706210Y-62824281D01*
X62905453Y-62714164D01*
X63198624Y-62506147D01*
X63466662Y-62266614D01*
X63706195Y-61998576D01*
X63914212Y-61705405D01*
X64049842Y-61460000D01*
X64088093Y-61390790D01*
X64089694Y-61386926D01*
X64225660Y-61058677D01*
X64325174Y-60713253D01*
X64385388Y-60358860D01*
X64385547Y-60356041D01*
X64405544Y-59999957D01*
X64405544Y-59999948D01*
X64385389Y-59641055D01*
X64385386Y-59641035D01*
X64330155Y-59315972D01*
X64325174Y-59286653D01*
X64318446Y-59263301D01*
X64225660Y-58941229D01*
X64088093Y-58609115D01*
X63922952Y-58310315D01*
X63914212Y-58294501D01*
X63706231Y-58001381D01*
X63706198Y-58001334D01*
X63706197Y-58001333D01*
X63706195Y-58001330D01*
X63466662Y-57733292D01*
X63198624Y-57493759D01*
X63198621Y-57493757D01*
X63198619Y-57493755D01*
X62905450Y-57285740D01*
X62590837Y-57111860D01*
X62590838Y-57111860D01*
X62258724Y-56974293D01*
X61913308Y-56874781D01*
X61913288Y-56874777D01*
X61558918Y-56814567D01*
X61558898Y-56814564D01*
X61200006Y-56794410D01*
X61199996Y-56794410D01*
X60841103Y-56814564D01*
X60841083Y-56814567D01*
X60486713Y-56874777D01*
X60486693Y-56874781D01*
X60141277Y-56974293D01*
X59809163Y-57111860D01*
X59494551Y-57285740D01*
X59201382Y-57493755D01*
X58933347Y-57733285D01*
X58933333Y-57733299D01*
X58840610Y-57837057D01*
X58787736Y-57867848D01*
X58726863Y-57861680D01*
X58681240Y-57820909D01*
X58668295Y-57761109D01*
X58675325Y-57733207D01*
X61160042Y-51734571D01*
X61869764Y-50021151D01*
X61909501Y-49974626D01*
X61961228Y-49960037D01*
X63712637Y-49960037D01*
X63770828Y-49978944D01*
X63782641Y-49989033D01*
X64483946Y-50690338D01*
X64511723Y-50744855D01*
X64508679Y-50789079D01*
X64464700Y-50934062D01*
X64464698Y-50934070D01*
X64444417Y-51139996D01*
X64444417Y-51140003D01*
X64464698Y-51345929D01*
X64464699Y-51345934D01*
X64524768Y-51543954D01*
X64622316Y-51726452D01*
X64714989Y-51839374D01*
X64753590Y-51886410D01*
X64753595Y-51886414D01*
X64913547Y-52017683D01*
X64913548Y-52017683D01*
X64913550Y-52017685D01*
X65096046Y-52115232D01*
X65233997Y-52157078D01*
X65294065Y-52175300D01*
X65294070Y-52175301D01*
X65499997Y-52195583D01*
X65500000Y-52195583D01*
X65500003Y-52195583D01*
X65705929Y-52175301D01*
X65705934Y-52175300D01*
X65705933Y-52175299D01*
X65903954Y-52115232D01*
X66086450Y-52017685D01*
X66246410Y-51886410D01*
X66377685Y-51726450D01*
X66475232Y-51543954D01*
X66535300Y-51345934D01*
X66535301Y-51345929D01*
X66555583Y-51140003D01*
X66555583Y-51139996D01*
X66535301Y-50934070D01*
X66535300Y-50934065D01*
X66506632Y-50839560D01*
X66475232Y-50736046D01*
X66377685Y-50553550D01*
X66358051Y-50529626D01*
X66246414Y-50393595D01*
X66246410Y-50393590D01*
X66246404Y-50393585D01*
X66086452Y-50262316D01*
X65903954Y-50164768D01*
X65705934Y-50104699D01*
X65705929Y-50104698D01*
X65500003Y-50084417D01*
X65499997Y-50084417D01*
X65294070Y-50104698D01*
X65294062Y-50104700D01*
X65149080Y-50148679D01*
X65087907Y-50147478D01*
X65050339Y-50123946D01*
X64641078Y-49714685D01*
X64180446Y-49254053D01*
X64180442Y-49254050D01*
X64177961Y-49251569D01*
X64177961Y-49251568D01*
X64157880Y-49231488D01*
X64157876Y-49231485D01*
X64136381Y-49220532D01*
X64123141Y-49212418D01*
X64103629Y-49198242D01*
X64103626Y-49198241D01*
X64080676Y-49190783D01*
X64066333Y-49184841D01*
X64044847Y-49173893D01*
X64044842Y-49173891D01*
X64044841Y-49173891D01*
X64036077Y-49172502D01*
X64021011Y-49170116D01*
X64005913Y-49166491D01*
X63982970Y-49159037D01*
X63951056Y-49159037D01*
X62375027Y-49159037D01*
X62316836Y-49140130D01*
X62280872Y-49090630D01*
X62280872Y-49029444D01*
X62283563Y-49022151D01*
X62343113Y-48878384D01*
X62458422Y-48600003D01*
X64444417Y-48600003D01*
X64464698Y-48805929D01*
X64464699Y-48805934D01*
X64524768Y-49003954D01*
X64622316Y-49186452D01*
X64734962Y-49323712D01*
X64753590Y-49346410D01*
X64767156Y-49357543D01*
X64913547Y-49477683D01*
X64913548Y-49477683D01*
X64913550Y-49477685D01*
X65096046Y-49575232D01*
X65230036Y-49615877D01*
X65294065Y-49635300D01*
X65294070Y-49635301D01*
X65499997Y-49655583D01*
X65500000Y-49655583D01*
X65500003Y-49655583D01*
X65705929Y-49635301D01*
X65705934Y-49635300D01*
X65708014Y-49634669D01*
X65903954Y-49575232D01*
X66086450Y-49477685D01*
X66246410Y-49346410D01*
X66377685Y-49186450D01*
X66475232Y-49003954D01*
X66535300Y-48805934D01*
X66535301Y-48805929D01*
X66555583Y-48600003D01*
X66555583Y-48599996D01*
X66535301Y-48394070D01*
X66535300Y-48394065D01*
X66506526Y-48299210D01*
X66475232Y-48196046D01*
X66466081Y-48178925D01*
X66458881Y-48165454D01*
X66448125Y-48105221D01*
X66474827Y-48050170D01*
X66476138Y-48048831D01*
X67895474Y-46629495D01*
X67949991Y-46601719D01*
X67965478Y-46600500D01*
X70052915Y-46600500D01*
X70111106Y-46619407D01*
X70127734Y-46634669D01*
X70168870Y-46682142D01*
X70168872Y-46682144D01*
X70276233Y-46751141D01*
X70289947Y-46759954D01*
X70396403Y-46791212D01*
X70428035Y-46800500D01*
X70428036Y-46800500D01*
X70428039Y-46800501D01*
X70428041Y-46800501D01*
X70571959Y-46800501D01*
X70571961Y-46800501D01*
X70710053Y-46759954D01*
X70831128Y-46682144D01*
X70925377Y-46573374D01*
X70985165Y-46442458D01*
X71000966Y-46332557D01*
X71005647Y-46300003D01*
X71005647Y-46299998D01*
X70985165Y-46157544D01*
X70979235Y-46144560D01*
X70925377Y-46026628D01*
X70831128Y-45917858D01*
X70831127Y-45917857D01*
X70831126Y-45917856D01*
X70710057Y-45840050D01*
X70710054Y-45840048D01*
X70710053Y-45840048D01*
X70710050Y-45840047D01*
X70571964Y-45799501D01*
X70571961Y-45799501D01*
X70428039Y-45799501D01*
X70428035Y-45799501D01*
X70289949Y-45840047D01*
X70289942Y-45840050D01*
X70168873Y-45917856D01*
X70127735Y-45965332D01*
X70075338Y-45996927D01*
X70052916Y-45999500D01*
X67865168Y-45999500D01*
X67851495Y-45997268D01*
X67851324Y-45998495D01*
X67842232Y-45997226D01*
X67801623Y-45999104D01*
X67794206Y-45999447D01*
X67791930Y-45999500D01*
X67772153Y-45999500D01*
X67768658Y-46000153D01*
X67761845Y-46000943D01*
X67730010Y-46002414D01*
X67730006Y-46002415D01*
X67721015Y-46006385D01*
X67699227Y-46013132D01*
X67689570Y-46014937D01*
X67689564Y-46014939D01*
X67662466Y-46031717D01*
X67656399Y-46034915D01*
X67627237Y-46047792D01*
X67627233Y-46047795D01*
X67620284Y-46054744D01*
X67602409Y-46068903D01*
X67594048Y-46074080D01*
X67574839Y-46099515D01*
X67570335Y-46104692D01*
X66051215Y-47623812D01*
X65996698Y-47651589D01*
X65936266Y-47642018D01*
X65934583Y-47641139D01*
X65903954Y-47624768D01*
X65705934Y-47564699D01*
X65705929Y-47564698D01*
X65500003Y-47544417D01*
X65499997Y-47544417D01*
X65294070Y-47564698D01*
X65294065Y-47564699D01*
X65096045Y-47624768D01*
X64913547Y-47722316D01*
X64753595Y-47853585D01*
X64753585Y-47853595D01*
X64622316Y-48013547D01*
X64524768Y-48196045D01*
X64464699Y-48394065D01*
X64464698Y-48394070D01*
X64444417Y-48599996D01*
X64444417Y-48600003D01*
X62458422Y-48600003D01*
X62777091Y-47830666D01*
X62816827Y-47784143D01*
X62830662Y-47777092D01*
X72332136Y-43841454D01*
X72332139Y-43841452D01*
X72361619Y-43829241D01*
X72379959Y-43813576D01*
X72392528Y-43804445D01*
X72413095Y-43791842D01*
X72413094Y-43791842D01*
X72413097Y-43791841D01*
X72428767Y-43773492D01*
X72439742Y-43762517D01*
X72458089Y-43746849D01*
X72470694Y-43726276D01*
X72479817Y-43713719D01*
X72495490Y-43695371D01*
X72516750Y-43644045D01*
X72621444Y-43391291D01*
X72661180Y-43344769D01*
X72720674Y-43330485D01*
X72777202Y-43353900D01*
X72809172Y-43406069D01*
X72810899Y-43415089D01*
X72814834Y-43442456D01*
X72869512Y-43562181D01*
X72874623Y-43573373D01*
X72904317Y-43607642D01*
X72968871Y-43682142D01*
X72969527Y-43682710D01*
X72969900Y-43683329D01*
X72973509Y-43687494D01*
X72972788Y-43688118D01*
X73001123Y-43735106D01*
X72995888Y-43796067D01*
X72974700Y-43827534D01*
X72035106Y-44767128D01*
X72019256Y-44780000D01*
X72009320Y-44786492D01*
X72009318Y-44786493D01*
X71988655Y-44813041D01*
X71984601Y-44817632D01*
X71981620Y-44820613D01*
X71981608Y-44820627D01*
X71968939Y-44838373D01*
X71937472Y-44878803D01*
X71933970Y-44885274D01*
X71930746Y-44891868D01*
X71916125Y-44940982D01*
X71899488Y-44989444D01*
X71898282Y-44996672D01*
X71897372Y-45003976D01*
X71899489Y-45055162D01*
X71899489Y-46019754D01*
X71899490Y-46019766D01*
X71911121Y-46078235D01*
X71911123Y-46078241D01*
X71955434Y-46144556D01*
X71955437Y-46144560D01*
X72021758Y-46188875D01*
X72066220Y-46197719D01*
X72080230Y-46200506D01*
X72080235Y-46200506D01*
X72080241Y-46200508D01*
X72080242Y-46200508D01*
X72419736Y-46200508D01*
X72419737Y-46200508D01*
X72478220Y-46188875D01*
X72544541Y-46144560D01*
X72588856Y-46078239D01*
X72600489Y-46019756D01*
X72600489Y-45658497D01*
X72600490Y-45658495D01*
X72600489Y-45234116D01*
X72619396Y-45175926D01*
X72629479Y-45164119D01*
X72739771Y-45053827D01*
X72794286Y-45026052D01*
X72854718Y-45035623D01*
X72897983Y-45078888D01*
X72907554Y-45139320D01*
X72906871Y-45143147D01*
X72899489Y-45180257D01*
X72899489Y-46019754D01*
X72899490Y-46019766D01*
X72911121Y-46078235D01*
X72911123Y-46078241D01*
X72955434Y-46144556D01*
X72955437Y-46144560D01*
X73021758Y-46188875D01*
X73066220Y-46197719D01*
X73080230Y-46200506D01*
X73080235Y-46200506D01*
X73080241Y-46200508D01*
X73080242Y-46200508D01*
X73419736Y-46200508D01*
X73419737Y-46200508D01*
X73449494Y-46194589D01*
X73480674Y-46188387D01*
X73519304Y-46188387D01*
X73580230Y-46200506D01*
X73580235Y-46200506D01*
X73580241Y-46200508D01*
X73580242Y-46200508D01*
X73919736Y-46200508D01*
X73919737Y-46200508D01*
X73978220Y-46188875D01*
X73978220Y-46188874D01*
X73980673Y-46188387D01*
X74019303Y-46188386D01*
X74021756Y-46188874D01*
X74021758Y-46188875D01*
X74080241Y-46200508D01*
X74080242Y-46200508D01*
X74419736Y-46200508D01*
X74419737Y-46200508D01*
X74449494Y-46194589D01*
X74480674Y-46188387D01*
X74519304Y-46188387D01*
X74580230Y-46200506D01*
X74580235Y-46200506D01*
X74580241Y-46200508D01*
X74580242Y-46200508D01*
X74919736Y-46200508D01*
X74919737Y-46200508D01*
X74978220Y-46188875D01*
X74978220Y-46188874D01*
X74980673Y-46188387D01*
X75019303Y-46188386D01*
X75021756Y-46188874D01*
X75021758Y-46188875D01*
X75080241Y-46200508D01*
X75080242Y-46200508D01*
X75235512Y-46200508D01*
X75293703Y-46219415D01*
X75329667Y-46268915D01*
X75329667Y-46330101D01*
X75305516Y-46369511D01*
X74904525Y-46770503D01*
X74850008Y-46798281D01*
X74834521Y-46799500D01*
X71265164Y-46799500D01*
X71251488Y-46797267D01*
X71251317Y-46798494D01*
X71242233Y-46797226D01*
X71201886Y-46799092D01*
X71194206Y-46799447D01*
X71191930Y-46799500D01*
X71172153Y-46799500D01*
X71168658Y-46800153D01*
X71161845Y-46800943D01*
X71130009Y-46802414D01*
X71121005Y-46806389D01*
X71099226Y-46813132D01*
X71089568Y-46814937D01*
X71089566Y-46814938D01*
X71062471Y-46831714D01*
X71056403Y-46834913D01*
X71027234Y-46847793D01*
X71020280Y-46854747D01*
X71002403Y-46868907D01*
X70994047Y-46874081D01*
X70974842Y-46899512D01*
X70970338Y-46904688D01*
X68527473Y-49347555D01*
X68472956Y-49375332D01*
X68412524Y-49365761D01*
X68369259Y-49322496D01*
X68367416Y-49318678D01*
X68337901Y-49254050D01*
X68325377Y-49226627D01*
X68231128Y-49117857D01*
X68231127Y-49117856D01*
X68231126Y-49117855D01*
X68110057Y-49040049D01*
X68110054Y-49040047D01*
X68110053Y-49040047D01*
X68110050Y-49040046D01*
X67971964Y-48999500D01*
X67971961Y-48999500D01*
X67828039Y-48999500D01*
X67828035Y-48999500D01*
X67689949Y-49040046D01*
X67689942Y-49040049D01*
X67568873Y-49117855D01*
X67474622Y-49226628D01*
X67414834Y-49357543D01*
X67394353Y-49499997D01*
X67394353Y-49500003D01*
X67397441Y-49521482D01*
X67387007Y-49581771D01*
X67369453Y-49605574D01*
X66933590Y-50041437D01*
X66922361Y-50049550D01*
X66923090Y-50050515D01*
X66915771Y-50056041D01*
X66883372Y-50091580D01*
X66881796Y-50093231D01*
X66867830Y-50107198D01*
X66867817Y-50107213D01*
X66865813Y-50110138D01*
X66861561Y-50115504D01*
X66840084Y-50139065D01*
X66840083Y-50139067D01*
X66836529Y-50148240D01*
X66825896Y-50168412D01*
X66820346Y-50176515D01*
X66820342Y-50176524D01*
X66813045Y-50207545D01*
X66811016Y-50214098D01*
X66799500Y-50243824D01*
X66799500Y-50253651D01*
X66796870Y-50276318D01*
X66794620Y-50285880D01*
X66799024Y-50317454D01*
X66799499Y-50324299D01*
X66799500Y-63294835D01*
X66797280Y-63308513D01*
X66798494Y-63308683D01*
X66797226Y-63317766D01*
X66799447Y-63365783D01*
X66799500Y-63368069D01*
X66799500Y-63387842D01*
X66800152Y-63391332D01*
X66800943Y-63398149D01*
X66802414Y-63429987D01*
X66802415Y-63429994D01*
X66806384Y-63438982D01*
X66813133Y-63460773D01*
X66814939Y-63470433D01*
X66831717Y-63497533D01*
X66834915Y-63503600D01*
X66847793Y-63532763D01*
X66847794Y-63532765D01*
X66854745Y-63539716D01*
X66868907Y-63557596D01*
X66874081Y-63565952D01*
X66899511Y-63585156D01*
X66904690Y-63589662D01*
X68867599Y-65552570D01*
X68895376Y-65607087D01*
X68891040Y-65655270D01*
X68864633Y-65730739D01*
X68864632Y-65730742D01*
X68844435Y-65910000D01*
X68864632Y-66089257D01*
X68864633Y-66089261D01*
X68924211Y-66259522D01*
X68924211Y-66259523D01*
X69020181Y-66412258D01*
X69020184Y-66412262D01*
X69147738Y-66539816D01*
X69147740Y-66539817D01*
X69147741Y-66539818D01*
X69285280Y-66626240D01*
X69300478Y-66635789D01*
X69368657Y-66659646D01*
X69470738Y-66695366D01*
X69470742Y-66695367D01*
X69470745Y-66695368D01*
X69526256Y-66701622D01*
X69581963Y-66726926D01*
X69612159Y-66780142D01*
X69605308Y-66840942D01*
X69564028Y-66886104D01*
X69526256Y-66898377D01*
X69495603Y-66901831D01*
X69470742Y-66904632D01*
X69470738Y-66904633D01*
X69300477Y-66964211D01*
X69300476Y-66964211D01*
X69147741Y-67060181D01*
X69020181Y-67187741D01*
X68924211Y-67340476D01*
X68924211Y-67340477D01*
X68864633Y-67510738D01*
X68864632Y-67510742D01*
X68844435Y-67690000D01*
X68864632Y-67869257D01*
X68864633Y-67869261D01*
X68924211Y-68039522D01*
X68924211Y-68039523D01*
X68980526Y-68129147D01*
X69020184Y-68192262D01*
X69147738Y-68319816D01*
X69147740Y-68319817D01*
X69147741Y-68319818D01*
X69289157Y-68408676D01*
X69300478Y-68415789D01*
X69360987Y-68436962D01*
X69470738Y-68475366D01*
X69470742Y-68475367D01*
X69470745Y-68475368D01*
X69650000Y-68495565D01*
X69829255Y-68475368D01*
X69999522Y-68415789D01*
X70152262Y-68319816D01*
X70279816Y-68192262D01*
X70366673Y-68054029D01*
X70413642Y-68014818D01*
X70474689Y-68010702D01*
X70526496Y-68043254D01*
X70549275Y-68100041D01*
X70549499Y-68106701D01*
X70549499Y-71125573D01*
X70549500Y-71125590D01*
X70549500Y-71168995D01*
X70576420Y-71304327D01*
X70576420Y-71304329D01*
X70629222Y-71431806D01*
X70629228Y-71431817D01*
X70705885Y-71546541D01*
X70803457Y-71644113D01*
X70918181Y-71720770D01*
X70918192Y-71720776D01*
X70965282Y-71740281D01*
X71045671Y-71773579D01*
X71181005Y-71800499D01*
X71215878Y-71800499D01*
X71215886Y-71800500D01*
X71227409Y-71800500D01*
X71249999Y-71800500D01*
X71289881Y-71800500D01*
X78700226Y-71800500D01*
X78700326Y-71800509D01*
X78710155Y-71800507D01*
X78710157Y-71800508D01*
X78750039Y-71800500D01*
X78772589Y-71800500D01*
X78774842Y-71800500D01*
X78774905Y-71800495D01*
X78819024Y-71800488D01*
X78954341Y-71773551D01*
X79081804Y-71720739D01*
X79196520Y-71644081D01*
X79294080Y-71546521D01*
X79370739Y-71431806D01*
X79423551Y-71304342D01*
X79450488Y-71169026D01*
X79450495Y-71124906D01*
X79450500Y-71124842D01*
X79450500Y-71099960D01*
X79450508Y-71060158D01*
X79450507Y-71060156D01*
X79450509Y-71049721D01*
X79450499Y-71049616D01*
X79450499Y-65436698D01*
X79469406Y-65378507D01*
X79518906Y-65342543D01*
X79580092Y-65342543D01*
X79629592Y-65378507D01*
X79633325Y-65384027D01*
X79719655Y-65521421D01*
X79720184Y-65522262D01*
X79847738Y-65649816D01*
X79847740Y-65649817D01*
X79847741Y-65649818D01*
X79976535Y-65730745D01*
X80000478Y-65745789D01*
X80068657Y-65769646D01*
X80170738Y-65805366D01*
X80170742Y-65805367D01*
X80170745Y-65805368D01*
X80350000Y-65825565D01*
X80529255Y-65805368D01*
X80699522Y-65745789D01*
X80852262Y-65649816D01*
X80979816Y-65522262D01*
X81017727Y-65461927D01*
X81077482Y-65366829D01*
X81124451Y-65327616D01*
X81161308Y-65320500D01*
X81814836Y-65320500D01*
X81828511Y-65322732D01*
X81828683Y-65321506D01*
X81837764Y-65322772D01*
X81837765Y-65322773D01*
X81837765Y-65322772D01*
X81837766Y-65322773D01*
X81846507Y-65322368D01*
X81885793Y-65320552D01*
X81888070Y-65320500D01*
X81907841Y-65320500D01*
X81907844Y-65320500D01*
X81911337Y-65319846D01*
X81918141Y-65319056D01*
X81949992Y-65317585D01*
X81958976Y-65313617D01*
X81980777Y-65306865D01*
X81990433Y-65305061D01*
X82017543Y-65288274D01*
X82023589Y-65285088D01*
X82052765Y-65272206D01*
X82059709Y-65265260D01*
X82077601Y-65251089D01*
X82085952Y-65245919D01*
X82105165Y-65220474D01*
X82109662Y-65215308D01*
X82231896Y-65093074D01*
X82366405Y-64958564D01*
X82377664Y-64950493D01*
X82376905Y-64949487D01*
X82384221Y-64943961D01*
X82384228Y-64943958D01*
X82416632Y-64908411D01*
X82418186Y-64906783D01*
X82432174Y-64892797D01*
X82434181Y-64889865D01*
X82438440Y-64884490D01*
X82459916Y-64860933D01*
X82463465Y-64851770D01*
X82474106Y-64831582D01*
X82479656Y-64823481D01*
X82486955Y-64792443D01*
X82488977Y-64785914D01*
X82500500Y-64756173D01*
X82500500Y-64746348D01*
X82503129Y-64723683D01*
X82505379Y-64714119D01*
X82500975Y-64682546D01*
X82500500Y-64675699D01*
X82500500Y-64224394D01*
X82519407Y-64166203D01*
X82557662Y-64134669D01*
X82580404Y-64124065D01*
X82664065Y-64040404D01*
X82714068Y-63933173D01*
X82720500Y-63884316D01*
X82720500Y-63535684D01*
X82714068Y-63486827D01*
X82706423Y-63470433D01*
X82664066Y-63379598D01*
X82664065Y-63379597D01*
X82664065Y-63379596D01*
X82580404Y-63295935D01*
X82567085Y-63289724D01*
X82522337Y-63247997D01*
X82510662Y-63187936D01*
X82536519Y-63132483D01*
X82567084Y-63110275D01*
X82580404Y-63104065D01*
X82664065Y-63020404D01*
X82714068Y-62913173D01*
X82720500Y-62864316D01*
X82720500Y-62515684D01*
X82714068Y-62466827D01*
X82708381Y-62454632D01*
X82664066Y-62359598D01*
X82664065Y-62359597D01*
X82664065Y-62359596D01*
X82580404Y-62275935D01*
X82580402Y-62275934D01*
X82579496Y-62275028D01*
X82551719Y-62220511D01*
X82550500Y-62205024D01*
X82550500Y-60593295D01*
X82569407Y-60535104D01*
X82579490Y-60523297D01*
X86414884Y-56687902D01*
X86430734Y-56675032D01*
X86440669Y-56668543D01*
X86461338Y-56641985D01*
X86465388Y-56637398D01*
X86468375Y-56634413D01*
X86477050Y-56622262D01*
X86481041Y-56616672D01*
X86512516Y-56576233D01*
X86516008Y-56569779D01*
X86519237Y-56563175D01*
X86519237Y-56563174D01*
X86519239Y-56563172D01*
X86533856Y-56514072D01*
X86550500Y-56465594D01*
X86550500Y-56465590D01*
X86551706Y-56458365D01*
X86552617Y-56451060D01*
X86550500Y-56399875D01*
X86550500Y-49746618D01*
X86552607Y-49726302D01*
X86552617Y-49726253D01*
X86555043Y-49714685D01*
X86550879Y-49681288D01*
X86550500Y-49675162D01*
X86550500Y-49670961D01*
X86547933Y-49655583D01*
X86546911Y-49649457D01*
X86540573Y-49598608D01*
X86540572Y-49598606D01*
X86540572Y-49598603D01*
X86538480Y-49591577D01*
X86536091Y-49584616D01*
X86511699Y-49539545D01*
X86489198Y-49493516D01*
X86484930Y-49487538D01*
X86480420Y-49481744D01*
X86442712Y-49447030D01*
X85159534Y-48163851D01*
X85156762Y-48160840D01*
X85129658Y-48128839D01*
X85127551Y-48127584D01*
X85108225Y-48112543D01*
X83509533Y-46513851D01*
X83506761Y-46510839D01*
X83490017Y-46491070D01*
X83479660Y-46478841D01*
X83479659Y-46478840D01*
X83477549Y-46477583D01*
X83458222Y-46462541D01*
X82380801Y-45385119D01*
X82367925Y-45369262D01*
X82361437Y-45359331D01*
X82334885Y-45338665D01*
X82330283Y-45334601D01*
X82327307Y-45331625D01*
X82309560Y-45318954D01*
X82269128Y-45287484D01*
X82262677Y-45283993D01*
X82256068Y-45280761D01*
X82256066Y-45280760D01*
X82206954Y-45266138D01*
X82158488Y-45249500D01*
X82158485Y-45249499D01*
X82151260Y-45248293D01*
X82143955Y-45247383D01*
X82143954Y-45247383D01*
X82143952Y-45247383D01*
X82092769Y-45249500D01*
X80416540Y-45249500D01*
X80412451Y-45249331D01*
X80370657Y-45245868D01*
X80370652Y-45245868D01*
X80368279Y-45246470D01*
X80343975Y-45249500D01*
X79803759Y-45249500D01*
X79745568Y-45230593D01*
X79736596Y-45222359D01*
X79736480Y-45222494D01*
X79731128Y-45217856D01*
X79610057Y-45140049D01*
X79610054Y-45140047D01*
X79610053Y-45140047D01*
X79607577Y-45139320D01*
X79471964Y-45099500D01*
X79471961Y-45099500D01*
X79328039Y-45099500D01*
X79328035Y-45099500D01*
X79189949Y-45140046D01*
X79189942Y-45140049D01*
X79068873Y-45217855D01*
X78974622Y-45326628D01*
X78914834Y-45457543D01*
X78894353Y-45599997D01*
X78894353Y-45600002D01*
X78914834Y-45742456D01*
X78940886Y-45799501D01*
X78974623Y-45873373D01*
X79068872Y-45982143D01*
X79068873Y-45982144D01*
X79189942Y-46059950D01*
X79189947Y-46059953D01*
X79280812Y-46086633D01*
X79328035Y-46100499D01*
X79328036Y-46100499D01*
X79328039Y-46100500D01*
X79328041Y-46100500D01*
X79471959Y-46100500D01*
X79471961Y-46100500D01*
X79610053Y-46059953D01*
X79731128Y-45982143D01*
X79736480Y-45977506D01*
X79737968Y-45979223D01*
X79781341Y-45953072D01*
X79803759Y-45950500D01*
X79906024Y-45950500D01*
X79964215Y-45969407D01*
X80000179Y-46018907D01*
X80000179Y-46080093D01*
X79976029Y-46119501D01*
X79950975Y-46144556D01*
X79935933Y-46159598D01*
X79885932Y-46266824D01*
X79885932Y-46266825D01*
X79879500Y-46315685D01*
X79879500Y-46664314D01*
X79879499Y-46664314D01*
X79885932Y-46713174D01*
X79885932Y-46713175D01*
X79935933Y-46820401D01*
X79935934Y-46820402D01*
X79935935Y-46820404D01*
X80019596Y-46904065D01*
X80019597Y-46904065D01*
X80019598Y-46904066D01*
X80032915Y-46910276D01*
X80077663Y-46952005D01*
X80089337Y-47012066D01*
X80063478Y-47067518D01*
X80032915Y-47089724D01*
X80019598Y-47095933D01*
X79935933Y-47179598D01*
X79885932Y-47286824D01*
X79885932Y-47286825D01*
X79879500Y-47335685D01*
X79879500Y-47684314D01*
X79879499Y-47684314D01*
X79885932Y-47733174D01*
X79885932Y-47733175D01*
X79935933Y-47840401D01*
X79935934Y-47840402D01*
X79935935Y-47840404D01*
X80019596Y-47924065D01*
X80042337Y-47934669D01*
X80087086Y-47976396D01*
X80099500Y-48024394D01*
X80099500Y-48234520D01*
X80080593Y-48292711D01*
X80070504Y-48304524D01*
X79404525Y-48970504D01*
X79350008Y-48998281D01*
X79334521Y-48999500D01*
X77847083Y-48999500D01*
X77788892Y-48980593D01*
X77772264Y-48965331D01*
X77753362Y-48943517D01*
X77731128Y-48917857D01*
X77659778Y-48872003D01*
X77604097Y-48836219D01*
X77605713Y-48833703D01*
X77570095Y-48801010D01*
X77557948Y-48741042D01*
X77583368Y-48685388D01*
X77628411Y-48657343D01*
X77628714Y-48657254D01*
X77628716Y-48657254D01*
X77766808Y-48616707D01*
X77887883Y-48538897D01*
X77982132Y-48430127D01*
X78041920Y-48299211D01*
X78058752Y-48182143D01*
X78062402Y-48156756D01*
X78062402Y-48156751D01*
X78041920Y-48014297D01*
X78009111Y-47942456D01*
X77982132Y-47883381D01*
X77887883Y-47774611D01*
X77769914Y-47698797D01*
X77764868Y-47695554D01*
X77726137Y-47648188D01*
X77722645Y-47587102D01*
X77748386Y-47542268D01*
X77916394Y-47374260D01*
X77927653Y-47366189D01*
X77926894Y-47365183D01*
X77934210Y-47359657D01*
X77934217Y-47359654D01*
X77966621Y-47324107D01*
X77968175Y-47322479D01*
X77982163Y-47308493D01*
X77984170Y-47305561D01*
X77988429Y-47300186D01*
X78009905Y-47276629D01*
X78013454Y-47267466D01*
X78024095Y-47247278D01*
X78029645Y-47239177D01*
X78036944Y-47208139D01*
X78038966Y-47201610D01*
X78050489Y-47171869D01*
X78050489Y-47162044D01*
X78053118Y-47139379D01*
X78055368Y-47129815D01*
X78050964Y-47098242D01*
X78050489Y-47091395D01*
X78050489Y-46165689D01*
X78067173Y-46110689D01*
X78088856Y-46078239D01*
X78100489Y-46019756D01*
X78100489Y-45180260D01*
X78088856Y-45121777D01*
X78087647Y-45119967D01*
X78067185Y-45089344D01*
X78050500Y-45034342D01*
X78050500Y-42306533D01*
X78060623Y-42275375D01*
X78059594Y-42274262D01*
X78050500Y-42232815D01*
X78050500Y-41423319D01*
X78069407Y-41365128D01*
X78118907Y-41329164D01*
X78180093Y-41329164D01*
X78219504Y-41353315D01*
G37*
%TD.AperFunction*%
%TA.AperFunction,Conductor*%
G36*
X60168868Y-67982141D02*
G01*
X60188013Y-68011864D01*
X62110738Y-72653727D01*
X62140514Y-72725614D01*
X62140517Y-72725620D01*
X62156187Y-72743967D01*
X62165311Y-72756526D01*
X62177917Y-72777097D01*
X62196254Y-72792758D01*
X62207239Y-72803743D01*
X62222906Y-72822086D01*
X62222912Y-72822092D01*
X62243478Y-72834694D01*
X62256043Y-72843822D01*
X62274379Y-72859482D01*
X62274387Y-72859489D01*
X62300493Y-72870303D01*
X62303869Y-72871701D01*
X62303872Y-72871703D01*
X63952448Y-73554564D01*
X63998973Y-73594301D01*
X64013257Y-73653795D01*
X64006026Y-73683914D01*
X63654523Y-74532520D01*
X63616252Y-74578129D01*
X63609169Y-74582641D01*
X63520640Y-74663763D01*
X63495630Y-74707084D01*
X63334985Y-75094917D01*
X63322037Y-75143233D01*
X63327275Y-75263199D01*
X63327276Y-75263204D01*
X63370621Y-75367848D01*
X63373226Y-75374137D01*
X63454351Y-75462670D01*
X63497664Y-75487676D01*
X63662590Y-75555990D01*
X63830071Y-75625363D01*
X63830074Y-75625363D01*
X63830077Y-75625365D01*
X63878388Y-75638311D01*
X63998353Y-75633073D01*
X64029351Y-75620232D01*
X64090347Y-75615432D01*
X64105122Y-75620233D01*
X64165442Y-75645218D01*
X64279234Y-75692352D01*
X64325760Y-75732088D01*
X64340044Y-75791583D01*
X64332814Y-75821700D01*
X64325065Y-75840406D01*
X64313433Y-75898888D01*
X64313432Y-75898888D01*
X64329098Y-75977646D01*
X64321906Y-76038407D01*
X64287001Y-76079275D01*
X64220236Y-76123885D01*
X64220230Y-76123891D01*
X64187107Y-76173463D01*
X64131520Y-76307661D01*
X64091783Y-76354187D01*
X64032288Y-76368470D01*
X64002170Y-76361239D01*
X62076740Y-75563700D01*
X62030215Y-75523963D01*
X62023162Y-75510122D01*
X59932196Y-70462077D01*
X59927396Y-70401082D01*
X59959366Y-70348913D01*
X59985766Y-70332733D01*
X60119969Y-70277146D01*
X60119972Y-70277143D01*
X60119974Y-70277143D01*
X60154689Y-70253947D01*
X60169549Y-70244018D01*
X60213863Y-70177696D01*
X60224426Y-70124597D01*
X60229425Y-70099467D01*
X60229425Y-70099466D01*
X60217793Y-70040985D01*
X60217792Y-70040982D01*
X59578649Y-68497957D01*
X59573849Y-68436962D01*
X59605819Y-68384793D01*
X59632227Y-68368609D01*
X59632692Y-68368416D01*
X59632693Y-68368417D01*
X59705616Y-68338210D01*
X59834363Y-68246858D01*
X59939555Y-68129147D01*
X60009902Y-68001861D01*
X60054597Y-67960078D01*
X60115317Y-67952545D01*
X60168868Y-67982141D01*
G37*
%TD.AperFunction*%
%TA.AperFunction,Conductor*%
G36*
X90821699Y-70667196D02*
G01*
X90840407Y-70674945D01*
X90898890Y-70686578D01*
X90977121Y-70671017D01*
X90977121Y-70671016D01*
X90977647Y-70670912D01*
X91038408Y-70678104D01*
X91079277Y-70713009D01*
X91079574Y-70713454D01*
X91079575Y-70713455D01*
X91123889Y-70779777D01*
X91123892Y-70779779D01*
X91123893Y-70779780D01*
X91173466Y-70812903D01*
X91173468Y-70812905D01*
X91247120Y-70843412D01*
X91307658Y-70868487D01*
X91354184Y-70908223D01*
X91368468Y-70967718D01*
X91361237Y-70997837D01*
X90563699Y-72923261D01*
X90523962Y-72969786D01*
X90510121Y-72976839D01*
X85462082Y-75067808D01*
X85401085Y-75072609D01*
X85348916Y-75040639D01*
X85332732Y-75014229D01*
X85326840Y-75000005D01*
X85299330Y-74933587D01*
X85277148Y-74880034D01*
X85277146Y-74880032D01*
X85244023Y-74830459D01*
X85244022Y-74830458D01*
X85244020Y-74830455D01*
X85208592Y-74806783D01*
X85177699Y-74786141D01*
X85177695Y-74786140D01*
X85099469Y-74770579D01*
X85099467Y-74770579D01*
X85080062Y-74774438D01*
X85040985Y-74782211D01*
X83497961Y-75421353D01*
X83436964Y-75426154D01*
X83384795Y-75394184D01*
X83368611Y-75367775D01*
X83338214Y-75294390D01*
X83252709Y-75173882D01*
X83246861Y-75165640D01*
X83129151Y-75060448D01*
X83129148Y-75060446D01*
X83129145Y-75060444D01*
X83045524Y-75014229D01*
X83001859Y-74990096D01*
X82960076Y-74945401D01*
X82952543Y-74884681D01*
X82982140Y-74831130D01*
X83011858Y-74811988D01*
X87696136Y-72871697D01*
X87696136Y-72871696D01*
X87705140Y-72867967D01*
X87705143Y-72867964D01*
X87725620Y-72859484D01*
X87743960Y-72843818D01*
X87756530Y-72834686D01*
X87777097Y-72822084D01*
X87792762Y-72803740D01*
X87803746Y-72792756D01*
X87822090Y-72777091D01*
X87834697Y-72756515D01*
X87843819Y-72743959D01*
X87859490Y-72725614D01*
X87871703Y-72696130D01*
X88554566Y-71047551D01*
X88594302Y-71001028D01*
X88653796Y-70986744D01*
X88683910Y-70993973D01*
X89524841Y-71342300D01*
X89532528Y-71345484D01*
X89578136Y-71383753D01*
X89582641Y-71390824D01*
X89582642Y-71390825D01*
X89582643Y-71390827D01*
X89663767Y-71479359D01*
X89707080Y-71504365D01*
X90094926Y-71665015D01*
X90143236Y-71677961D01*
X90263202Y-71672723D01*
X90374139Y-71626772D01*
X90462672Y-71545647D01*
X90487678Y-71502334D01*
X90625367Y-71169921D01*
X90638313Y-71121610D01*
X90633075Y-71001645D01*
X90620233Y-70970644D01*
X90615433Y-70909651D01*
X90620229Y-70894890D01*
X90692351Y-70720772D01*
X90732087Y-70674248D01*
X90791582Y-70659965D01*
X90821699Y-70667196D01*
G37*
%TD.AperFunction*%
%TA.AperFunction,Conductor*%
G36*
X94329603Y-56181094D02*
G01*
X94345787Y-56207504D01*
X94611723Y-56849530D01*
X95128826Y-58097928D01*
X95143323Y-58132925D01*
X95148124Y-58193922D01*
X95143323Y-58208697D01*
X93052353Y-63256744D01*
X93012616Y-63303269D01*
X92953122Y-63317553D01*
X92923004Y-63310322D01*
X92788814Y-63254740D01*
X92788804Y-63254738D01*
X92730331Y-63243107D01*
X92730330Y-63243107D01*
X92652100Y-63258667D01*
X92652099Y-63258667D01*
X92585781Y-63302980D01*
X92585775Y-63302986D01*
X92552652Y-63352558D01*
X91913500Y-64895606D01*
X91873763Y-64942131D01*
X91814268Y-64956415D01*
X91784150Y-64949184D01*
X91710764Y-64918785D01*
X91572879Y-64895357D01*
X91555135Y-64892342D01*
X91555134Y-64892342D01*
X91555130Y-64892341D01*
X91397527Y-64901191D01*
X91397514Y-64901193D01*
X91257762Y-64941454D01*
X91196612Y-64939394D01*
X91148351Y-64901784D01*
X91131413Y-64842990D01*
X91138891Y-64808443D01*
X93079192Y-60124150D01*
X93079192Y-60124148D01*
X93082923Y-60115141D01*
X93082925Y-60115135D01*
X93091404Y-60094666D01*
X93091405Y-60094664D01*
X93093297Y-60070616D01*
X93095728Y-60055269D01*
X93098428Y-60044027D01*
X93101359Y-60031819D01*
X93099466Y-60007763D01*
X93099466Y-59992237D01*
X93101359Y-59968189D01*
X93095725Y-59944726D01*
X93093297Y-59929388D01*
X93091405Y-59905346D01*
X93091404Y-59905344D01*
X93079772Y-59877261D01*
X93079764Y-59877239D01*
X93079193Y-59875861D01*
X93079193Y-59875859D01*
X92396326Y-58227276D01*
X92391526Y-58166281D01*
X92423496Y-58114112D01*
X92449901Y-58097930D01*
X93298508Y-57746424D01*
X93357821Y-57741236D01*
X93366019Y-57743052D01*
X93366022Y-57743054D01*
X93485988Y-57748292D01*
X93534297Y-57735348D01*
X93922142Y-57574696D01*
X93965457Y-57549690D01*
X94046581Y-57461158D01*
X94092533Y-57350220D01*
X94097771Y-57230255D01*
X94084827Y-57181945D01*
X93947136Y-56849533D01*
X93922130Y-56806218D01*
X93833597Y-56725093D01*
X93833595Y-56725092D01*
X93833594Y-56725091D01*
X93833595Y-56725091D01*
X93802595Y-56712251D01*
X93756070Y-56672514D01*
X93749017Y-56658673D01*
X93742108Y-56641993D01*
X93676899Y-56484566D01*
X93672099Y-56423571D01*
X93704069Y-56371402D01*
X93730475Y-56355220D01*
X93749185Y-56347471D01*
X93749193Y-56347465D01*
X93749196Y-56347464D01*
X93774302Y-56330688D01*
X93798765Y-56314343D01*
X93843079Y-56248021D01*
X93843079Y-56248020D01*
X93843376Y-56247576D01*
X93891425Y-56209696D01*
X93945006Y-56205478D01*
X93945532Y-56205582D01*
X93945533Y-56205583D01*
X94023764Y-56221144D01*
X94082247Y-56209511D01*
X94216440Y-56153925D01*
X94277433Y-56149125D01*
X94329603Y-56181094D01*
G37*
%TD.AperFunction*%
%TA.AperFunction,Conductor*%
G36*
X58215859Y-55050813D02*
G01*
X58239475Y-55060595D01*
X58289244Y-55081210D01*
X58289246Y-55081210D01*
X58289248Y-55081211D01*
X58340095Y-55089849D01*
X58444874Y-55107652D01*
X58602487Y-55098800D01*
X58742247Y-55058536D01*
X58803396Y-55060595D01*
X58851658Y-55098205D01*
X58868596Y-55156999D01*
X58861116Y-55191553D01*
X56920582Y-59876420D01*
X56908602Y-59905344D01*
X56908602Y-59905345D01*
X56906709Y-59929395D01*
X56904279Y-59944733D01*
X56898647Y-59968190D01*
X56900540Y-59992239D01*
X56900540Y-60007768D01*
X56898752Y-60030500D01*
X56898648Y-60031821D01*
X56898649Y-60031825D01*
X56904279Y-60055279D01*
X56906708Y-60070615D01*
X56908602Y-60094666D01*
X56920812Y-60124145D01*
X56920814Y-60124151D01*
X57603677Y-61772727D01*
X57608478Y-61833724D01*
X57576508Y-61885893D01*
X57550099Y-61902077D01*
X56701502Y-62253579D01*
X56642190Y-62258769D01*
X56633985Y-62256950D01*
X56514020Y-62251712D01*
X56514017Y-62251712D01*
X56465713Y-62264655D01*
X56465711Y-62264655D01*
X56465710Y-62264656D01*
X56236502Y-62359598D01*
X56077865Y-62425308D01*
X56034551Y-62450313D01*
X56034550Y-62450313D01*
X56034550Y-62450314D01*
X56019421Y-62466825D01*
X55953424Y-62538848D01*
X55907474Y-62649781D01*
X55907474Y-62649783D01*
X55903634Y-62737741D01*
X55902236Y-62769749D01*
X55915180Y-62818059D01*
X56042391Y-63125171D01*
X56052872Y-63150473D01*
X56073001Y-63185341D01*
X56077877Y-63193786D01*
X56166410Y-63274911D01*
X56197414Y-63287753D01*
X56243939Y-63327488D01*
X56250993Y-63341331D01*
X56255644Y-63352560D01*
X56323109Y-63515436D01*
X56327910Y-63576432D01*
X56295940Y-63628601D01*
X56269535Y-63644783D01*
X56250825Y-63652533D01*
X56250821Y-63652536D01*
X56201248Y-63685659D01*
X56201242Y-63685665D01*
X56156632Y-63752430D01*
X56108582Y-63790310D01*
X56055003Y-63794527D01*
X55976246Y-63778862D01*
X55976245Y-63778862D01*
X55917762Y-63790495D01*
X55917760Y-63790495D01*
X55783570Y-63846078D01*
X55722573Y-63850878D01*
X55670404Y-63818909D01*
X55654221Y-63792500D01*
X54856678Y-61867073D01*
X54851878Y-61806078D01*
X54856674Y-61791317D01*
X56947649Y-56743259D01*
X56987385Y-56696736D01*
X57046879Y-56682452D01*
X57076994Y-56689682D01*
X57211191Y-56745268D01*
X57269674Y-56756901D01*
X57347905Y-56741340D01*
X57414226Y-56697026D01*
X57447354Y-56647446D01*
X58016686Y-55272958D01*
X58086509Y-55104391D01*
X58126246Y-55057866D01*
X58185740Y-55043582D01*
X58215859Y-55050813D01*
G37*
%TD.AperFunction*%
%TA.AperFunction,Conductor*%
G36*
X81972001Y-45969407D02*
G01*
X81983813Y-45979495D01*
X82684313Y-46679996D01*
X82712090Y-46734512D01*
X82702519Y-46794944D01*
X82684313Y-46820003D01*
X82405118Y-47099198D01*
X82389265Y-47112071D01*
X82379335Y-47118559D01*
X82379332Y-47118561D01*
X82358664Y-47145114D01*
X82354605Y-47149712D01*
X82351619Y-47152698D01*
X82338955Y-47170437D01*
X82307483Y-47210874D01*
X82303981Y-47217343D01*
X82300758Y-47223936D01*
X82286138Y-47273045D01*
X82269499Y-47321512D01*
X82268293Y-47328743D01*
X82267383Y-47336047D01*
X82269500Y-47387231D01*
X82269500Y-47572250D01*
X82250593Y-47630441D01*
X82228691Y-47652342D01*
X82198123Y-47674551D01*
X82198118Y-47674554D01*
X82198117Y-47674556D01*
X82186946Y-47684316D01*
X82170372Y-47698797D01*
X82123464Y-47777307D01*
X82123462Y-47777310D01*
X82104556Y-47835499D01*
X82094500Y-47898996D01*
X82094500Y-47899000D01*
X82094500Y-50300999D01*
X82095795Y-50317454D01*
X82097030Y-50333141D01*
X82097030Y-50333142D01*
X82101875Y-50363737D01*
X82102647Y-50368283D01*
X82102647Y-50368285D01*
X82138591Y-50452381D01*
X82139369Y-50453452D01*
X82174556Y-50501882D01*
X82198797Y-50529627D01*
X82277307Y-50576535D01*
X82335498Y-50595442D01*
X82347552Y-50597351D01*
X82398996Y-50605499D01*
X82399000Y-50605499D01*
X82900996Y-50605499D01*
X82901000Y-50605499D01*
X82933144Y-50602969D01*
X82948440Y-50600546D01*
X82963738Y-50598124D01*
X82964874Y-50597930D01*
X82968287Y-50597351D01*
X83052383Y-50561407D01*
X83101883Y-50525443D01*
X83129628Y-50501202D01*
X83176536Y-50422692D01*
X83195443Y-50364501D01*
X83205500Y-50300999D01*
X83205500Y-47899000D01*
X83202970Y-47866856D01*
X83198125Y-47836263D01*
X83197995Y-47835498D01*
X83197353Y-47831714D01*
X83197352Y-47831713D01*
X83161408Y-47747617D01*
X83150915Y-47733175D01*
X83125444Y-47698117D01*
X83101203Y-47670372D01*
X83048013Y-47638592D01*
X83037553Y-47632342D01*
X82997297Y-47586264D01*
X82991814Y-47525325D01*
X83018326Y-47477354D01*
X83179997Y-47315684D01*
X83234512Y-47287908D01*
X83294944Y-47297479D01*
X83320003Y-47315685D01*
X84334144Y-48329826D01*
X84361921Y-48384343D01*
X84352350Y-48444775D01*
X84318293Y-48482706D01*
X84309334Y-48488559D01*
X84309332Y-48488561D01*
X84288664Y-48515114D01*
X84284605Y-48519712D01*
X84281619Y-48522698D01*
X84268955Y-48540437D01*
X84237483Y-48580874D01*
X84233981Y-48587343D01*
X84230758Y-48593936D01*
X84216138Y-48643045D01*
X84199499Y-48691512D01*
X84198293Y-48698743D01*
X84197383Y-48706047D01*
X84199500Y-48757231D01*
X84199500Y-48813812D01*
X84180593Y-48872003D01*
X84170509Y-48883809D01*
X84136465Y-48917854D01*
X84110801Y-48943518D01*
X84059427Y-49048604D01*
X84059427Y-49048607D01*
X84049500Y-49116740D01*
X84049500Y-50208260D01*
X84054682Y-50243824D01*
X84059427Y-50276395D01*
X84102499Y-50364499D01*
X84110802Y-50381483D01*
X84193517Y-50464198D01*
X84247285Y-50490483D01*
X84298604Y-50515572D01*
X84298605Y-50515572D01*
X84298607Y-50515573D01*
X84366740Y-50525500D01*
X84366743Y-50525500D01*
X84733257Y-50525500D01*
X84733260Y-50525500D01*
X84801393Y-50515573D01*
X84906483Y-50464198D01*
X84989198Y-50381483D01*
X85040573Y-50276393D01*
X85050500Y-50208260D01*
X85050500Y-49285190D01*
X85069407Y-49226999D01*
X85118907Y-49191035D01*
X85180093Y-49191035D01*
X85219504Y-49215186D01*
X85820504Y-49816186D01*
X85848281Y-49870703D01*
X85849500Y-49886190D01*
X85849500Y-56220915D01*
X85830593Y-56279106D01*
X85820504Y-56290919D01*
X84319504Y-57791920D01*
X84264987Y-57819697D01*
X84204555Y-57810126D01*
X84161290Y-57766861D01*
X84150500Y-57721916D01*
X84150500Y-55546618D01*
X84152607Y-55526302D01*
X84152617Y-55526253D01*
X84155043Y-55514685D01*
X84150879Y-55481288D01*
X84150500Y-55475162D01*
X84150500Y-55470959D01*
X84146912Y-55449459D01*
X84143506Y-55422138D01*
X84140573Y-55398607D01*
X84140572Y-55398605D01*
X84140572Y-55398603D01*
X84138479Y-55391575D01*
X84136091Y-55384616D01*
X84111704Y-55339554D01*
X84089198Y-55293515D01*
X84084948Y-55287562D01*
X84080418Y-55281742D01*
X84042724Y-55247041D01*
X83970186Y-55174504D01*
X83942409Y-55119987D01*
X83951980Y-55059555D01*
X83995245Y-55016290D01*
X84040190Y-55005500D01*
X84300996Y-55005500D01*
X84301000Y-55005500D01*
X84333144Y-55002970D01*
X84348440Y-55000547D01*
X84363738Y-54998125D01*
X84364874Y-54997931D01*
X84368287Y-54997352D01*
X84452383Y-54961408D01*
X84501883Y-54925444D01*
X84529628Y-54901203D01*
X84529629Y-54901200D01*
X84535494Y-54896077D01*
X84537517Y-54898392D01*
X84577640Y-54873162D01*
X84638688Y-54877255D01*
X84676417Y-54904014D01*
X84695141Y-54925444D01*
X84698797Y-54929628D01*
X84777307Y-54976536D01*
X84835498Y-54995443D01*
X84847552Y-54997352D01*
X84898996Y-55005500D01*
X84899000Y-55005500D01*
X85300996Y-55005500D01*
X85301000Y-55005500D01*
X85333144Y-55002970D01*
X85348440Y-55000547D01*
X85363738Y-54998125D01*
X85364874Y-54997931D01*
X85368287Y-54997352D01*
X85452383Y-54961408D01*
X85501883Y-54925444D01*
X85529628Y-54901203D01*
X85576536Y-54822693D01*
X85595443Y-54764502D01*
X85601265Y-54727741D01*
X85605500Y-54701003D01*
X85605500Y-51299004D01*
X85605499Y-51298996D01*
X85602970Y-51266856D01*
X85600547Y-51251559D01*
X85598125Y-51236262D01*
X85597353Y-51231714D01*
X85597352Y-51231713D01*
X85561408Y-51147617D01*
X85552123Y-51134837D01*
X85525444Y-51098117D01*
X85501203Y-51070372D01*
X85422693Y-51023464D01*
X85422691Y-51023463D01*
X85422689Y-51023462D01*
X85364499Y-51004556D01*
X85364500Y-51004556D01*
X85301003Y-50994500D01*
X85301000Y-50994500D01*
X84299000Y-50994500D01*
X84266856Y-50997030D01*
X84251559Y-50999452D01*
X84236262Y-51001875D01*
X84231715Y-51002647D01*
X84231713Y-51002647D01*
X84147617Y-51038591D01*
X84098118Y-51074555D01*
X84070372Y-51098797D01*
X84023464Y-51177307D01*
X84023462Y-51177310D01*
X84004556Y-51235499D01*
X83994500Y-51298996D01*
X83994500Y-51298999D01*
X83994500Y-51299000D01*
X83994500Y-52601000D01*
X83995471Y-52613336D01*
X83997030Y-52633142D01*
X83997030Y-52633143D01*
X84001875Y-52663738D01*
X84002647Y-52668284D01*
X84002647Y-52668286D01*
X84038591Y-52752382D01*
X84038592Y-52752383D01*
X84074556Y-52801883D01*
X84098797Y-52829628D01*
X84177307Y-52876536D01*
X84235498Y-52895443D01*
X84247552Y-52897352D01*
X84298996Y-52905500D01*
X84299000Y-52905500D01*
X84495499Y-52905500D01*
X84553690Y-52924407D01*
X84589654Y-52973907D01*
X84594499Y-53004500D01*
X84594499Y-53751639D01*
X84575592Y-53809830D01*
X84526092Y-53845794D01*
X84464906Y-53845794D01*
X84444723Y-53836626D01*
X84426720Y-53825870D01*
X84422693Y-53823464D01*
X84422691Y-53823463D01*
X84422689Y-53823462D01*
X84364499Y-53804556D01*
X84364500Y-53804556D01*
X84301003Y-53794500D01*
X84301000Y-53794500D01*
X82804500Y-53794500D01*
X82746309Y-53775593D01*
X82710345Y-53726093D01*
X82705500Y-53695500D01*
X82705499Y-53004500D01*
X82724406Y-52946309D01*
X82773906Y-52910345D01*
X82804499Y-52905500D01*
X82900996Y-52905500D01*
X82901000Y-52905500D01*
X82933144Y-52902970D01*
X82948440Y-52900547D01*
X82963738Y-52898125D01*
X82964874Y-52897931D01*
X82968287Y-52897352D01*
X83052383Y-52861408D01*
X83101883Y-52825444D01*
X83129628Y-52801203D01*
X83176536Y-52722693D01*
X83195443Y-52664502D01*
X83200410Y-52633142D01*
X83205500Y-52601003D01*
X83205500Y-51349004D01*
X83205258Y-51345934D01*
X83202970Y-51316856D01*
X83198125Y-51286263D01*
X83197352Y-51281713D01*
X83161408Y-51197617D01*
X83125444Y-51148117D01*
X83101203Y-51120372D01*
X83022693Y-51073464D01*
X83022691Y-51073463D01*
X83022689Y-51073462D01*
X82964499Y-51054556D01*
X82964500Y-51054556D01*
X82901003Y-51044500D01*
X82901000Y-51044500D01*
X81899000Y-51044500D01*
X81866856Y-51047030D01*
X81866848Y-51047031D01*
X81866850Y-51047031D01*
X81863013Y-51047638D01*
X81802583Y-51038055D01*
X81759326Y-50994783D01*
X81749766Y-50934349D01*
X81757816Y-50908023D01*
X81774068Y-50873173D01*
X81780500Y-50824316D01*
X81780500Y-50375684D01*
X81774068Y-50326827D01*
X81772889Y-50324299D01*
X81724066Y-50219598D01*
X81724065Y-50219597D01*
X81724065Y-50219596D01*
X81640404Y-50135935D01*
X81640402Y-50135934D01*
X81640401Y-50135933D01*
X81533175Y-50085932D01*
X81500601Y-50081644D01*
X81484316Y-50079500D01*
X81135684Y-50079500D01*
X81119398Y-50081644D01*
X81086825Y-50085932D01*
X81086824Y-50085932D01*
X80979598Y-50135933D01*
X80895933Y-50219598D01*
X80889724Y-50232915D01*
X80847995Y-50277663D01*
X80787934Y-50289337D01*
X80732482Y-50263478D01*
X80710276Y-50232915D01*
X80704066Y-50219598D01*
X80704065Y-50219597D01*
X80704065Y-50219596D01*
X80620404Y-50135935D01*
X80620402Y-50135934D01*
X80620401Y-50135933D01*
X80513175Y-50085932D01*
X80480601Y-50081644D01*
X80464316Y-50079500D01*
X80115684Y-50079500D01*
X80099398Y-50081644D01*
X80066825Y-50085932D01*
X80066824Y-50085932D01*
X79959598Y-50135933D01*
X79875933Y-50219598D01*
X79865329Y-50242340D01*
X79823601Y-50287088D01*
X79775605Y-50299500D01*
X76077987Y-50299500D01*
X76019796Y-50280593D01*
X75983832Y-50231093D01*
X75983832Y-50169907D01*
X76007983Y-50130496D01*
X76372007Y-49766472D01*
X76747481Y-49390997D01*
X76801996Y-49363222D01*
X76862428Y-49372793D01*
X76905693Y-49416058D01*
X76911987Y-49435911D01*
X76912839Y-49435662D01*
X76914833Y-49442455D01*
X76961785Y-49545263D01*
X76974623Y-49573373D01*
X77065491Y-49678241D01*
X77068873Y-49682144D01*
X77169197Y-49746618D01*
X77189947Y-49759953D01*
X77296403Y-49791211D01*
X77328035Y-49800499D01*
X77328036Y-49800499D01*
X77328039Y-49800500D01*
X77328041Y-49800500D01*
X77471959Y-49800500D01*
X77471961Y-49800500D01*
X77610053Y-49759953D01*
X77731128Y-49682143D01*
X77772264Y-49634668D01*
X77824660Y-49603073D01*
X77847083Y-49600500D01*
X79434836Y-49600500D01*
X79448511Y-49602732D01*
X79448683Y-49601506D01*
X79457764Y-49602772D01*
X79457765Y-49602773D01*
X79457765Y-49602772D01*
X79457766Y-49602773D01*
X79466507Y-49602368D01*
X79505793Y-49600552D01*
X79508070Y-49600500D01*
X79527841Y-49600500D01*
X79527844Y-49600500D01*
X79531337Y-49599846D01*
X79538141Y-49599056D01*
X79569992Y-49597585D01*
X79578976Y-49593617D01*
X79600777Y-49586865D01*
X79610433Y-49585061D01*
X79637543Y-49568274D01*
X79643589Y-49565088D01*
X79672765Y-49552206D01*
X79679709Y-49545260D01*
X79697601Y-49531089D01*
X79705952Y-49525919D01*
X79725165Y-49500474D01*
X79729662Y-49495308D01*
X80134619Y-49090351D01*
X80566405Y-48658564D01*
X80577664Y-48650493D01*
X80576905Y-48649487D01*
X80584221Y-48643961D01*
X80584228Y-48643958D01*
X80616632Y-48608411D01*
X80618186Y-48606783D01*
X80632174Y-48592797D01*
X80634181Y-48589865D01*
X80638440Y-48584490D01*
X80659916Y-48560933D01*
X80663465Y-48551770D01*
X80674106Y-48531582D01*
X80679656Y-48523481D01*
X80686955Y-48492443D01*
X80688977Y-48485914D01*
X80700500Y-48456173D01*
X80700500Y-48446348D01*
X80703129Y-48423683D01*
X80705379Y-48414119D01*
X80702102Y-48390632D01*
X80700975Y-48382546D01*
X80700500Y-48375699D01*
X80700500Y-48024394D01*
X80719407Y-47966203D01*
X80757662Y-47934669D01*
X80780404Y-47924065D01*
X80864065Y-47840404D01*
X80914068Y-47733173D01*
X80920500Y-47684316D01*
X80920500Y-47335684D01*
X80914068Y-47286827D01*
X80908266Y-47274385D01*
X80864066Y-47179598D01*
X80864065Y-47179597D01*
X80864065Y-47179596D01*
X80780404Y-47095935D01*
X80767085Y-47089724D01*
X80722337Y-47047997D01*
X80710662Y-46987936D01*
X80736519Y-46932483D01*
X80767084Y-46910275D01*
X80780404Y-46904065D01*
X80864065Y-46820404D01*
X80914068Y-46713173D01*
X80920500Y-46664316D01*
X80920500Y-46315684D01*
X80914068Y-46266827D01*
X80902172Y-46241317D01*
X80864066Y-46159598D01*
X80864065Y-46159597D01*
X80864065Y-46159596D01*
X80823970Y-46119501D01*
X80796195Y-46064987D01*
X80805766Y-46004555D01*
X80849031Y-45961290D01*
X80893976Y-45950500D01*
X81913810Y-45950500D01*
X81972001Y-45969407D01*
G37*
%TD.AperFunction*%
%TA.AperFunction,Conductor*%
G36*
X79833796Y-50919407D02*
G01*
X79865329Y-50957660D01*
X79875933Y-50980401D01*
X79875934Y-50980402D01*
X79875935Y-50980404D01*
X79959596Y-51064065D01*
X79959597Y-51064065D01*
X79959598Y-51064066D01*
X80066824Y-51114067D01*
X80066825Y-51114067D01*
X80066827Y-51114068D01*
X80115684Y-51120500D01*
X80115685Y-51120500D01*
X80464314Y-51120500D01*
X80464316Y-51120500D01*
X80513173Y-51114068D01*
X80620404Y-51064065D01*
X80704065Y-50980404D01*
X80710275Y-50967085D01*
X80752003Y-50922337D01*
X80812064Y-50910662D01*
X80867517Y-50936519D01*
X80889725Y-50967086D01*
X80895934Y-50980403D01*
X80895935Y-50980404D01*
X80926760Y-51011229D01*
X80954538Y-51065745D01*
X80954010Y-51087064D01*
X80955296Y-51087118D01*
X80954957Y-51095311D01*
X80954957Y-51095313D01*
X80954957Y-51095315D01*
X80956452Y-51107305D01*
X80959120Y-51128709D01*
X80959500Y-51134837D01*
X80959500Y-51139040D01*
X80961015Y-51148118D01*
X80963087Y-51160541D01*
X80969425Y-51211388D01*
X80971527Y-51218448D01*
X80973907Y-51225380D01*
X80998295Y-51270444D01*
X81020801Y-51316482D01*
X81025078Y-51322472D01*
X81029579Y-51328255D01*
X81029581Y-51328257D01*
X81029582Y-51328258D01*
X81030308Y-51328926D01*
X81067275Y-51362958D01*
X81319199Y-51614881D01*
X81332074Y-51630737D01*
X81338563Y-51640669D01*
X81365110Y-51661332D01*
X81369708Y-51665392D01*
X81372687Y-51668370D01*
X81372690Y-51668372D01*
X81372693Y-51668375D01*
X81390434Y-51681041D01*
X81430874Y-51712517D01*
X81430875Y-51712517D01*
X81430876Y-51712518D01*
X81437318Y-51716005D01*
X81443931Y-51719238D01*
X81443933Y-51719238D01*
X81443934Y-51719239D01*
X81493033Y-51733856D01*
X81527647Y-51745740D01*
X81576544Y-51782515D01*
X81594500Y-51839374D01*
X81594500Y-54701000D01*
X81597030Y-54733144D01*
X81599452Y-54748440D01*
X81601875Y-54763738D01*
X81602647Y-54768284D01*
X81602647Y-54768286D01*
X81638591Y-54852382D01*
X81638592Y-54852383D01*
X81674556Y-54901883D01*
X81698797Y-54929628D01*
X81718603Y-54941461D01*
X81758857Y-54987534D01*
X81766064Y-55014199D01*
X81769120Y-55038708D01*
X81769500Y-55044837D01*
X81769500Y-55049040D01*
X81769787Y-55050759D01*
X81773087Y-55070541D01*
X81779425Y-55121388D01*
X81781527Y-55128448D01*
X81783907Y-55135380D01*
X81808295Y-55180444D01*
X81830801Y-55226482D01*
X81835078Y-55232472D01*
X81839579Y-55238255D01*
X81877275Y-55272958D01*
X82019199Y-55414881D01*
X82032074Y-55430737D01*
X82038563Y-55440669D01*
X82065110Y-55461332D01*
X82069708Y-55465392D01*
X82072689Y-55468372D01*
X82072694Y-55468376D01*
X82090437Y-55481044D01*
X82130873Y-55512517D01*
X82137323Y-55516007D01*
X82143930Y-55519237D01*
X82143933Y-55519239D01*
X82193037Y-55533858D01*
X82241512Y-55550500D01*
X82241516Y-55550500D01*
X82248736Y-55551705D01*
X82256039Y-55552615D01*
X82256046Y-55552617D01*
X82307231Y-55550500D01*
X83313810Y-55550500D01*
X83372001Y-55569407D01*
X83383814Y-55579496D01*
X83420503Y-55616185D01*
X83448280Y-55670702D01*
X83449499Y-55686189D01*
X83449499Y-57339233D01*
X83430592Y-57397424D01*
X83381092Y-57433388D01*
X83319906Y-57433388D01*
X83308660Y-57428958D01*
X83303820Y-57426701D01*
X83259487Y-57406028D01*
X83209901Y-57399500D01*
X83209899Y-57399500D01*
X82790103Y-57399500D01*
X82790092Y-57399501D01*
X82740513Y-57406027D01*
X82740511Y-57406027D01*
X82631686Y-57456774D01*
X82631684Y-57456775D01*
X82631684Y-57456776D01*
X82570001Y-57518458D01*
X82515487Y-57546234D01*
X82455055Y-57536663D01*
X82429999Y-57518459D01*
X82368316Y-57456776D01*
X82368314Y-57456775D01*
X82368313Y-57456774D01*
X82259489Y-57406029D01*
X82259488Y-57406028D01*
X82242958Y-57403852D01*
X82209901Y-57399500D01*
X82209899Y-57399500D01*
X81790103Y-57399500D01*
X81790092Y-57399501D01*
X81740513Y-57406027D01*
X81740511Y-57406027D01*
X81631686Y-57456774D01*
X81546774Y-57541686D01*
X81546470Y-57542340D01*
X81545854Y-57543000D01*
X81541808Y-57548779D01*
X81540995Y-57548210D01*
X81504742Y-57587088D01*
X81456746Y-57599500D01*
X81161308Y-57599500D01*
X81103117Y-57580593D01*
X81077482Y-57553171D01*
X80979818Y-57397741D01*
X80979817Y-57397740D01*
X80979816Y-57397738D01*
X80852262Y-57270184D01*
X80852259Y-57270182D01*
X80852258Y-57270181D01*
X80699523Y-57174211D01*
X80529261Y-57114633D01*
X80529257Y-57114632D01*
X80512682Y-57112764D01*
X80473742Y-57108377D01*
X80418036Y-57083074D01*
X80387840Y-57029859D01*
X80394691Y-56969058D01*
X80435971Y-56923896D01*
X80473741Y-56911622D01*
X80529255Y-56905368D01*
X80699522Y-56845789D01*
X80852262Y-56749816D01*
X80979816Y-56622262D01*
X81075789Y-56469522D01*
X81135368Y-56299255D01*
X81155565Y-56120000D01*
X81135368Y-55940745D01*
X81133848Y-55936402D01*
X81092373Y-55817872D01*
X81075789Y-55770478D01*
X81066674Y-55755972D01*
X80979818Y-55617741D01*
X80979817Y-55617740D01*
X80979816Y-55617738D01*
X80852262Y-55490184D01*
X80852259Y-55490182D01*
X80852258Y-55490181D01*
X80699523Y-55394211D01*
X80524433Y-55332944D01*
X80475753Y-55295879D01*
X80458156Y-55237278D01*
X80478364Y-55179527D01*
X80528659Y-55144683D01*
X80557131Y-55140500D01*
X80969747Y-55140500D01*
X80969748Y-55140500D01*
X81028231Y-55128867D01*
X81094552Y-55084552D01*
X81138867Y-55018231D01*
X81150500Y-54959748D01*
X81150500Y-53720252D01*
X81138867Y-53661769D01*
X81094552Y-53595448D01*
X81088660Y-53591511D01*
X81028233Y-53551134D01*
X81028231Y-53551133D01*
X81028228Y-53551132D01*
X81028227Y-53551132D01*
X80969758Y-53539501D01*
X80969748Y-53539500D01*
X79730252Y-53539500D01*
X79730251Y-53539500D01*
X79730241Y-53539501D01*
X79671772Y-53551132D01*
X79671763Y-53551135D01*
X79604500Y-53596080D01*
X79545612Y-53612689D01*
X79488209Y-53591511D01*
X79454216Y-53540638D01*
X79450499Y-53513765D01*
X79450499Y-51641007D01*
X79450500Y-51641003D01*
X79450500Y-51531008D01*
X79450499Y-51531004D01*
X79439204Y-51474223D01*
X79423580Y-51395672D01*
X79370774Y-51268189D01*
X79294113Y-51153457D01*
X79210157Y-51069501D01*
X79182382Y-51014987D01*
X79191953Y-50954555D01*
X79235218Y-50911290D01*
X79280163Y-50900500D01*
X79775605Y-50900500D01*
X79833796Y-50919407D01*
G37*
%TD.AperFunction*%
%TA.AperFunction,Conductor*%
G36*
X85997833Y-43638766D02*
G01*
X87918918Y-44434507D01*
X87923259Y-44436305D01*
X87969784Y-44476042D01*
X87976837Y-44489883D01*
X89672881Y-48584490D01*
X90062834Y-49525919D01*
X90067808Y-49537926D01*
X90072609Y-49598923D01*
X90040639Y-49651092D01*
X90014230Y-49667276D01*
X89880036Y-49722861D01*
X89830464Y-49755984D01*
X89830458Y-49755990D01*
X89786146Y-49822308D01*
X89786145Y-49822312D01*
X89770584Y-49900538D01*
X89770584Y-49900539D01*
X89782216Y-49959022D01*
X90421393Y-51502131D01*
X90426194Y-51563128D01*
X90394224Y-51615297D01*
X90367817Y-51631480D01*
X90344514Y-51641132D01*
X90343333Y-51641701D01*
X90294476Y-51661934D01*
X90294468Y-51661939D01*
X90165729Y-51753271D01*
X90165727Y-51753272D01*
X90060542Y-51870962D01*
X90060538Y-51870967D01*
X90060537Y-51870969D01*
X90050075Y-51889897D01*
X89990158Y-51998296D01*
X89945459Y-52040077D01*
X89884739Y-52047607D01*
X89831190Y-52018007D01*
X89812050Y-51988292D01*
X88118209Y-47899000D01*
X87869847Y-47299401D01*
X87869847Y-47299400D01*
X87869845Y-47299397D01*
X87859485Y-47274386D01*
X87859484Y-47274384D01*
X87843821Y-47256045D01*
X87834690Y-47243478D01*
X87831123Y-47237658D01*
X87822085Y-47222909D01*
X87803735Y-47207237D01*
X87792756Y-47196258D01*
X87777092Y-47177917D01*
X87777089Y-47177915D01*
X87777088Y-47177914D01*
X87756526Y-47165313D01*
X87743961Y-47156184D01*
X87725617Y-47140517D01*
X87725618Y-47140517D01*
X87696133Y-47128304D01*
X87672616Y-47118563D01*
X87216097Y-46929465D01*
X86377753Y-46582209D01*
X86331227Y-46542472D01*
X86324175Y-46528631D01*
X86130749Y-46061667D01*
X86125948Y-46000670D01*
X86130749Y-45985895D01*
X86137948Y-45968515D01*
X86345482Y-45467482D01*
X86383763Y-45421869D01*
X86390826Y-45417369D01*
X86390836Y-45417365D01*
X86479368Y-45336241D01*
X86504374Y-45292928D01*
X86665024Y-44905082D01*
X86677970Y-44856772D01*
X86672732Y-44736806D01*
X86626781Y-44625869D01*
X86545656Y-44537336D01*
X86502343Y-44512330D01*
X86448151Y-44489883D01*
X86169935Y-44374642D01*
X86121620Y-44361695D01*
X86121619Y-44361695D01*
X86001654Y-44366932D01*
X86001654Y-44366933D01*
X86001649Y-44366934D01*
X85970649Y-44379774D01*
X85909652Y-44384573D01*
X85894880Y-44379773D01*
X85882490Y-44374641D01*
X85832160Y-44353793D01*
X85720774Y-44307656D01*
X85674249Y-44267919D01*
X85659965Y-44208425D01*
X85667196Y-44178307D01*
X85674946Y-44159598D01*
X85686579Y-44101115D01*
X85671018Y-44022884D01*
X85671017Y-44022883D01*
X85670913Y-44022357D01*
X85678105Y-43961596D01*
X85713011Y-43920727D01*
X85713456Y-43920430D01*
X85779778Y-43876116D01*
X85812906Y-43826536D01*
X85868489Y-43692344D01*
X85908224Y-43645820D01*
X85967718Y-43631536D01*
X85997833Y-43638766D01*
G37*
%TD.AperFunction*%
%TA.AperFunction,Conductor*%
G36*
X66615203Y-44605822D02*
G01*
X66631387Y-44632231D01*
X66631580Y-44632696D01*
X66631580Y-44632697D01*
X66661786Y-44705621D01*
X66753140Y-44834368D01*
X66870851Y-44939560D01*
X66998134Y-45009905D01*
X67039917Y-45054599D01*
X67047450Y-45115319D01*
X67017854Y-45168870D01*
X66988131Y-45188015D01*
X62338111Y-47114119D01*
X62274386Y-47140513D01*
X62256036Y-47156185D01*
X62243473Y-47165312D01*
X62222908Y-47177913D01*
X62222907Y-47177915D01*
X62207242Y-47196257D01*
X62196257Y-47207242D01*
X62177914Y-47222907D01*
X62177914Y-47222908D01*
X62165308Y-47243479D01*
X62156180Y-47256043D01*
X62140515Y-47274385D01*
X62129828Y-47300186D01*
X62128302Y-47303869D01*
X61445437Y-48952447D01*
X61405700Y-48998972D01*
X61346205Y-49013256D01*
X61316087Y-49006025D01*
X61306775Y-49002168D01*
X60909348Y-48837548D01*
X60467483Y-48654521D01*
X60421873Y-48616249D01*
X60417363Y-48609170D01*
X60417363Y-48609169D01*
X60336239Y-48520637D01*
X60292926Y-48495631D01*
X60292919Y-48495628D01*
X59905086Y-48334983D01*
X59905082Y-48334982D01*
X59905080Y-48334981D01*
X59856770Y-48322035D01*
X59736804Y-48327273D01*
X59736799Y-48327274D01*
X59625870Y-48373222D01*
X59625868Y-48373223D01*
X59615694Y-48382546D01*
X59537334Y-48454349D01*
X59513503Y-48495628D01*
X59512325Y-48497668D01*
X59374640Y-48830069D01*
X59361693Y-48878383D01*
X59361693Y-48878384D01*
X59361693Y-48878385D01*
X59361693Y-48878386D01*
X59364537Y-48943517D01*
X59366931Y-48998351D01*
X59379773Y-49029354D01*
X59384574Y-49090351D01*
X59379773Y-49105126D01*
X59307655Y-49279234D01*
X59267918Y-49325759D01*
X59208423Y-49340043D01*
X59178306Y-49332812D01*
X59159598Y-49325063D01*
X59146693Y-49322496D01*
X59101115Y-49313430D01*
X59101114Y-49313430D01*
X59022356Y-49329095D01*
X58961595Y-49321903D01*
X58920727Y-49286998D01*
X58919519Y-49285190D01*
X58876116Y-49220231D01*
X58876112Y-49220228D01*
X58876111Y-49220227D01*
X58826538Y-49187104D01*
X58826539Y-49187104D01*
X58692343Y-49131518D01*
X58645818Y-49091781D01*
X58631534Y-49032286D01*
X58638763Y-49002173D01*
X59436302Y-47076742D01*
X59476038Y-47030219D01*
X59489873Y-47023168D01*
X64537927Y-44932196D01*
X64598921Y-44927396D01*
X64651090Y-44959366D01*
X64667274Y-44985775D01*
X64722860Y-45119972D01*
X64755983Y-45169544D01*
X64755984Y-45169545D01*
X64755987Y-45169549D01*
X64772019Y-45180261D01*
X64822307Y-45213862D01*
X64822309Y-45213863D01*
X64853601Y-45220087D01*
X64900537Y-45229425D01*
X64900538Y-45229424D01*
X64900540Y-45229425D01*
X64959023Y-45217792D01*
X66502040Y-44578652D01*
X66563034Y-44573852D01*
X66615203Y-44605822D01*
G37*
%TD.AperFunction*%
%TA.AperFunction,Conductor*%
G36*
X75861001Y-46760712D02*
G01*
X75904266Y-46803977D01*
X75914048Y-46863011D01*
X75894353Y-46999996D01*
X75894353Y-47000002D01*
X75914834Y-47142456D01*
X75922560Y-47159373D01*
X75929535Y-47220160D01*
X75899449Y-47273437D01*
X75843793Y-47298855D01*
X75832507Y-47299500D01*
X75828035Y-47299500D01*
X75689949Y-47340046D01*
X75689942Y-47340049D01*
X75568873Y-47417855D01*
X75474622Y-47526628D01*
X75414834Y-47657543D01*
X75394353Y-47799997D01*
X75394353Y-47800002D01*
X75414834Y-47942456D01*
X75464026Y-48050170D01*
X75474623Y-48073373D01*
X75550413Y-48160840D01*
X75566084Y-48178925D01*
X75589901Y-48235285D01*
X75576042Y-48294880D01*
X75561268Y-48313759D01*
X75304526Y-48570503D01*
X75250009Y-48598281D01*
X75234522Y-48599500D01*
X70364479Y-48599500D01*
X70306288Y-48580593D01*
X70270324Y-48531093D01*
X70270324Y-48469907D01*
X70294475Y-48430496D01*
X71295475Y-47429496D01*
X71349992Y-47401719D01*
X71365479Y-47400500D01*
X74934836Y-47400500D01*
X74948511Y-47402732D01*
X74948683Y-47401506D01*
X74957764Y-47402772D01*
X74957765Y-47402773D01*
X74957765Y-47402772D01*
X74957766Y-47402773D01*
X74966507Y-47402368D01*
X75005793Y-47400552D01*
X75008070Y-47400500D01*
X75027841Y-47400500D01*
X75027844Y-47400500D01*
X75031337Y-47399846D01*
X75038141Y-47399056D01*
X75069992Y-47397585D01*
X75078976Y-47393617D01*
X75100777Y-47386865D01*
X75110433Y-47385061D01*
X75137543Y-47368274D01*
X75143589Y-47365088D01*
X75172765Y-47352206D01*
X75179709Y-47345260D01*
X75197601Y-47331089D01*
X75205952Y-47325919D01*
X75225165Y-47300474D01*
X75229662Y-47295308D01*
X75572965Y-46952005D01*
X75746053Y-46778917D01*
X75800569Y-46751141D01*
X75861001Y-46760712D01*
G37*
%TD.AperFunction*%
%TA.AperFunction,Conductor*%
G36*
X72254432Y-36269407D02*
G01*
X72263403Y-36277640D01*
X72263520Y-36277506D01*
X72268871Y-36282143D01*
X72389942Y-36359950D01*
X72389947Y-36359953D01*
X72491441Y-36389754D01*
X72528035Y-36400499D01*
X72528036Y-36400499D01*
X72528039Y-36400500D01*
X72528041Y-36400500D01*
X72671959Y-36400500D01*
X72671961Y-36400500D01*
X72810053Y-36359953D01*
X72810053Y-36359952D01*
X72816847Y-36357958D01*
X72817258Y-36359359D01*
X72870152Y-36353286D01*
X72923432Y-36383369D01*
X72948854Y-36439023D01*
X72949500Y-36450316D01*
X72949500Y-37234317D01*
X72932815Y-37289318D01*
X72911136Y-37321762D01*
X72911132Y-37321772D01*
X72899501Y-37380241D01*
X72899500Y-37380253D01*
X72899500Y-38219746D01*
X72899501Y-38219758D01*
X72911132Y-38278227D01*
X72911133Y-38278231D01*
X72932815Y-38310681D01*
X72949500Y-38365681D01*
X72949500Y-38765851D01*
X72930593Y-38824042D01*
X72881093Y-38860006D01*
X72819907Y-38860006D01*
X72780496Y-38835855D01*
X72629496Y-38684855D01*
X72601719Y-38630338D01*
X72600500Y-38614851D01*
X72600500Y-37816540D01*
X72600669Y-37812451D01*
X72604132Y-37770656D01*
X72603527Y-37768268D01*
X72600500Y-37743974D01*
X72600500Y-37380253D01*
X72600498Y-37380241D01*
X72597430Y-37364818D01*
X72588867Y-37321769D01*
X72544552Y-37255448D01*
X72544548Y-37255445D01*
X72478233Y-37211134D01*
X72478231Y-37211133D01*
X72478228Y-37211132D01*
X72478227Y-37211132D01*
X72419758Y-37199501D01*
X72419748Y-37199500D01*
X72080252Y-37199500D01*
X72080251Y-37199500D01*
X72080241Y-37199501D01*
X72021772Y-37211132D01*
X72021766Y-37211134D01*
X71955451Y-37255445D01*
X71955445Y-37255451D01*
X71911134Y-37321766D01*
X71911132Y-37321772D01*
X71901575Y-37369816D01*
X71871678Y-37423199D01*
X71816112Y-37448814D01*
X71804478Y-37449500D01*
X71376190Y-37449500D01*
X71317999Y-37430593D01*
X71306185Y-37420502D01*
X71279495Y-37393811D01*
X71251719Y-37339294D01*
X71250500Y-37323809D01*
X71250500Y-36986189D01*
X71269407Y-36927998D01*
X71279496Y-36916185D01*
X71916186Y-36279496D01*
X71970703Y-36251719D01*
X71986190Y-36250500D01*
X72196241Y-36250500D01*
X72254432Y-36269407D01*
G37*
%TD.AperFunction*%
%TA.AperFunction,Conductor*%
G36*
X72392712Y-34719407D02*
G01*
X72404525Y-34729496D01*
X72920504Y-35245475D01*
X72948281Y-35299992D01*
X72949500Y-35315479D01*
X72949500Y-35349683D01*
X72930593Y-35407874D01*
X72881093Y-35443838D01*
X72819907Y-35443838D01*
X72810530Y-35440187D01*
X72671964Y-35399500D01*
X72671961Y-35399500D01*
X72528039Y-35399500D01*
X72528035Y-35399500D01*
X72389949Y-35440046D01*
X72389942Y-35440049D01*
X72268871Y-35517856D01*
X72263520Y-35522494D01*
X72262031Y-35520776D01*
X72218659Y-35546928D01*
X72196241Y-35549500D01*
X71846613Y-35549500D01*
X71826298Y-35547393D01*
X71814685Y-35544958D01*
X71781294Y-35549120D01*
X71775169Y-35549500D01*
X71770956Y-35549500D01*
X71749448Y-35553089D01*
X71698607Y-35559426D01*
X71691575Y-35561519D01*
X71684616Y-35563908D01*
X71639555Y-35588295D01*
X71593517Y-35610801D01*
X71587542Y-35615066D01*
X71581744Y-35619579D01*
X71547042Y-35657275D01*
X70789504Y-36414813D01*
X70734987Y-36442590D01*
X70674555Y-36433019D01*
X70631290Y-36389754D01*
X70620500Y-36344809D01*
X70620500Y-36315685D01*
X70619276Y-36306386D01*
X70614068Y-36266827D01*
X70610218Y-36258571D01*
X70564066Y-36159598D01*
X70564065Y-36159597D01*
X70564065Y-36159596D01*
X70480404Y-36075935D01*
X70480402Y-36075934D01*
X70480401Y-36075933D01*
X70457659Y-36065328D01*
X70412912Y-36023598D01*
X70400500Y-35975604D01*
X70400500Y-34965477D01*
X70419407Y-34907286D01*
X70429497Y-34895473D01*
X70595475Y-34729496D01*
X70649991Y-34701719D01*
X70665478Y-34700500D01*
X72334521Y-34700500D01*
X72392712Y-34719407D01*
G37*
%TD.AperFunction*%
%TA.AperFunction,Conductor*%
G36*
X82331407Y-33949801D02*
G01*
X82356462Y-33968004D01*
X82431682Y-34043224D01*
X82540511Y-34093972D01*
X82590097Y-34100500D01*
X83009898Y-34100499D01*
X83059485Y-34093972D01*
X83059486Y-34093972D01*
X83128038Y-34062005D01*
X83168314Y-34043224D01*
X83229996Y-33981541D01*
X83284511Y-33953766D01*
X83344943Y-33963337D01*
X83369998Y-33981540D01*
X83431682Y-34043224D01*
X83540511Y-34093972D01*
X83590097Y-34100500D01*
X84009898Y-34100499D01*
X84059485Y-34093972D01*
X84059486Y-34093972D01*
X84128038Y-34062005D01*
X84168314Y-34043224D01*
X84233531Y-33978006D01*
X84288045Y-33950230D01*
X84348477Y-33959801D01*
X84373533Y-33978004D01*
X84409594Y-34014065D01*
X84409595Y-34014065D01*
X84409596Y-34014066D01*
X84422913Y-34020276D01*
X84467661Y-34062005D01*
X84479335Y-34122066D01*
X84453476Y-34177518D01*
X84422913Y-34199724D01*
X84409596Y-34205933D01*
X84325931Y-34289598D01*
X84275930Y-34396824D01*
X84275930Y-34396825D01*
X84275929Y-34396827D01*
X84275930Y-34396827D01*
X84270815Y-34435684D01*
X84269498Y-34445685D01*
X84269498Y-34794314D01*
X84269497Y-34794314D01*
X84275930Y-34843174D01*
X84275930Y-34843175D01*
X84325931Y-34950401D01*
X84325932Y-34950402D01*
X84325933Y-34950404D01*
X84409594Y-35034065D01*
X84409595Y-35034065D01*
X84410502Y-35034972D01*
X84438279Y-35089489D01*
X84439498Y-35104976D01*
X84439498Y-35223811D01*
X84420591Y-35282002D01*
X84410502Y-35293814D01*
X84183817Y-35520500D01*
X84129300Y-35548278D01*
X84113813Y-35549497D01*
X82249497Y-35549497D01*
X82191306Y-35530590D01*
X82155342Y-35481090D01*
X82150497Y-35450497D01*
X82150497Y-35094976D01*
X82169404Y-35036785D01*
X82179493Y-35024972D01*
X82180399Y-35024065D01*
X82180401Y-35024065D01*
X82264062Y-34940404D01*
X82314065Y-34833173D01*
X82320497Y-34784316D01*
X82320497Y-34435684D01*
X82314065Y-34386827D01*
X82299996Y-34356657D01*
X82264063Y-34279598D01*
X82264062Y-34279597D01*
X82264062Y-34279596D01*
X82180401Y-34195935D01*
X82167082Y-34189724D01*
X82122334Y-34147997D01*
X82110659Y-34087936D01*
X82136516Y-34032483D01*
X82167081Y-34010275D01*
X82180401Y-34004065D01*
X82216460Y-33968005D01*
X82270975Y-33940230D01*
X82331407Y-33949801D01*
G37*
%TD.AperFunction*%
%TA.AperFunction,Conductor*%
G36*
X81803612Y-29452558D02*
G01*
X81848403Y-29462955D01*
X82610687Y-29639892D01*
X83671072Y-29925571D01*
X83671073Y-29925571D01*
X84720783Y-30248275D01*
X85417210Y-30489420D01*
X85466008Y-30526325D01*
X85483796Y-30584868D01*
X85463776Y-30642685D01*
X85413595Y-30677693D01*
X85403006Y-30680283D01*
X85342336Y-30691624D01*
X85215245Y-30740859D01*
X85134874Y-30771996D01*
X84945712Y-30889119D01*
X84945713Y-30889119D01*
X84781295Y-31039006D01*
X84647218Y-31216552D01*
X84647213Y-31216561D01*
X84548047Y-31415712D01*
X84548046Y-31415715D01*
X84487160Y-31629707D01*
X84466632Y-31851243D01*
X84487160Y-32072779D01*
X84548046Y-32286771D01*
X84647217Y-32485932D01*
X84781294Y-32663479D01*
X84945713Y-32813367D01*
X85134874Y-32930490D01*
X85342335Y-33010861D01*
X85361886Y-33014515D01*
X85415609Y-33043791D01*
X85441867Y-33099056D01*
X85430625Y-33159200D01*
X85413698Y-33181832D01*
X85360003Y-33235528D01*
X85305487Y-33263306D01*
X85245055Y-33253735D01*
X85219998Y-33235531D01*
X85170402Y-33185935D01*
X85170400Y-33185934D01*
X85170399Y-33185933D01*
X85063173Y-33135932D01*
X85030599Y-33131644D01*
X85014314Y-33129500D01*
X84565682Y-33129500D01*
X84549396Y-33131644D01*
X84516823Y-33135932D01*
X84516822Y-33135932D01*
X84409596Y-33185933D01*
X84409593Y-33185935D01*
X84353536Y-33241992D01*
X84299019Y-33269769D01*
X84238587Y-33260197D01*
X84213532Y-33241994D01*
X84168314Y-33196776D01*
X84168312Y-33196775D01*
X84168311Y-33196774D01*
X84059487Y-33146029D01*
X84059486Y-33146028D01*
X84042956Y-33143852D01*
X84009899Y-33139500D01*
X84009897Y-33139500D01*
X83590101Y-33139500D01*
X83590090Y-33139501D01*
X83540511Y-33146027D01*
X83540509Y-33146027D01*
X83431684Y-33196774D01*
X83431682Y-33196775D01*
X83431682Y-33196776D01*
X83369999Y-33258458D01*
X83315485Y-33286234D01*
X83255053Y-33276663D01*
X83229997Y-33258459D01*
X83168314Y-33196776D01*
X83168312Y-33196775D01*
X83168311Y-33196774D01*
X83059487Y-33146029D01*
X83059486Y-33146028D01*
X83042956Y-33143852D01*
X83009899Y-33139500D01*
X83009897Y-33139500D01*
X82590101Y-33139500D01*
X82590090Y-33139501D01*
X82540511Y-33146027D01*
X82540509Y-33146027D01*
X82431684Y-33196774D01*
X82431681Y-33196776D01*
X82386465Y-33241992D01*
X82331948Y-33269769D01*
X82271516Y-33260197D01*
X82246459Y-33241992D01*
X82180401Y-33175935D01*
X82180398Y-33175933D01*
X82073172Y-33125932D01*
X82040598Y-33121644D01*
X82024313Y-33119500D01*
X81575681Y-33119500D01*
X81559395Y-33121644D01*
X81526822Y-33125932D01*
X81526821Y-33125932D01*
X81419595Y-33175933D01*
X81419592Y-33175935D01*
X81370000Y-33225527D01*
X81315483Y-33253304D01*
X81255051Y-33243732D01*
X81229996Y-33225529D01*
X81180402Y-33175935D01*
X81180400Y-33175934D01*
X81180399Y-33175933D01*
X81157657Y-33165328D01*
X81112910Y-33123598D01*
X81100498Y-33075604D01*
X81100498Y-31732717D01*
X81119405Y-31674526D01*
X81168905Y-31638562D01*
X81181307Y-31635403D01*
X81195906Y-31632674D01*
X81403367Y-31552303D01*
X81592528Y-31435180D01*
X81756947Y-31285292D01*
X81891024Y-31107745D01*
X81990195Y-30908584D01*
X82051081Y-30694592D01*
X82071609Y-30473056D01*
X82051081Y-30251520D01*
X81990195Y-30037528D01*
X81891024Y-29838367D01*
X81756947Y-29660820D01*
X81714534Y-29622155D01*
X81684269Y-29568981D01*
X81691040Y-29508171D01*
X81732260Y-29462955D01*
X81792186Y-29450603D01*
X81803612Y-29452558D01*
G37*
%TD.AperFunction*%
%TD*%
%TA.AperFunction,Conductor*%
%TO.N,Net-(U2-ADJ)*%
G36*
X85359191Y-51218907D02*
G01*
X85395155Y-51268407D01*
X85400000Y-51299000D01*
X85400000Y-54701000D01*
X85381093Y-54759191D01*
X85331593Y-54795155D01*
X85301000Y-54800000D01*
X84899000Y-54800000D01*
X84840809Y-54781093D01*
X84804845Y-54731593D01*
X84800000Y-54701000D01*
X84800000Y-52700001D01*
X84800000Y-52700000D01*
X84799999Y-52700000D01*
X84299000Y-52700000D01*
X84240809Y-52681093D01*
X84204845Y-52631593D01*
X84200000Y-52601000D01*
X84200000Y-51299000D01*
X84218907Y-51240809D01*
X84268407Y-51204845D01*
X84299000Y-51200000D01*
X85301000Y-51200000D01*
X85359191Y-51218907D01*
G37*
%TD.AperFunction*%
%TD*%
%TA.AperFunction,Conductor*%
%TO.N,+3V3*%
G36*
X82959191Y-47818907D02*
G01*
X82995155Y-47868407D01*
X83000000Y-47899000D01*
X83000000Y-50300999D01*
X82981093Y-50359190D01*
X82931593Y-50395154D01*
X82901000Y-50399999D01*
X82399000Y-50399999D01*
X82340809Y-50381092D01*
X82304845Y-50331592D01*
X82300000Y-50300999D01*
X82300000Y-47899000D01*
X82318907Y-47840809D01*
X82368407Y-47804845D01*
X82399000Y-47800000D01*
X82901000Y-47800000D01*
X82959191Y-47818907D01*
G37*
%TD.AperFunction*%
%TD*%
%TA.AperFunction,Conductor*%
%TO.N,+2V*%
G36*
X82959191Y-51268907D02*
G01*
X82995155Y-51318407D01*
X83000000Y-51349000D01*
X83000000Y-52601000D01*
X82981093Y-52659191D01*
X82931593Y-52695155D01*
X82901000Y-52700000D01*
X82499999Y-52700000D01*
X82499999Y-53999998D01*
X82500000Y-54000000D01*
X84301000Y-54000000D01*
X84359191Y-54018907D01*
X84395155Y-54068407D01*
X84400000Y-54099000D01*
X84400000Y-54701000D01*
X84381093Y-54759191D01*
X84331593Y-54795155D01*
X84301000Y-54800000D01*
X81899000Y-54800000D01*
X81840809Y-54781093D01*
X81804845Y-54731593D01*
X81800000Y-54701000D01*
X81800000Y-51349000D01*
X81818907Y-51290809D01*
X81868407Y-51254845D01*
X81899000Y-51250000D01*
X82901000Y-51250000D01*
X82959191Y-51268907D01*
G37*
%TD.AperFunction*%
%TD*%
M02*
