%TF.GenerationSoftware,KiCad,Pcbnew,7.0.6*%
%TF.CreationDate,2023-07-30T12:59:47+01:00*%
%TF.ProjectId,Kiwano,4b697761-6e6f-42e6-9b69-6361645f7063,V1.0*%
%TF.SameCoordinates,Original*%
%TF.FileFunction,Paste,Bot*%
%TF.FilePolarity,Positive*%
%FSLAX46Y46*%
G04 Gerber Fmt 4.6, Leading zero omitted, Abs format (unit mm)*
G04 Created by KiCad (PCBNEW 7.0.6) date 2023-07-30 12:59:47*
%MOMM*%
%LPD*%
G01*
G04 APERTURE LIST*
G04 Aperture macros list*
%AMRoundRect*
0 Rectangle with rounded corners*
0 $1 Rounding radius*
0 $2 $3 $4 $5 $6 $7 $8 $9 X,Y pos of 4 corners*
0 Add a 4 corners polygon primitive as box body*
4,1,4,$2,$3,$4,$5,$6,$7,$8,$9,$2,$3,0*
0 Add four circle primitives for the rounded corners*
1,1,$1+$1,$2,$3*
1,1,$1+$1,$4,$5*
1,1,$1+$1,$6,$7*
1,1,$1+$1,$8,$9*
0 Add four rect primitives between the rounded corners*
20,1,$1+$1,$2,$3,$4,$5,0*
20,1,$1+$1,$4,$5,$6,$7,0*
20,1,$1+$1,$6,$7,$8,$9,0*
20,1,$1+$1,$8,$9,$2,$3,0*%
%AMRotRect*
0 Rectangle, with rotation*
0 The origin of the aperture is its center*
0 $1 length*
0 $2 width*
0 $3 Rotation angle, in degrees counterclockwise*
0 Add horizontal line*
21,1,$1,$2,0,0,$3*%
G04 Aperture macros list end*
%ADD10C,0.010000*%
%ADD11RoundRect,0.140000X0.170000X-0.140000X0.170000X0.140000X-0.170000X0.140000X-0.170000X-0.140000X0*%
%ADD12RoundRect,0.135000X0.185000X-0.135000X0.185000X0.135000X-0.185000X0.135000X-0.185000X-0.135000X0*%
%ADD13RoundRect,0.135000X-0.135000X-0.185000X0.135000X-0.185000X0.135000X0.185000X-0.135000X0.185000X0*%
%ADD14RoundRect,0.140000X-0.103484X0.194399X-0.210635X-0.064287X0.103484X-0.194399X0.210635X0.064287X0*%
%ADD15RoundRect,0.140000X-0.194399X-0.103484X0.064287X-0.210635X0.194399X0.103484X-0.064287X0.210635X0*%
%ADD16RoundRect,0.140000X0.194399X0.103484X-0.064287X0.210635X-0.194399X-0.103484X0.064287X-0.210635X0*%
%ADD17R,0.400000X0.800000*%
%ADD18RoundRect,0.140000X0.064287X0.210635X-0.194399X0.103484X-0.064287X-0.210635X0.194399X-0.103484X0*%
%ADD19RoundRect,0.135000X-0.185000X0.135000X-0.185000X-0.135000X0.185000X-0.135000X0.185000X0.135000X0*%
%ADD20RoundRect,0.140000X0.210635X-0.064287X0.103484X0.194399X-0.210635X0.064287X-0.103484X-0.194399X0*%
%ADD21RoundRect,0.140000X-0.064287X-0.210635X0.194399X-0.103484X0.064287X0.210635X-0.194399X0.103484X0*%
%ADD22RoundRect,0.140000X0.140000X0.170000X-0.140000X0.170000X-0.140000X-0.170000X0.140000X-0.170000X0*%
%ADD23RoundRect,0.135000X0.135000X0.185000X-0.135000X0.185000X-0.135000X-0.185000X0.135000X-0.185000X0*%
%ADD24RotRect,1.700000X1.000000X67.500000*%
%ADD25RotRect,1.700000X1.000000X247.500000*%
%ADD26RotRect,1.700000X1.000000X157.500000*%
%ADD27RotRect,1.700000X1.000000X112.500000*%
%ADD28RotRect,1.700000X1.000000X22.500000*%
%ADD29RoundRect,0.140000X-0.210635X0.064287X-0.103484X-0.194399X0.210635X-0.064287X0.103484X0.194399X0*%
%ADD30RotRect,1.700000X1.000000X202.500000*%
%ADD31RoundRect,0.140000X-0.170000X0.140000X-0.170000X-0.140000X0.170000X-0.140000X0.170000X0.140000X0*%
%ADD32RoundRect,0.140000X0.103484X-0.194399X0.210635X0.064287X-0.103484X0.194399X-0.210635X-0.064287X0*%
%ADD33RoundRect,0.150000X-0.150000X0.512500X-0.150000X-0.512500X0.150000X-0.512500X0.150000X0.512500X0*%
%ADD34RotRect,1.700000X1.000000X292.500000*%
%ADD35RotRect,1.700000X1.000000X337.500000*%
G04 APERTURE END LIST*
%TO.C,J1*%
D10*
X72375000Y-38200000D02*
X72125000Y-38200000D01*
X72125000Y-37550000D01*
X72375000Y-37550000D01*
X72375000Y-38200000D01*
G36*
X72375000Y-38200000D02*
G01*
X72125000Y-38200000D01*
X72125000Y-37550000D01*
X72375000Y-37550000D01*
X72375000Y-38200000D01*
G37*
X72875000Y-38200000D02*
X72625000Y-38200000D01*
X72625000Y-37550000D01*
X72875000Y-37550000D01*
X72875000Y-38200000D01*
G36*
X72875000Y-38200000D02*
G01*
X72625000Y-38200000D01*
X72625000Y-37550000D01*
X72875000Y-37550000D01*
X72875000Y-38200000D01*
G37*
X73375000Y-38200000D02*
X73125000Y-38200000D01*
X73125000Y-37550000D01*
X73375000Y-37550000D01*
X73375000Y-38200000D01*
G36*
X73375000Y-38200000D02*
G01*
X73125000Y-38200000D01*
X73125000Y-37550000D01*
X73375000Y-37550000D01*
X73375000Y-38200000D01*
G37*
X73875000Y-38200000D02*
X73625000Y-38200000D01*
X73625000Y-37550000D01*
X73875000Y-37550000D01*
X73875000Y-38200000D01*
G36*
X73875000Y-38200000D02*
G01*
X73625000Y-38200000D01*
X73625000Y-37550000D01*
X73875000Y-37550000D01*
X73875000Y-38200000D01*
G37*
X74375000Y-38200000D02*
X74125000Y-38200000D01*
X74125000Y-37550000D01*
X74375000Y-37550000D01*
X74375000Y-38200000D01*
G36*
X74375000Y-38200000D02*
G01*
X74125000Y-38200000D01*
X74125000Y-37550000D01*
X74375000Y-37550000D01*
X74375000Y-38200000D01*
G37*
X74875000Y-38200000D02*
X74625000Y-38200000D01*
X74625000Y-37550000D01*
X74875000Y-37550000D01*
X74875000Y-38200000D01*
G36*
X74875000Y-38200000D02*
G01*
X74625000Y-38200000D01*
X74625000Y-37550000D01*
X74875000Y-37550000D01*
X74875000Y-38200000D01*
G37*
X75375000Y-38200000D02*
X75125000Y-38200000D01*
X75125000Y-37550000D01*
X75375000Y-37550000D01*
X75375000Y-38200000D01*
G36*
X75375000Y-38200000D02*
G01*
X75125000Y-38200000D01*
X75125000Y-37550000D01*
X75375000Y-37550000D01*
X75375000Y-38200000D01*
G37*
X75875000Y-38200000D02*
X75625000Y-38200000D01*
X75625000Y-37550000D01*
X75875000Y-37550000D01*
X75875000Y-38200000D01*
G36*
X75875000Y-38200000D02*
G01*
X75625000Y-38200000D01*
X75625000Y-37550000D01*
X75875000Y-37550000D01*
X75875000Y-38200000D01*
G37*
X76375000Y-38200000D02*
X76125000Y-38200000D01*
X76125000Y-37550000D01*
X76375000Y-37550000D01*
X76375000Y-38200000D01*
G36*
X76375000Y-38200000D02*
G01*
X76125000Y-38200000D01*
X76125000Y-37550000D01*
X76375000Y-37550000D01*
X76375000Y-38200000D01*
G37*
X76875000Y-38200000D02*
X76625000Y-38200000D01*
X76625000Y-37550000D01*
X76875000Y-37550000D01*
X76875000Y-38200000D01*
G36*
X76875000Y-38200000D02*
G01*
X76625000Y-38200000D01*
X76625000Y-37550000D01*
X76875000Y-37550000D01*
X76875000Y-38200000D01*
G37*
X77375000Y-38200000D02*
X77125000Y-38200000D01*
X77125000Y-37550000D01*
X77375000Y-37550000D01*
X77375000Y-38200000D01*
G36*
X77375000Y-38200000D02*
G01*
X77125000Y-38200000D01*
X77125000Y-37550000D01*
X77375000Y-37550000D01*
X77375000Y-38200000D01*
G37*
X77875000Y-38200000D02*
X77625000Y-38200000D01*
X77625000Y-37550000D01*
X77875000Y-37550000D01*
X77875000Y-38200000D01*
G36*
X77875000Y-38200000D02*
G01*
X77625000Y-38200000D01*
X77625000Y-37550000D01*
X77875000Y-37550000D01*
X77875000Y-38200000D01*
G37*
%TO.C,D7*%
G36*
X56626805Y-54446121D02*
G01*
X55976243Y-56016717D01*
X55375721Y-55767972D01*
X55186302Y-55310675D01*
X55702925Y-54063438D01*
X56626805Y-54446121D01*
G37*
%TO.C,D3*%
G36*
X94624284Y-64232036D02*
G01*
X94813703Y-64689333D01*
X94297080Y-65936570D01*
X93373200Y-65553887D01*
X94023762Y-63983291D01*
X94624284Y-64232036D01*
G37*
%TO.C,D5*%
G36*
X71016720Y-79023760D02*
G01*
X70767975Y-79624282D01*
X70310678Y-79813701D01*
X69063441Y-79297078D01*
X69446124Y-78373198D01*
X71016720Y-79023760D01*
G37*
%TO.C,D6*%
G36*
X58731565Y-70635222D02*
G01*
X58131044Y-70883966D01*
X57673747Y-70694548D01*
X57157124Y-69447310D01*
X58081004Y-69064627D01*
X58731565Y-70635222D01*
G37*
%TO.C,D8*%
G36*
X65935378Y-43081004D02*
G01*
X64364783Y-43731565D01*
X64116039Y-43131044D01*
X64305457Y-42673747D01*
X65552695Y-42157124D01*
X65935378Y-43081004D01*
G37*
%TO.C,D4*%
G36*
X85883968Y-76868960D02*
G01*
X85694550Y-77326257D01*
X84447312Y-77842880D01*
X84064629Y-76919000D01*
X85635224Y-76268439D01*
X85883968Y-76868960D01*
G37*
%TO.C,J2*%
X77874989Y-45850008D02*
X77624989Y-45850008D01*
X77624989Y-45200008D01*
X77874989Y-45200008D01*
X77874989Y-45850008D01*
G36*
X77874989Y-45850008D02*
G01*
X77624989Y-45850008D01*
X77624989Y-45200008D01*
X77874989Y-45200008D01*
X77874989Y-45850008D01*
G37*
X77374989Y-45850008D02*
X77124989Y-45850008D01*
X77124989Y-45200008D01*
X77374989Y-45200008D01*
X77374989Y-45850008D01*
G36*
X77374989Y-45850008D02*
G01*
X77124989Y-45850008D01*
X77124989Y-45200008D01*
X77374989Y-45200008D01*
X77374989Y-45850008D01*
G37*
X76874989Y-45850008D02*
X76624989Y-45850008D01*
X76624989Y-45200008D01*
X76874989Y-45200008D01*
X76874989Y-45850008D01*
G36*
X76874989Y-45850008D02*
G01*
X76624989Y-45850008D01*
X76624989Y-45200008D01*
X76874989Y-45200008D01*
X76874989Y-45850008D01*
G37*
X76374989Y-45850008D02*
X76124989Y-45850008D01*
X76124989Y-45200008D01*
X76374989Y-45200008D01*
X76374989Y-45850008D01*
G36*
X76374989Y-45850008D02*
G01*
X76124989Y-45850008D01*
X76124989Y-45200008D01*
X76374989Y-45200008D01*
X76374989Y-45850008D01*
G37*
X75874989Y-45850008D02*
X75624989Y-45850008D01*
X75624989Y-45200008D01*
X75874989Y-45200008D01*
X75874989Y-45850008D01*
G36*
X75874989Y-45850008D02*
G01*
X75624989Y-45850008D01*
X75624989Y-45200008D01*
X75874989Y-45200008D01*
X75874989Y-45850008D01*
G37*
X75374989Y-45850008D02*
X75124989Y-45850008D01*
X75124989Y-45200008D01*
X75374989Y-45200008D01*
X75374989Y-45850008D01*
G36*
X75374989Y-45850008D02*
G01*
X75124989Y-45850008D01*
X75124989Y-45200008D01*
X75374989Y-45200008D01*
X75374989Y-45850008D01*
G37*
X74874989Y-45850008D02*
X74624989Y-45850008D01*
X74624989Y-45200008D01*
X74874989Y-45200008D01*
X74874989Y-45850008D01*
G36*
X74874989Y-45850008D02*
G01*
X74624989Y-45850008D01*
X74624989Y-45200008D01*
X74874989Y-45200008D01*
X74874989Y-45850008D01*
G37*
X74374989Y-45850008D02*
X74124989Y-45850008D01*
X74124989Y-45200008D01*
X74374989Y-45200008D01*
X74374989Y-45850008D01*
G36*
X74374989Y-45850008D02*
G01*
X74124989Y-45850008D01*
X74124989Y-45200008D01*
X74374989Y-45200008D01*
X74374989Y-45850008D01*
G37*
X73874989Y-45850008D02*
X73624989Y-45850008D01*
X73624989Y-45200008D01*
X73874989Y-45200008D01*
X73874989Y-45850008D01*
G36*
X73874989Y-45850008D02*
G01*
X73624989Y-45850008D01*
X73624989Y-45200008D01*
X73874989Y-45200008D01*
X73874989Y-45850008D01*
G37*
X73374989Y-45850008D02*
X73124989Y-45850008D01*
X73124989Y-45200008D01*
X73374989Y-45200008D01*
X73374989Y-45850008D01*
G36*
X73374989Y-45850008D02*
G01*
X73124989Y-45850008D01*
X73124989Y-45200008D01*
X73374989Y-45200008D01*
X73374989Y-45850008D01*
G37*
X72874989Y-45850008D02*
X72624989Y-45850008D01*
X72624989Y-45200008D01*
X72874989Y-45200008D01*
X72874989Y-45850008D01*
G36*
X72874989Y-45850008D02*
G01*
X72624989Y-45850008D01*
X72624989Y-45200008D01*
X72874989Y-45200008D01*
X72874989Y-45850008D01*
G37*
X72374989Y-45850008D02*
X72124989Y-45850008D01*
X72124989Y-45200008D01*
X72374989Y-45200008D01*
X72374989Y-45850008D01*
G36*
X72374989Y-45850008D02*
G01*
X72124989Y-45850008D01*
X72124989Y-45200008D01*
X72374989Y-45200008D01*
X72374989Y-45850008D01*
G37*
%TO.C,D2*%
G36*
X92326262Y-49305458D02*
G01*
X92842885Y-50552696D01*
X91919005Y-50935379D01*
X91268444Y-49364784D01*
X91868965Y-49116040D01*
X92326262Y-49305458D01*
G37*
%TO.C,D1*%
G36*
X80936571Y-40702925D02*
G01*
X80553888Y-41626805D01*
X78983292Y-40976243D01*
X79232037Y-40375721D01*
X79689334Y-40186302D01*
X80936571Y-40702925D01*
G37*
%TD*%
D11*
%TO.C,C9*%
X83000000Y-57880000D03*
X83000000Y-56920000D03*
%TD*%
%TO.C,C14*%
X82799998Y-34580000D03*
X82799998Y-33620000D03*
%TD*%
D12*
%TO.C,R11*%
X69100000Y-37510000D03*
X69100000Y-36490000D03*
%TD*%
D13*
%TO.C,R5*%
X84090000Y-54400000D03*
X85110000Y-54400000D03*
%TD*%
D14*
%TO.C,C7*%
X60282499Y-47972305D03*
X59915123Y-48859229D03*
%TD*%
D15*
%TO.C,C5*%
X62972307Y-74717505D03*
X63859231Y-75084881D03*
%TD*%
D16*
%TO.C,C1*%
X87027700Y-45282501D03*
X86140776Y-44915125D03*
%TD*%
D17*
%TO.C,J1*%
X71250000Y-35300000D03*
X78750000Y-35300000D03*
%TD*%
D18*
%TO.C,C8*%
X73098023Y-41088290D03*
X72211099Y-41455666D03*
%TD*%
D19*
%TO.C,R7*%
X84789998Y-33600000D03*
X84789998Y-34620000D03*
%TD*%
D20*
%TO.C,C2*%
X93911717Y-58098022D03*
X93544341Y-57211098D03*
%TD*%
D21*
%TO.C,C4*%
X76901985Y-78911712D03*
X77788909Y-78544336D03*
%TD*%
D22*
%TO.C,C12*%
X83080000Y-53400000D03*
X82120000Y-53400000D03*
%TD*%
D12*
%TO.C,R6*%
X85800000Y-34610000D03*
X85800000Y-33590000D03*
%TD*%
D19*
%TO.C,R9*%
X80799998Y-33590000D03*
X80799998Y-34610000D03*
%TD*%
D11*
%TO.C,C13*%
X83799998Y-34580000D03*
X83799998Y-33620000D03*
%TD*%
D22*
%TO.C,C11*%
X83580000Y-48200000D03*
X82620000Y-48200000D03*
%TD*%
D23*
%TO.C,R4*%
X85110000Y-53400000D03*
X84090000Y-53400000D03*
%TD*%
D12*
%TO.C,R1*%
X82200000Y-63710000D03*
X82200000Y-62690000D03*
%TD*%
D24*
%TO.C,D7*%
X59237774Y-50494497D03*
X57944343Y-49958740D03*
X57133015Y-55575834D03*
%TD*%
D25*
%TO.C,D3*%
X90762231Y-69505511D03*
X92055662Y-70041268D03*
X92866990Y-64424174D03*
%TD*%
D26*
%TO.C,D5*%
X65494500Y-75762229D03*
X64958743Y-77055660D03*
X70575837Y-77866988D03*
%TD*%
D27*
%TO.C,D6*%
X57133017Y-64424172D03*
X55839586Y-64959929D03*
X59237776Y-69505509D03*
%TD*%
D12*
%TO.C,R8*%
X81799997Y-34610000D03*
X81799997Y-33590000D03*
%TD*%
D28*
%TO.C,D8*%
X70575833Y-42133017D03*
X70040076Y-40839586D03*
X65494496Y-44237776D03*
%TD*%
D29*
%TO.C,C6*%
X56088290Y-61901982D03*
X56455666Y-62788906D03*
%TD*%
D30*
%TO.C,D4*%
X79424174Y-77866987D03*
X79959931Y-79160418D03*
X84505511Y-75762228D03*
%TD*%
D13*
%TO.C,R2*%
X80290000Y-50600000D03*
X81310000Y-50600000D03*
%TD*%
D31*
%TO.C,C10*%
X82000000Y-56920000D03*
X82000000Y-57880000D03*
%TD*%
D12*
%TO.C,R3*%
X80400000Y-47510000D03*
X80400000Y-46490000D03*
%TD*%
D32*
%TO.C,C3*%
X89717507Y-72027691D03*
X90084883Y-71140767D03*
%TD*%
D17*
%TO.C,J2*%
X78749989Y-48100008D03*
X71249989Y-48100008D03*
%TD*%
D33*
%TO.C,U2*%
X82650000Y-49662500D03*
X83600000Y-49662500D03*
X84550000Y-49662500D03*
X84550000Y-51937500D03*
X82650000Y-51937500D03*
%TD*%
D12*
%TO.C,R10*%
X70100000Y-37510000D03*
X70100000Y-36490000D03*
%TD*%
D34*
%TO.C,D2*%
X92866992Y-55575834D03*
X94160423Y-55040077D03*
X90762233Y-50494497D03*
%TD*%
D35*
%TO.C,D1*%
X84505512Y-44237774D03*
X85041269Y-42944343D03*
X79424175Y-42133015D03*
%TD*%
M02*
