%TF.GenerationSoftware,KiCad,Pcbnew,7.0.6*%
%TF.CreationDate,2023-07-27T21:49:21+01:00*%
%TF.ProjectId,Kiwano,4b697761-6e6f-42e6-9b69-6361645f7063,V1.0*%
%TF.SameCoordinates,Original*%
%TF.FileFunction,Soldermask,Top*%
%TF.FilePolarity,Negative*%
%FSLAX46Y46*%
G04 Gerber Fmt 4.6, Leading zero omitted, Abs format (unit mm)*
G04 Created by KiCad (PCBNEW 7.0.6) date 2023-07-27 21:49:21*
%MOMM*%
%LPD*%
G01*
G04 APERTURE LIST*
%ADD10C,1.152000*%
%ADD11C,6.000000*%
%ADD12C,2.200000*%
%ADD13C,4.000000*%
%ADD14C,4.200000*%
%ADD15C,2.000000*%
%ADD16C,4.400000*%
%ADD17C,3.200000*%
%ADD18C,1.700000*%
%ADD19O,1.700000X1.700000*%
%ADD20R,1.700000X1.700000*%
%ADD21R,1.200000X1.200000*%
%ADD22C,1.200000*%
G04 APERTURE END LIST*
D10*
%TO.C,H2*%
X74999999Y-30000001D03*
%TD*%
%TO.C,H1*%
X100980762Y-74999999D03*
%TD*%
D11*
%TO.C,H6*%
X52726137Y-82273864D03*
%TD*%
%TO.C,H9*%
X52726136Y-37726137D03*
%TD*%
%TO.C,H8*%
X97273864Y-82273863D03*
%TD*%
D12*
%TO.C,SW1*%
X95787076Y-72000993D03*
D13*
X97689680Y-53920318D03*
D14*
X68911112Y-82685102D03*
D13*
X58386888Y-43386888D03*
D12*
X51107185Y-57906342D03*
D15*
X85672275Y-31851243D03*
X80865966Y-30473056D03*
X83269121Y-31162149D03*
D16*
X103067021Y-64948973D03*
D17*
X77058909Y-89441319D03*
X57654764Y-83876954D03*
D16*
X48575260Y-49323712D03*
%TD*%
D18*
%TO.C,J3*%
X65500000Y-48600000D03*
D19*
X65500000Y-51140000D03*
D20*
X65500000Y-53680000D03*
X65500000Y-56220000D03*
%TD*%
D11*
%TO.C,H7*%
X97273863Y-37726136D03*
%TD*%
D10*
%TO.C,H3*%
X49019238Y-75000001D03*
%TD*%
D11*
%TO.C,H5*%
X88800003Y-60000000D03*
%TD*%
D21*
%TO.C,U1*%
X80350000Y-54340000D03*
D22*
X80350000Y-56120000D03*
X80350000Y-57900000D03*
X80350000Y-59680000D03*
X80350000Y-61460000D03*
X80350000Y-63240000D03*
X80350000Y-65020000D03*
X80350000Y-66800000D03*
X69650000Y-67690000D03*
X69650000Y-65910000D03*
X69650000Y-64130000D03*
X69650000Y-62350000D03*
X69650000Y-60570000D03*
X69650000Y-58790000D03*
X69650000Y-57010000D03*
X69650000Y-55230000D03*
%TD*%
D11*
%TO.C,H4*%
X61200001Y-59999953D03*
%TD*%
M02*
